<?xml version="1.0" encoding="UTF-8"?>
<!DOCTYPE svg PUBLIC "-//W3C//DTD SVG 1.1//EN" "http://www.w3.org/Graphics/SVG/1.1/DTD/svg11.dtd">
<!-- Creator: CorelDRAW 2019 (64-Bit) -->
<svg xmlns="http://www.w3.org/2000/svg" xml:space="preserve" width="0.333343in" height="0.333335in" version="1.1" style="shape-rendering:geometricPrecision; text-rendering:geometricPrecision; image-rendering:optimizeQuality; fill-rule:evenodd; clip-rule:evenodd"
viewBox="0 0 19.49 19.49"
 xmlns:xlink="http://www.w3.org/1999/xlink"
 xmlns:xodm="http://www.corel.com/coreldraw/odm/2003">
 <defs>
  <style type="text/css">
   <![CDATA[
    .fil2 {fill:url(#id0)}
    .fil3 {fill:url(#id1)}
    .fil1 {fill:url(#id2)}
    .fil0 {fill:url(#id3)}
   ]]>
  </style>
  <linearGradient id="id0" gradientUnits="userSpaceOnUse" x1="2.95" y1="16.89" x2="2.44" y2="13.45">
   <stop offset="0" style="stop-opacity:1; stop-color:#262E45"/>
   <stop offset="1" style="stop-opacity:1; stop-color:#E3C2A0"/>
  </linearGradient>
  <linearGradient id="id1" gradientUnits="userSpaceOnUse" xlink:href="#id0" x1="9.42" y1="16.35" x2="8.93" y2="15.69">
  </linearGradient>
  <linearGradient id="id2" gradientUnits="userSpaceOnUse" xlink:href="#id0" x1="19.18" y1="14.72" x2="11.3" y2="1.98">
  </linearGradient>
  <linearGradient id="id3" gradientUnits="userSpaceOnUse" xlink:href="#id0" x1="13.19" y1="21.22" x2="2.56" y2="0.97">
  </linearGradient>
 </defs>
 <g id="Layer_x0020_1">
  <metadata id="CorelCorpID_0Corel-Layer"/>
  <g id="_2493684797520">
   <path class="fil0" d="M1.56 17.97l2.4 0c0,0.35 -0.09,0.51 0,0.91 -0.55,0 -1.09,-0 -1.64,0 -0.33,0 -0.52,0.02 -0.6,-0.23 -0.05,-0.18 -0.14,-0.5 -0.16,-0.68zm9.82 0.91l-6.4 0c-0.29,0 -0.48,-0.14 -0.44,-0.44 0.04,-0.28 0.1,-0.53 0.15,-0.81l0.56 -3.21c0.07,-0.42 0.09,-1.29 0.61,-1.29l6.85 0c0.09,0 0.11,0.01 0.18,0.05 0.19,0.14 0.03,0.56 -0.02,0.9l-0.67 3.82c-0.04,0.26 -0.06,0.5 -0.19,0.69 -0.13,0.18 -0.34,0.29 -0.63,0.29zm-5.06 -8.38l1.26 0.91c0.47,0.29 0.55,-0.36 0.64,-0.64l0.53 -1.68c0.12,0.01 1.51,0.62 1.76,0.75 1,0.51 0.86,1.51 0.86,2.64l-5.06 0 0 -1.98zm1.29 0.15c-0.14,-0.09 -1.02,-0.77 -1.14,-0.8 0.04,-0.16 1.24,-1.45 1.29,-1.48 0.16,0.11 0.31,0.28 0.46,0.38 -0.12,0.26 -0.21,0.65 -0.31,0.95 -0.05,0.14 -0.1,0.3 -0.15,0.46 -0.05,0.15 -0.11,0.35 -0.15,0.5zm-3.84 -1.9c0.15,-0.1 0.28,-0.26 0.46,-0.38 0.12,0.08 0.79,0.89 0.98,1.07 0.08,0.08 0.09,0.11 0.16,0.19 0.09,0.1 0.12,0.09 0.16,0.22 -0.16,0.04 -0.97,0.69 -1.14,0.8l-0.61 -1.9zm1.98 -1.22c0.8,0 0.87,0.02 1.56,-0.34 0.05,0.65 0.25,0.48 -0.24,0.98 -0.1,0.1 -0.11,0.15 -0.21,0.25 -0.1,0.1 -0.12,0.12 -0.22,0.24 -0.14,0.19 -0.45,0.46 -0.63,0.74l-0.9 -1c-0.16,-0.16 -0.52,-0.51 -0.5,-0.74 0.05,-0.63 0.05,-0.45 0.34,-0.31 0.06,0.03 0.17,0.07 0.25,0.1 0.16,0.05 0.36,0.09 0.55,0.09zm0.27 -0.61c-0.53,0 -0.81,-0.13 -1.12,-0.36 -0.1,-0.07 -0.1,-0.08 -0.18,-0.16 -0.23,-0.23 -0.24,-0.14 -0.57,-0.57 -0.47,-0.64 -0.37,-1.55 -0.37,-2.63 0.55,0.05 1.14,0.15 1.6,-0.53 0.17,0.12 0.72,1.07 2.06,1.07 0.31,0 0.53,-0.08 0.8,-0.08 0,0.96 0.04,1.79 -0.58,2.43l-0.66 0.56c-0.26,0.17 -0.56,0.28 -0.97,0.28zm-2.21 -4.42c0,-0.57 0.33,-1.1 0.64,-1.38 0.88,-0.78 3.78,-1.05 3.78,1.87 -0.5,0.01 -0.8,0.22 -1.52,-0.08 -0.23,-0.09 -0.32,-0.18 -0.51,-0.33 -0.57,-0.45 -0.33,-0.89 -0.86,-0.89 -0.14,0 -0.24,0.2 -0.29,0.32 -0.17,0.34 -0.34,0.5 -0.73,0.57 -0.07,0.01 -0.51,0.03 -0.51,-0.09zm-0.65 0l0 2.32c0,0.74 0.51,1.57 0.95,1.87 -0.01,0.13 -0.05,0.34 -0.07,0.46 -0.09,0.61 0.05,0.52 -0.57,1.03 -0.38,0.31 -0.27,0.19 -0.68,0.39 -0.94,0.45 -1.78,0.59 -2.38,1.35 -0.22,0.28 -0.41,0.78 -0.41,1.19l0 5.18c0,0.18 0.12,0.3 0.3,0.3 0.42,0 0.3,-0.56 0.3,-0.99l0 -3.92c0,-0.74 0.06,-1.41 0.79,-1.8 0.2,-0.11 1.7,-0.78 1.84,-0.79 0.01,0.16 0.11,0.39 0.17,0.56l0.34 1.1c0.04,0.15 0.12,0.42 0.18,0.54 0.19,0.41 0.61,0.03 0.88,-0.17 0.29,-0.22 0.57,-0.42 0.86,-0.62l0 2.02c-0.94,0.22 -0.95,1.2 -1.1,2.1 -0.05,0.33 -0.46,2.47 -0.46,2.74l-2.97 0c-0.5,0 -0.24,0.61 -0.17,0.86 0.12,0.47 0.21,1.27 0.97,1.27l9.67 0c0.29,0 0.66,-0.24 0.81,-0.41 0.22,-0.25 0.31,-0.49 0.37,-0.89 0.12,-0.71 0.26,-1.44 0.38,-2.14 0.12,-0.72 0.23,-1.38 0.36,-2.11 0.07,-0.41 0.16,-0.67 -0.04,-1.02 -0.3,-0.54 -0.93,-0.44 -1.5,-0.44 0,-1.06 0.15,-2.04 -0.65,-2.81 -0.47,-0.46 -1.5,-0.81 -2.12,-1.08 -0.28,-0.13 -0.47,-0.19 -0.69,-0.38 -0.61,-0.52 -0.51,-0.39 -0.59,-1.01 -0.09,-0.76 -0.17,-0.29 0.28,-0.84 0.34,-0.42 0.6,-1.03 0.6,-1.64l0 -2.09c0,-1.48 -1.22,-2.63 -2.63,-2.63 -0.9,0 -1.62,0.11 -2.24,0.73 -0.47,0.47 -0.81,1.07 -0.81,1.78z"/>
   <path class="fil1" d="M17.09 11.95c-0.18,-0.12 -0.33,-0.23 -0.52,-0.36 -0.13,-0.08 -0.46,-0.3 -0.59,-0.33l0.34 -1.48c0.09,-0.51 0.15,-1.08 0.15,-1.68l2.36 0c0,0.86 -0.27,1.65 -0.58,2.27 -0.23,0.46 -0.75,1.29 -1.17,1.57zm-1.68 -0.99l-0.95 -0.26c-0.3,-0.06 -0.79,-0.15 -1.1,-0.15l0 -2.44 2.51 0 -0.15 1.48c-0.04,0.25 -0.08,0.45 -0.14,0.7 -0.05,0.23 -0.15,0.46 -0.17,0.67zm-2.06 -5.9c0.35,-0.03 0.74,-0.09 1.06,-0.15 0.34,-0.07 0.83,-0.26 0.99,-0.26l0.3 1.34c0.04,0.26 0.05,0.46 0.09,0.75 0.03,0.22 0.01,0.55 0.07,0.77l-2.51 0 0 -2.44zm2.63 -0.72c0.2,-0.11 0.39,-0.19 0.59,-0.33 0.2,-0.14 0.36,-0.27 0.56,-0.4 0.23,0.34 0.82,0.91 1.14,1.6 0.29,0.63 0.57,1.41 0.57,2.28l-2.36 0c0,-0.59 -0.07,-1.17 -0.15,-1.68 -0.08,-0.49 -0.31,-1.25 -0.34,-1.48zm-2.63 0.08l0 -2.4c0.27,0.13 0.28,0.05 0.63,0.32 0.46,0.36 1.12,1.27 1.16,1.7 -0.34,0.16 -1.29,0.38 -1.79,0.38zm-0.61 -2.4l0 2.4c-0.8,0 -1.26,-0.25 -1.83,-0.38l0.32 -0.64c0.13,-0.23 0.22,-0.38 0.38,-0.57 0.25,-0.3 0.55,-0.6 0.93,-0.75 0.09,-0.03 0.12,-0.03 0.2,-0.07zm2.13 0.27c0.4,0.09 0.96,0.41 1.32,0.63 0.07,0.04 0.12,0.07 0.18,0.12 0.11,0.08 0.1,0.1 0.21,0.13 -0.05,0.2 -0.67,0.5 -0.84,0.61 -0.21,-0.4 -0.34,-0.74 -0.63,-1.13l-0.2 -0.26c-0.06,-0.1 -0.02,-0.05 -0.05,-0.1zm-5.14 0.69c0.12,0 0.86,-0.54 1.48,-0.69 -0.08,0.15 -0.14,0.19 -0.24,0.33 -0.42,0.63 -0.31,0.53 -0.64,1.15 -0.21,-0.11 -0.23,-0.19 -0.49,-0.19 -0.15,0 -0.32,0.25 -0.21,0.44 0.09,0.17 0.32,0.24 0.48,0.32 -0.04,0.51 -0.49,1.18 -0.49,3.46 0,0.18 0.12,0.3 0.3,0.3 0.4,0 0.27,-0.38 0.31,-0.72 0.08,-0.74 0.06,-1.09 0.24,-1.89 0.04,-0.16 0.07,-0.27 0.11,-0.43 0.03,-0.12 0.1,-0.3 0.11,-0.43 0.07,0 1.14,0.34 2.06,0.42l0 2.44c-0.4,0 -1.52,-0.07 -1.67,0.09 -0.17,0.18 -0.07,0.52 0.22,0.52l1.45 0 0 3.16c0,0.37 0.61,0.49 0.61,-0.08 0.89,0 1.31,0.26 1.83,0.38 -0.83,1.56 -0.67,1.02 -1.01,1.54 -0.15,0.22 -0.08,0.52 0.29,0.52 0.3,0 1.23,-1.44 1.26,-1.79 0.17,0.04 0.82,0.41 0.88,0.61 -0.14,0.04 -0.4,0.24 -0.54,0.33 -0.29,0.17 -0.44,0.18 -0.44,0.51 0,0.13 0.2,0.25 0.3,0.25 0.23,-0 0.97,-0.54 1.13,-0.68 1.43,-1.17 2.45,-2.9 2.45,-4.83 0,-0.83 0.01,-1.02 -0.2,-1.86 -0.14,-0.57 -0.22,-0.65 -0.41,-1.12 -0.08,-0.2 -0.16,-0.32 -0.26,-0.5 -0.99,-1.78 -3.19,-3.19 -5.27,-3.19 -1.5,0 -2.4,0.18 -3.65,0.92 -0.62,0.36 -0.15,0.68 0.03,0.68z"/>
   <path class="fil2" d="M2.32 13.78l0 2.32c0,0.77 0.65,0.47 0.65,0.23l0 -2.78c0,-0.26 -0.65,-0.53 -0.65,0.23z"/>
   <path class="fil3" d="M9.1 16.29c0.17,0 0.34,-0.15 0.34,-0.3 0,-0.28 -0.31,-0.43 -0.52,-0.25 -0.24,0.2 -0.07,0.56 0.18,0.56z"/>
  </g>
 </g>
</svg>
