<svg width="578" height="500" viewBox="0 0 578 500" fill="none" xmlns="http://www.w3.org/2000/svg">
<path d="M505.139 231.07C505.139 350.881 408.169 448.007 288.551 448.007C168.933 448.007 87.4609 378.897 87.4609 259.086C87.4609 139.275 130 51.9932 249.618 51.9932C369.236 51.9932 505.139 111.259 505.139 231.07Z" fill="#F1F1FE"/>
<path d="M537.634 237.228C537.634 375.414 425.769 487.435 287.778 487.435C218.744 487.435 160.763 467.497 120.044 430.322C79.3306 393.151 55.8317 338.706 55.8317 269.597C55.8317 200.423 68.1168 140.71 97.6122 98.3009C127.088 55.92 173.793 30.7624 242.788 30.7624C311.841 30.7624 385.579 47.8671 442.039 82.2393C498.49 116.606 537.634 168.208 537.634 237.228Z" stroke="#F1F1FE" stroke-width="0.866551"/>
<path d="M561.029 226.1C561.029 377.13 438.302 499.567 286.909 499.567C211.174 499.567 147.559 477.776 102.884 437.142C58.2137 396.513 32.4333 337.004 32.4333 261.472C32.4333 185.875 45.9097 120.611 78.2713 74.2575C110.614 27.931 161.86 0.433276 237.556 0.433276C313.31 0.433276 394.205 19.1268 456.147 56.6936C518.08 94.2554 561.029 150.657 561.029 226.1Z" stroke="#F1F1FE" stroke-width="0.866551"/>
<g filter="url(#filter0_d_266_594)">
<rect x="35.4648" y="85.7886" width="268.631" height="169.844" rx="8.66551" fill="#F8F9FA"/>
<rect x="35.8981" y="86.2218" width="267.764" height="168.977" rx="8.23224" stroke="#D1D1E1" stroke-opacity="0.3" stroke-width="0.866551"/>
</g>
<g filter="url(#filter1_d_266_594)">
<rect x="35.4648" y="255.633" width="238.302" height="169.844" rx="8.66551" fill="white"/>
<rect x="35.8981" y="256.066" width="237.435" height="168.977" rx="8.23224" stroke="#D1D1E1" stroke-opacity="0.3" stroke-width="0.866551"/>
</g>
<g clip-path="url(#clip0_266_594)">
<path d="M510.531 86.7579L510.798 90.7831L530.211 88.8056L521.003 103.017L524.296 105.16L533.933 90.2633L543.622 107.85L547.098 105.796L538.516 90.2305L553.298 95.81L554.785 92.0196L542.017 87.206L560.997 84.2701L560.525 80.2819L541.843 83.1651L554.763 73.6717L552.512 70.4193L540.497 79.2428L546.895 68.1613L543.497 66.1997L535.587 79.8992L534.404 64.8379L530.451 65.286L531.645 80.4742L525.202 73.0737L522.206 75.8023L530.029 84.7778L510.531 86.7579Z" fill="#FFB81D"/>
</g>
<g clip-path="url(#clip1_266_594)">
<path d="M19.0586 97.5354C34.5583 86.0535 34.6986 85.2996 24.3025 69.0522C35.7845 84.5519 36.5258 84.6957 52.7857 74.2962C37.2861 85.7782 37.1421 86.5194 47.5418 102.779C36.0563 87.2671 35.306 87.1393 19.0586 97.5354Z" fill="#001F0E"/>
</g>
<path d="M113.509 171.517V147.974L116.42 148.141L106.188 160.66L105.481 159.621H124.365V164.903H102.445L99.8659 159.995L114.549 142.234H119.54V171.517H113.509ZM129.499 179.544L127.669 177.34C128.751 176.813 129.61 176.175 130.248 175.426C130.914 174.678 131.246 174.026 131.246 173.472C131.246 173.222 131.177 172.959 131.038 172.681C130.9 172.404 130.595 172.057 130.123 171.641C129.513 171.17 129.097 170.726 128.875 170.31C128.681 169.867 128.584 169.395 128.584 168.896C128.584 168.092 128.875 167.454 129.458 166.983C130.04 166.511 130.789 166.276 131.704 166.276C132.453 166.276 133.132 166.498 133.742 166.941C134.38 167.357 134.879 167.953 135.239 168.73C135.6 169.478 135.78 170.352 135.78 171.35C135.78 172.238 135.628 173.097 135.323 173.929C135.018 174.789 134.574 175.579 133.992 176.3C133.437 177.049 132.771 177.7 131.995 178.255C131.246 178.809 130.414 179.239 129.499 179.544ZM140.532 171.517L139.16 168.106L147.77 158.581C148.241 158.082 148.74 157.499 149.267 156.834C149.822 156.168 150.349 155.489 150.848 154.796C151.375 154.075 151.79 153.381 152.095 152.716C152.401 152.023 152.553 151.399 152.553 150.844C152.553 150.206 152.414 149.652 152.137 149.18C151.86 148.681 151.458 148.293 150.931 148.016C150.404 147.738 149.752 147.6 148.976 147.6C148.255 147.6 147.576 147.794 146.938 148.182C146.3 148.543 145.704 149.083 145.149 149.804C144.595 150.525 144.109 151.399 143.693 152.425L139.035 149.804C139.589 148.196 140.38 146.796 141.406 145.603C142.432 144.411 143.652 143.482 145.066 142.816C146.48 142.151 147.992 141.818 149.6 141.818C151.291 141.846 152.816 142.206 154.175 142.9C155.534 143.593 156.602 144.563 157.378 145.811C158.154 147.059 158.543 148.501 158.543 150.137C158.543 150.747 158.473 151.371 158.335 152.009C158.224 152.647 158.016 153.312 157.711 154.005C157.433 154.699 157.059 155.433 156.588 156.21C156.144 156.959 155.589 157.763 154.924 158.622C154.286 159.454 153.551 160.328 152.719 161.243L146.106 168.439L145.274 165.901H159.749V171.517H140.532ZM173.968 171.933C171.472 171.933 169.337 171.336 167.562 170.144C165.815 168.952 164.471 167.246 163.528 165.028C162.613 162.782 162.155 160.092 162.155 156.959C162.155 153.825 162.613 151.149 163.528 148.931C164.471 146.685 165.815 144.965 167.562 143.773C169.337 142.581 171.472 141.985 173.968 141.985C176.464 141.985 178.599 142.581 180.374 143.773C182.148 144.965 183.493 146.685 184.408 148.931C185.351 151.149 185.822 153.825 185.822 156.959C185.822 160.092 185.351 162.782 184.408 165.028C183.493 167.246 182.148 168.952 180.374 170.144C178.599 171.336 176.464 171.933 173.968 171.933ZM173.968 166.567C175.826 166.567 177.268 165.735 178.294 164.071C179.32 162.407 179.833 160.037 179.833 156.959C179.833 153.825 179.32 151.413 178.294 149.721C177.268 148.03 175.826 147.184 173.968 147.184C172.082 147.184 170.627 148.03 169.601 149.721C168.602 151.413 168.103 153.825 168.103 156.959C168.103 160.037 168.602 162.407 169.601 164.071C170.627 165.735 172.082 166.567 173.968 166.567ZM201.143 171.933C198.647 171.933 196.512 171.336 194.737 170.144C192.99 168.952 191.645 167.246 190.702 165.028C189.787 162.782 189.33 160.092 189.33 156.959C189.33 153.825 189.787 151.149 190.702 148.931C191.645 146.685 192.99 144.965 194.737 143.773C196.512 142.581 198.647 141.985 201.143 141.985C203.638 141.985 205.773 142.581 207.548 143.773C209.323 144.965 210.668 146.685 211.583 148.931C212.526 151.149 212.997 153.825 212.997 156.959C212.997 160.092 212.526 162.782 211.583 165.028C210.668 167.246 209.323 168.952 207.548 170.144C205.773 171.336 203.638 171.933 201.143 171.933ZM201.143 166.567C203 166.567 204.442 165.735 205.468 164.071C206.494 162.407 207.007 160.037 207.007 156.959C207.007 153.825 206.494 151.413 205.468 149.721C204.442 148.03 203 147.184 201.143 147.184C199.257 147.184 197.801 148.03 196.775 149.721C195.777 151.413 195.278 153.825 195.278 156.959C195.278 160.037 195.777 162.407 196.775 164.071C197.801 165.735 199.257 166.567 201.143 166.567ZM216.712 162.199V157.333H237.551V162.199H216.712ZM224.407 169.853V149.596H229.814V169.853H224.407Z" fill="#212121"/>
<path d="M102.936 206.908V195.99H107.257C107.829 195.99 108.344 196.13 108.801 196.411C109.259 196.692 109.623 197.082 109.893 197.581C110.163 198.069 110.299 198.621 110.299 199.234C110.299 199.879 110.163 200.456 109.893 200.965C109.623 201.465 109.259 201.865 108.801 202.166C108.344 202.458 107.829 202.603 107.257 202.603H104.153V206.908H102.936ZM104.153 201.418H107.319C107.642 201.418 107.928 201.324 108.177 201.137C108.437 200.939 108.645 200.679 108.801 200.357C108.957 200.024 109.035 199.645 109.035 199.218C109.035 198.834 108.957 198.491 108.801 198.189C108.645 197.877 108.437 197.633 108.177 197.456C107.928 197.269 107.642 197.175 107.319 197.175H104.153V201.418ZM112.171 206.908V198.766H113.341L113.372 200.934L113.248 200.638C113.362 200.274 113.544 199.936 113.794 199.624C114.053 199.312 114.36 199.062 114.714 198.875C115.067 198.688 115.457 198.595 115.884 198.595C116.06 198.595 116.227 198.61 116.383 198.641C116.539 198.662 116.669 198.693 116.773 198.735L116.445 200.045C116.31 199.983 116.17 199.941 116.024 199.92C115.889 199.889 115.759 199.874 115.634 199.874C115.281 199.874 114.963 199.936 114.683 200.061C114.402 200.185 114.163 200.362 113.965 200.591C113.768 200.809 113.617 201.064 113.513 201.355C113.409 201.647 113.357 201.958 113.357 202.291V206.908H112.171ZM121.243 207.064C120.432 207.064 119.709 206.882 119.075 206.518C118.451 206.154 117.957 205.65 117.593 205.005C117.239 204.361 117.063 203.627 117.063 202.806C117.063 201.995 117.239 201.272 117.593 200.638C117.957 200.004 118.451 199.504 119.075 199.14C119.709 198.776 120.432 198.595 121.243 198.595C122.044 198.595 122.756 198.776 123.38 199.14C124.014 199.504 124.508 200.004 124.862 200.638C125.226 201.272 125.408 201.995 125.408 202.806C125.408 203.627 125.226 204.361 124.862 205.005C124.508 205.65 124.014 206.154 123.38 206.518C122.756 206.882 122.044 207.064 121.243 207.064ZM121.243 205.957C121.815 205.957 122.324 205.822 122.771 205.551C123.219 205.27 123.567 204.896 123.817 204.428C124.066 203.95 124.191 203.409 124.191 202.806C124.191 202.203 124.066 201.667 123.817 201.199C123.567 200.731 123.219 200.367 122.771 200.108C122.324 199.837 121.815 199.702 121.243 199.702C120.671 199.702 120.156 199.837 119.699 200.108C119.252 200.367 118.898 200.737 118.638 201.215C118.388 201.683 118.269 202.213 118.279 202.806C118.269 203.409 118.388 203.95 118.638 204.428C118.898 204.896 119.252 205.27 119.699 205.551C120.156 205.822 120.671 205.957 121.243 205.957ZM125.976 209.965L125.508 209.03C125.934 209.03 126.277 208.957 126.537 208.811C126.808 208.676 127 208.463 127.114 208.172C127.239 207.891 127.301 207.543 127.301 207.127V198.766H128.487V207.47C128.487 207.969 128.383 208.406 128.175 208.78C127.967 209.154 127.676 209.445 127.301 209.653C126.927 209.861 126.485 209.965 125.976 209.965ZM127.91 197.004C127.629 197.004 127.411 196.931 127.255 196.785C127.099 196.629 127.021 196.421 127.021 196.161C127.021 195.901 127.099 195.693 127.255 195.537C127.411 195.381 127.629 195.303 127.91 195.303C128.191 195.303 128.409 195.381 128.565 195.537C128.721 195.683 128.799 195.891 128.799 196.161C128.799 196.411 128.721 196.614 128.565 196.77C128.409 196.926 128.191 197.004 127.91 197.004ZM134.388 207.064C133.577 207.064 132.854 206.887 132.22 206.534C131.596 206.18 131.107 205.686 130.754 205.052C130.4 204.418 130.223 203.69 130.223 202.868C130.223 202.234 130.322 201.662 130.52 201.153C130.717 200.633 130.993 200.18 131.346 199.796C131.71 199.411 132.142 199.114 132.641 198.906C133.14 198.688 133.681 198.579 134.263 198.579C134.814 198.579 135.314 198.678 135.761 198.875C136.218 199.073 136.608 199.348 136.93 199.702C137.263 200.045 137.513 200.456 137.679 200.934C137.846 201.413 137.918 201.938 137.898 202.51L137.882 203.056H131.097L130.925 202.073H136.993L136.712 202.338V201.964C136.691 201.589 136.582 201.231 136.385 200.887C136.187 200.534 135.906 200.248 135.542 200.03C135.189 199.811 134.762 199.702 134.263 199.702C133.681 199.702 133.177 199.822 132.75 200.061C132.324 200.289 131.996 200.633 131.768 201.09C131.539 201.548 131.424 202.114 131.424 202.79C131.424 203.435 131.549 203.997 131.799 204.475C132.048 204.943 132.402 205.307 132.859 205.567C133.327 205.827 133.889 205.957 134.544 205.957C134.929 205.957 135.308 205.894 135.683 205.77C136.067 205.634 136.489 205.374 136.946 204.99L137.554 205.832C137.315 206.071 137.029 206.284 136.697 206.471C136.364 206.648 136 206.794 135.605 206.908C135.21 207.012 134.804 207.064 134.388 207.064ZM142.991 207.064C142.221 207.064 141.535 206.882 140.932 206.518C140.329 206.144 139.85 205.64 139.497 205.005C139.154 204.361 138.982 203.633 138.982 202.822C138.982 202.01 139.154 201.288 139.497 200.653C139.85 200.009 140.329 199.504 140.932 199.14C141.535 198.776 142.226 198.595 143.006 198.595C143.703 198.595 144.337 198.735 144.909 199.016C145.481 199.286 145.939 199.666 146.282 200.154L145.595 200.997C145.398 200.737 145.159 200.508 144.878 200.31C144.608 200.113 144.311 199.962 143.989 199.858C143.677 199.744 143.365 199.686 143.053 199.686C142.502 199.686 142.008 199.827 141.571 200.108C141.134 200.378 140.786 200.747 140.526 201.215C140.277 201.683 140.152 202.218 140.152 202.822C140.152 203.425 140.277 203.965 140.526 204.444C140.786 204.912 141.134 205.281 141.571 205.551C142.008 205.822 142.497 205.957 143.037 205.957C143.349 205.957 143.656 205.91 143.958 205.816C144.259 205.712 144.545 205.567 144.816 205.38C145.086 205.192 145.336 204.958 145.564 204.678L146.251 205.52C145.897 205.988 145.424 206.362 144.831 206.643C144.238 206.924 143.625 207.064 142.991 207.064ZM148.892 206.908V196.629H150.062V206.908H148.892ZM147.052 199.889V198.766H152.121V199.889H147.052ZM156.53 207.064C155.833 207.064 155.209 206.934 154.658 206.674C154.107 206.414 153.67 206.071 153.348 205.645L154.174 204.927C154.476 205.291 154.829 205.567 155.235 205.754C155.651 205.941 156.114 206.035 156.623 206.035C156.883 206.035 157.117 206.009 157.325 205.957C157.533 205.894 157.715 205.806 157.871 205.692C158.027 205.577 158.147 205.442 158.23 205.286C158.313 205.13 158.354 204.958 158.354 204.771C158.354 204.428 158.204 204.142 157.902 203.913C157.767 203.82 157.575 203.726 157.325 203.633C157.075 203.529 156.774 203.43 156.42 203.336C155.838 203.17 155.354 203.004 154.97 202.837C154.585 202.66 154.283 202.458 154.065 202.229C153.909 202.042 153.789 201.839 153.706 201.621C153.634 201.402 153.597 201.163 153.597 200.903C153.597 200.57 153.665 200.263 153.8 199.983C153.945 199.702 154.143 199.458 154.393 199.25C154.653 199.031 154.954 198.87 155.297 198.766C155.651 198.652 156.03 198.595 156.436 198.595C156.821 198.595 157.2 198.647 157.575 198.75C157.949 198.854 158.297 199.005 158.62 199.203C158.942 199.4 159.218 199.634 159.446 199.905L158.729 200.685C158.531 200.477 158.313 200.289 158.074 200.123C157.835 199.957 157.58 199.827 157.309 199.733C157.049 199.64 156.779 199.593 156.498 199.593C156.249 199.593 156.015 199.624 155.796 199.686C155.588 199.749 155.406 199.837 155.25 199.952C155.105 200.056 154.991 200.185 154.907 200.341C154.835 200.497 154.798 200.669 154.798 200.856C154.798 201.012 154.829 201.153 154.892 201.277C154.954 201.402 155.043 201.511 155.157 201.605C155.302 201.719 155.505 201.828 155.765 201.932C156.036 202.026 156.368 202.125 156.763 202.229C157.221 202.354 157.606 202.484 157.918 202.619C158.24 202.744 158.505 202.894 158.713 203.071C158.994 203.279 159.192 203.518 159.306 203.789C159.431 204.059 159.493 204.366 159.493 204.709C159.493 205.166 159.363 205.572 159.103 205.926C158.854 206.279 158.505 206.56 158.058 206.768C157.611 206.965 157.101 207.064 156.53 207.064ZM166.166 206.908V195.99H167.382V205.723H172.623V206.908H166.166ZM177.41 207.064C176.703 207.064 176.063 206.882 175.491 206.518C174.919 206.144 174.467 205.64 174.134 205.005C173.802 204.361 173.635 203.633 173.635 202.822C173.635 202 173.807 201.272 174.15 200.638C174.493 200.004 174.951 199.504 175.523 199.14C176.105 198.776 176.755 198.595 177.472 198.595C177.899 198.595 178.294 198.657 178.658 198.782C179.022 198.906 179.344 199.083 179.625 199.312C179.916 199.53 180.155 199.79 180.342 200.092C180.54 200.383 180.675 200.7 180.748 201.043L180.405 200.872L180.451 198.766H181.621V206.908H180.436V204.912L180.748 204.709C180.675 205.021 180.535 205.322 180.327 205.614C180.119 205.894 179.864 206.144 179.562 206.362C179.271 206.581 178.938 206.752 178.564 206.877C178.2 207.002 177.815 207.064 177.41 207.064ZM177.675 205.941C178.216 205.941 178.699 205.811 179.126 205.551C179.552 205.281 179.885 204.912 180.124 204.444C180.374 203.965 180.498 203.425 180.498 202.822C180.498 202.218 180.374 201.683 180.124 201.215C179.885 200.747 179.552 200.378 179.126 200.108C178.699 199.837 178.216 199.702 177.675 199.702C177.124 199.702 176.635 199.837 176.209 200.108C175.793 200.378 175.46 200.747 175.211 201.215C174.971 201.683 174.852 202.218 174.852 202.822C174.852 203.414 174.971 203.95 175.211 204.428C175.45 204.896 175.783 205.265 176.209 205.536C176.635 205.806 177.124 205.941 177.675 205.941ZM186.634 207.064C186.01 207.064 185.48 206.939 185.043 206.69C184.616 206.43 184.289 206.056 184.06 205.567C183.842 205.078 183.733 204.47 183.733 203.742V198.766H184.918V203.508C184.918 204.059 184.991 204.522 185.136 204.896C185.292 205.26 185.521 205.536 185.823 205.723C186.135 205.91 186.514 206.004 186.961 206.004C187.304 206.004 187.622 205.946 187.913 205.832C188.204 205.707 188.459 205.541 188.677 205.333C188.895 205.125 189.067 204.88 189.192 204.6C189.317 204.319 189.379 204.023 189.379 203.711V198.766H190.549V206.908H189.395L189.348 205.192L189.535 205.099C189.41 205.463 189.202 205.796 188.911 206.097C188.62 206.388 188.272 206.622 187.866 206.799C187.471 206.976 187.06 207.064 186.634 207.064ZM192.827 206.908V198.766H193.981L194.028 200.466L193.84 200.544C193.944 200.191 194.147 199.868 194.449 199.577C194.75 199.286 195.109 199.052 195.525 198.875C195.951 198.688 196.388 198.595 196.835 198.595C197.438 198.595 197.943 198.714 198.348 198.953C198.754 199.192 199.061 199.562 199.269 200.061C199.477 200.56 199.581 201.194 199.581 201.964V206.908H198.395V202.026C198.395 201.485 198.322 201.043 198.177 200.7C198.042 200.347 197.828 200.087 197.537 199.92C197.246 199.754 196.887 199.676 196.461 199.686C196.107 199.686 195.78 199.749 195.478 199.874C195.177 199.988 194.917 200.149 194.698 200.357C194.48 200.565 194.308 200.804 194.184 201.075C194.059 201.345 193.996 201.636 193.996 201.948V206.908H193.419C193.347 206.908 193.263 206.908 193.17 206.908C193.076 206.908 192.962 206.908 192.827 206.908ZM205.245 207.064C204.476 207.064 203.789 206.882 203.186 206.518C202.583 206.144 202.105 205.64 201.751 205.005C201.408 204.361 201.237 203.633 201.237 202.822C201.237 202.01 201.408 201.288 201.751 200.653C202.105 200.009 202.583 199.504 203.186 199.14C203.789 198.776 204.481 198.595 205.261 198.595C205.958 198.595 206.592 198.735 207.164 199.016C207.736 199.286 208.193 199.666 208.536 200.154L207.85 200.997C207.653 200.737 207.413 200.508 207.133 200.31C206.862 200.113 206.566 199.962 206.244 199.858C205.932 199.744 205.62 199.686 205.308 199.686C204.757 199.686 204.263 199.827 203.826 200.108C203.389 200.378 203.041 200.747 202.781 201.215C202.531 201.683 202.406 202.218 202.406 202.822C202.406 203.425 202.531 203.965 202.781 204.444C203.041 204.912 203.389 205.281 203.826 205.551C204.263 205.822 204.751 205.957 205.292 205.957C205.604 205.957 205.911 205.91 206.212 205.816C206.514 205.712 206.8 205.567 207.07 205.38C207.341 205.192 207.59 204.958 207.819 204.678L208.505 205.52C208.152 205.988 207.679 206.362 207.086 206.643C206.493 206.924 205.88 207.064 205.245 207.064ZM210.024 206.908V195.366H211.194V200.544L210.96 200.778C211.074 200.352 211.287 199.978 211.599 199.655C211.911 199.322 212.275 199.062 212.691 198.875C213.118 198.688 213.549 198.595 213.986 198.595C214.61 198.595 215.13 198.714 215.546 198.953C215.962 199.192 216.268 199.562 216.466 200.061C216.674 200.56 216.778 201.194 216.778 201.964V206.908H215.592V202.026C215.592 201.485 215.52 201.043 215.374 200.7C215.239 200.347 215.026 200.087 214.735 199.92C214.443 199.754 214.079 199.676 213.643 199.686C213.299 199.686 212.977 199.749 212.676 199.874C212.374 199.988 212.114 200.149 211.896 200.357C211.677 200.565 211.506 200.804 211.381 201.075C211.256 201.345 211.194 201.636 211.194 201.948V206.908H210.617C210.544 206.908 210.461 206.908 210.367 206.908C210.273 206.908 210.159 206.908 210.024 206.908ZM222.599 207.064C221.787 207.064 221.065 206.887 220.43 206.534C219.807 206.18 219.318 205.686 218.964 205.052C218.611 204.418 218.434 203.69 218.434 202.868C218.434 202.234 218.533 201.662 218.73 201.153C218.928 200.633 219.203 200.18 219.557 199.796C219.921 199.411 220.352 199.114 220.852 198.906C221.351 198.688 221.891 198.579 222.474 198.579C223.025 198.579 223.524 198.678 223.971 198.875C224.429 199.073 224.819 199.348 225.141 199.702C225.474 200.045 225.723 200.456 225.89 200.934C226.056 201.413 226.129 201.938 226.108 202.51L226.092 203.056H219.307L219.136 202.073H225.203L224.923 202.338V201.964C224.902 201.589 224.793 201.231 224.595 200.887C224.397 200.534 224.117 200.248 223.753 200.03C223.399 199.811 222.973 199.702 222.474 199.702C221.891 199.702 221.387 199.822 220.961 200.061C220.534 200.289 220.207 200.633 219.978 201.09C219.749 201.548 219.635 202.114 219.635 202.79C219.635 203.435 219.76 203.997 220.009 204.475C220.259 204.943 220.612 205.307 221.07 205.567C221.538 205.827 222.099 205.957 222.755 205.957C223.139 205.957 223.519 205.894 223.893 205.77C224.278 205.634 224.699 205.374 225.157 204.99L225.765 205.832C225.526 206.071 225.24 206.284 224.907 206.471C224.574 206.648 224.21 206.794 223.815 206.908C223.42 207.012 223.014 207.064 222.599 207.064ZM231.076 207.064C230.338 207.064 229.673 206.882 229.08 206.518C228.498 206.154 228.035 205.655 227.692 205.021C227.359 204.376 227.192 203.648 227.192 202.837C227.192 202.016 227.364 201.288 227.707 200.653C228.05 200.009 228.513 199.504 229.095 199.14C229.678 198.776 230.333 198.595 231.061 198.595C231.466 198.595 231.856 198.657 232.231 198.782C232.615 198.906 232.959 199.083 233.26 199.312C233.562 199.53 233.811 199.785 234.009 200.076C234.206 200.357 234.326 200.653 234.368 200.965L234.009 200.841V195.366H235.179V206.908H234.024L233.993 204.88L234.29 204.771C234.248 205.062 234.128 205.348 233.931 205.629C233.744 205.9 233.504 206.144 233.213 206.362C232.922 206.581 232.589 206.752 232.215 206.877C231.851 207.002 231.472 207.064 231.076 207.064ZM231.248 205.988C231.789 205.988 232.272 205.853 232.699 205.582C233.125 205.312 233.458 204.938 233.697 204.459C233.946 203.981 234.071 203.435 234.071 202.822C234.071 202.208 233.946 201.667 233.697 201.199C233.458 200.721 233.125 200.347 232.699 200.076C232.272 199.796 231.789 199.655 231.248 199.655C230.686 199.655 230.192 199.796 229.766 200.076C229.35 200.347 229.017 200.721 228.768 201.199C228.529 201.667 228.409 202.208 228.409 202.822C228.409 203.425 228.529 203.965 228.768 204.444C229.007 204.922 229.34 205.302 229.766 205.582C230.192 205.853 230.686 205.988 231.248 205.988Z" fill="#656565"/>
<path d="M87.7747 341.361L86.4021 337.95L95.0121 328.425C95.4835 327.926 95.9827 327.344 96.5095 326.678C97.0641 326.012 97.591 325.333 98.0901 324.64C98.617 323.919 99.0329 323.226 99.338 322.56C99.643 321.867 99.7955 321.243 99.7955 320.688C99.7955 320.051 99.6569 319.496 99.3796 319.025C99.1023 318.525 98.7002 318.137 98.1733 317.86C97.6465 317.583 96.9948 317.444 96.2184 317.444C95.4974 317.444 94.818 317.638 94.1803 318.026C93.5425 318.387 92.9463 318.928 92.3917 319.649C91.8371 320.37 91.3518 321.243 90.9359 322.269L86.2773 319.649C86.8319 318.04 87.6222 316.64 88.6482 315.447C89.6742 314.255 90.8943 313.326 92.3085 312.661C93.7227 311.995 95.234 311.662 96.8423 311.662C98.5338 311.69 100.059 312.051 101.418 312.744C102.776 313.437 103.844 314.408 104.62 315.655C105.397 316.903 105.785 318.345 105.785 319.981C105.785 320.591 105.716 321.215 105.577 321.853C105.466 322.491 105.258 323.156 104.953 323.85C104.676 324.543 104.302 325.278 103.83 326.054C103.386 326.803 102.832 327.607 102.166 328.467C101.529 329.298 100.794 330.172 99.9619 331.087L93.3484 338.283L92.5165 335.746H106.991V341.361H87.7747ZM111.228 349.389L109.398 347.184C110.479 346.657 111.339 346.019 111.977 345.271C112.642 344.522 112.975 343.87 112.975 343.316C112.975 343.066 112.905 342.803 112.767 342.525C112.628 342.248 112.323 341.902 111.852 341.486C111.242 341.014 110.826 340.571 110.604 340.155C110.41 339.711 110.313 339.24 110.313 338.74C110.313 337.936 110.604 337.298 111.186 336.827C111.769 336.356 112.517 336.12 113.432 336.12C114.181 336.12 114.86 336.342 115.47 336.785C116.108 337.201 116.607 337.798 116.968 338.574C117.328 339.323 117.509 340.196 117.509 341.194C117.509 342.082 117.356 342.941 117.051 343.773C116.746 344.633 116.302 345.423 115.72 346.144C115.165 346.893 114.5 347.545 113.723 348.099C112.975 348.654 112.143 349.084 111.228 349.389ZM130.746 341.652C128.639 341.652 126.725 341.222 125.006 340.363C123.314 339.475 121.9 338.2 120.763 336.536L124.132 332.792C125.325 334.123 126.406 335.038 127.377 335.538C128.347 336.009 129.415 336.245 130.58 336.245C131.55 336.245 132.424 336.037 133.2 335.621C133.977 335.205 134.587 334.636 135.03 333.915C135.474 333.194 135.696 332.39 135.696 331.503C135.696 330.588 135.474 329.77 135.03 329.049C134.587 328.328 133.99 327.759 133.242 327.344C132.521 326.9 131.689 326.678 130.746 326.678C130.136 326.678 129.568 326.733 129.041 326.844C128.514 326.928 127.931 327.108 127.294 327.385C126.656 327.635 125.879 328.009 124.964 328.508L122.136 324.765L123.925 312.078H140.313V317.444H127.086L128.625 315.614L127.252 324.848L125.256 323.891C125.671 323.503 126.24 323.142 126.961 322.81C127.71 322.477 128.514 322.2 129.373 321.978C130.261 321.756 131.12 321.645 131.952 321.645C133.782 321.645 135.405 322.061 136.819 322.893C138.261 323.725 139.398 324.889 140.23 326.387C141.089 327.857 141.519 329.548 141.519 331.461C141.519 333.375 141.048 335.108 140.105 336.661C139.162 338.186 137.873 339.406 136.236 340.321C134.6 341.208 132.77 341.652 130.746 341.652ZM157.321 341.777C154.826 341.777 152.69 341.181 150.916 339.988C149.169 338.796 147.824 337.09 146.881 334.872C145.966 332.626 145.508 329.936 145.508 326.803C145.508 323.669 145.966 320.993 146.881 318.775C147.824 316.529 149.169 314.81 150.916 313.617C152.69 312.425 154.826 311.829 157.321 311.829C159.817 311.829 161.952 312.425 163.727 313.617C165.502 314.81 166.846 316.529 167.761 318.775C168.704 320.993 169.176 323.669 169.176 326.803C169.176 329.936 168.704 332.626 167.761 334.872C166.846 337.09 165.502 338.796 163.727 339.988C161.952 341.181 159.817 341.777 157.321 341.777ZM157.321 336.411C159.179 336.411 160.621 335.579 161.647 333.915C162.673 332.252 163.186 329.881 163.186 326.803C163.186 323.669 162.673 321.257 161.647 319.565C160.621 317.874 159.179 317.028 157.321 317.028C155.436 317.028 153.98 317.874 152.954 319.565C151.956 321.257 151.456 323.669 151.456 326.803C151.456 329.881 151.956 332.252 152.954 333.915C153.98 335.579 155.436 336.411 157.321 336.411ZM184.496 341.777C182 341.777 179.865 341.181 178.09 339.988C176.343 338.796 174.998 337.09 174.056 334.872C173.141 332.626 172.683 329.936 172.683 326.803C172.683 323.669 173.141 320.993 174.056 318.775C174.998 316.529 176.343 314.81 178.09 313.617C179.865 312.425 182 311.829 184.496 311.829C186.991 311.829 189.127 312.425 190.901 313.617C192.676 314.81 194.021 316.529 194.936 318.775C195.879 320.993 196.35 323.669 196.35 326.803C196.35 329.936 195.879 332.626 194.936 334.872C194.021 337.09 192.676 338.796 190.901 339.988C189.127 341.181 186.991 341.777 184.496 341.777ZM184.496 336.411C186.354 336.411 187.796 335.579 188.822 333.915C189.848 332.252 190.361 329.881 190.361 326.803C190.361 323.669 189.848 321.257 188.822 319.565C187.796 317.874 186.354 317.028 184.496 317.028C182.61 317.028 181.154 317.874 180.128 319.565C179.13 321.257 178.631 323.669 178.631 326.803C178.631 329.881 179.13 332.252 180.128 333.915C181.154 335.579 182.61 336.411 184.496 336.411ZM200.065 332.044V327.177H220.904V332.044H200.065ZM207.76 339.697V319.441H213.168V339.697H207.76Z" fill="#212121"/>
<path d="M85.4504 376.908C84.8992 376.908 84.3793 376.83 83.8906 376.674C83.4018 376.518 82.9547 376.285 82.5491 375.973C82.1436 375.661 81.7848 375.276 81.4729 374.818L82.3152 373.882C82.8039 374.579 83.303 375.068 83.8126 375.349C84.3325 375.629 84.9148 375.77 85.5595 375.77C86.0275 375.77 86.4538 375.692 86.8386 375.536C87.2233 375.38 87.5249 375.161 87.7433 374.881C87.9616 374.6 88.0708 374.278 88.0708 373.914C88.0708 373.674 88.0292 373.461 87.946 373.274C87.8732 373.087 87.7589 372.921 87.6029 372.775C87.4469 372.629 87.2545 372.499 87.0257 372.385C86.797 372.271 86.5318 372.167 86.2303 372.073C85.9391 371.979 85.6115 371.886 85.2476 371.792C84.7173 371.668 84.2493 371.522 83.8438 371.356C83.4486 371.179 83.1107 370.966 82.8299 370.716C82.5595 370.466 82.3516 370.181 82.206 369.858C82.0708 369.525 82.0032 369.135 82.0032 368.688C82.0032 368.262 82.0916 367.867 82.2684 367.503C82.4556 367.139 82.7103 366.827 83.0327 366.567C83.355 366.297 83.7346 366.089 84.1713 365.943C84.6081 365.798 85.076 365.725 85.5751 365.725C86.1367 365.725 86.6358 365.803 87.0725 365.959C87.5197 366.104 87.9148 366.323 88.258 366.614C88.6011 366.905 88.8975 367.253 89.1471 367.659L88.2892 368.501C88.0708 368.158 87.8212 367.862 87.5405 367.612C87.2701 367.362 86.9686 367.175 86.6358 367.051C86.3134 366.915 85.9547 366.848 85.5595 366.848C85.102 366.848 84.6965 366.926 84.3429 367.082C83.9998 367.238 83.7294 367.456 83.5318 367.737C83.3342 368.007 83.2355 368.319 83.2355 368.673C83.2355 368.933 83.2822 369.167 83.3758 369.375C83.4694 369.572 83.615 369.749 83.8126 369.905C84.0205 370.051 84.2857 370.186 84.6081 370.31C84.9408 370.425 85.336 370.534 85.7935 370.638C86.3342 370.763 86.8178 370.914 87.2441 371.09C87.6809 371.267 88.05 371.48 88.3516 371.73C88.6635 371.969 88.8975 372.25 89.0535 372.572C89.2199 372.895 89.303 373.264 89.303 373.68C89.303 374.324 89.1419 374.891 88.8195 375.38C88.4972 375.858 88.0448 376.233 87.4625 376.503C86.8906 376.773 86.2199 376.908 85.4504 376.908ZM94.4722 376.908C93.7651 376.908 93.1256 376.726 92.5536 376.362C91.9817 375.988 91.5294 375.484 91.1966 374.849C90.8639 374.205 90.6975 373.477 90.6975 372.666C90.6975 371.844 90.8691 371.116 91.2122 370.482C91.5554 369.848 92.0129 369.349 92.5848 368.985C93.1671 368.621 93.8171 368.439 94.5346 368.439C94.9609 368.439 95.3561 368.501 95.72 368.626C96.084 368.751 96.4063 368.927 96.6871 369.156C96.9782 369.375 97.2174 369.635 97.4046 369.936C97.6022 370.227 97.7373 370.544 97.8101 370.888L97.467 370.716L97.5138 368.61H98.6836V376.752H97.4982V374.756L97.8101 374.553C97.7373 374.865 97.597 375.167 97.389 375.458C97.181 375.739 96.9262 375.988 96.6247 376.207C96.3335 376.425 96.0008 376.596 95.6264 376.721C95.2625 376.846 94.8777 376.908 94.4722 376.908ZM94.7373 375.785C95.2781 375.785 95.7616 375.655 96.1879 375.395C96.6143 375.125 96.947 374.756 97.1862 374.288C97.4358 373.81 97.5606 373.269 97.5606 372.666C97.5606 372.063 97.4358 371.527 97.1862 371.059C96.947 370.591 96.6143 370.222 96.1879 369.952C95.7616 369.681 95.2781 369.546 94.7373 369.546C94.1862 369.546 93.6975 369.681 93.2711 369.952C92.8552 370.222 92.5224 370.591 92.2729 371.059C92.0337 371.527 91.9141 372.063 91.9141 372.666C91.9141 373.259 92.0337 373.794 92.2729 374.272C92.512 374.74 92.8448 375.109 93.2711 375.38C93.6975 375.65 94.1862 375.785 94.7373 375.785ZM102.086 376.752V366.473H103.256V376.752H102.086ZM100.245 369.733V368.61H105.315V369.733H100.245ZM107.063 376.752V368.61H108.233V376.752H107.063ZM107.64 366.848C107.349 366.848 107.125 366.775 106.969 366.629C106.824 366.473 106.751 366.265 106.751 366.005C106.751 365.746 106.829 365.538 106.985 365.382C107.141 365.226 107.359 365.148 107.64 365.148C107.921 365.148 108.139 365.226 108.295 365.382C108.451 365.527 108.529 365.735 108.529 366.005C108.529 366.255 108.451 366.458 108.295 366.614C108.139 366.77 107.921 366.848 107.64 366.848ZM113.455 376.908C112.758 376.908 112.134 376.778 111.583 376.518C111.032 376.259 110.595 375.915 110.273 375.489L111.1 374.772C111.401 375.135 111.755 375.411 112.16 375.598C112.576 375.785 113.039 375.879 113.548 375.879C113.808 375.879 114.042 375.853 114.25 375.801C114.458 375.739 114.64 375.65 114.796 375.536C114.952 375.421 115.072 375.286 115.155 375.13C115.238 374.974 115.28 374.803 115.28 374.616C115.28 374.272 115.129 373.986 114.827 373.758C114.692 373.664 114.5 373.57 114.25 373.477C114.001 373.373 113.699 373.274 113.346 373.181C112.763 373.014 112.28 372.848 111.895 372.681C111.51 372.505 111.209 372.302 110.99 372.073C110.834 371.886 110.715 371.683 110.632 371.465C110.559 371.246 110.522 371.007 110.522 370.747C110.522 370.414 110.59 370.108 110.725 369.827C110.871 369.546 111.068 369.302 111.318 369.094C111.578 368.875 111.879 368.714 112.223 368.61C112.576 368.496 112.956 368.439 113.361 368.439C113.746 368.439 114.126 368.491 114.5 368.595C114.874 368.699 115.223 368.849 115.545 369.047C115.867 369.245 116.143 369.479 116.372 369.749L115.654 370.529C115.457 370.321 115.238 370.134 114.999 369.967C114.76 369.801 114.505 369.671 114.235 369.577C113.975 369.484 113.704 369.437 113.424 369.437C113.174 369.437 112.94 369.468 112.722 369.531C112.514 369.593 112.332 369.681 112.176 369.796C112.03 369.9 111.916 370.03 111.833 370.186C111.76 370.342 111.723 370.513 111.723 370.7C111.723 370.856 111.755 370.997 111.817 371.122C111.879 371.246 111.968 371.356 112.082 371.449C112.228 371.564 112.431 371.673 112.691 371.777C112.961 371.87 113.294 371.969 113.689 372.073C114.146 372.198 114.531 372.328 114.843 372.463C115.165 372.588 115.431 372.739 115.639 372.915C115.919 373.123 116.117 373.362 116.231 373.633C116.356 373.903 116.418 374.21 116.418 374.553C116.418 375.011 116.288 375.416 116.028 375.77C115.779 376.123 115.431 376.404 114.983 376.612C114.536 376.81 114.027 376.908 113.455 376.908ZM119.187 376.752V367.347C119.187 366.941 119.276 366.583 119.452 366.271C119.629 365.959 119.879 365.714 120.201 365.538C120.534 365.35 120.919 365.257 121.355 365.257C121.688 365.257 121.985 365.319 122.245 365.444C122.515 365.558 122.738 365.72 122.915 365.927L122.51 366.848C122.343 366.671 122.161 366.546 121.964 366.473C121.777 366.39 121.595 366.349 121.418 366.349C121.189 366.349 120.997 366.39 120.841 366.473C120.685 366.546 120.565 366.661 120.482 366.817C120.409 366.962 120.373 367.139 120.373 367.347V376.752H119.827C119.712 376.752 119.603 376.752 119.499 376.752C119.395 376.752 119.291 376.752 119.187 376.752ZM117.737 369.765V368.673H122.447V369.765H117.737ZM124.459 376.752V368.61H125.629V376.752H124.459ZM125.037 366.848C124.745 366.848 124.522 366.775 124.366 366.629C124.22 366.473 124.147 366.265 124.147 366.005C124.147 365.746 124.225 365.538 124.381 365.382C124.537 365.226 124.756 365.148 125.037 365.148C125.317 365.148 125.536 365.226 125.692 365.382C125.848 365.527 125.926 365.735 125.926 366.005C125.926 366.255 125.848 366.458 125.692 366.614C125.536 366.77 125.317 366.848 125.037 366.848ZM131.77 376.908C130.959 376.908 130.237 376.732 129.602 376.378C128.978 376.025 128.49 375.531 128.136 374.896C127.783 374.262 127.606 373.534 127.606 372.713C127.606 372.078 127.705 371.506 127.902 370.997C128.1 370.477 128.375 370.025 128.729 369.64C129.093 369.255 129.524 368.959 130.023 368.751C130.523 368.532 131.063 368.423 131.646 368.423C132.197 368.423 132.696 368.522 133.143 368.72C133.601 368.917 133.991 369.193 134.313 369.546C134.646 369.889 134.895 370.3 135.062 370.778C135.228 371.257 135.301 371.782 135.28 372.354L135.264 372.9H128.479L128.308 371.917H134.375L134.095 372.182V371.808C134.074 371.434 133.965 371.075 133.767 370.732C133.569 370.378 133.289 370.092 132.925 369.874C132.571 369.655 132.145 369.546 131.646 369.546C131.063 369.546 130.559 369.666 130.133 369.905C129.706 370.134 129.379 370.477 129.15 370.934C128.921 371.392 128.807 371.959 128.807 372.635C128.807 373.279 128.932 373.841 129.181 374.319C129.431 374.787 129.784 375.151 130.242 375.411C130.71 375.671 131.271 375.801 131.926 375.801C132.311 375.801 132.691 375.739 133.065 375.614C133.45 375.479 133.871 375.219 134.329 374.834L134.937 375.676C134.698 375.915 134.412 376.129 134.079 376.316C133.746 376.492 133.382 376.638 132.987 376.752C132.592 376.856 132.186 376.908 131.77 376.908ZM140.248 376.908C139.51 376.908 138.844 376.726 138.252 376.362C137.669 375.999 137.207 375.499 136.864 374.865C136.531 374.22 136.364 373.492 136.364 372.681C136.364 371.86 136.536 371.132 136.879 370.498C137.222 369.853 137.685 369.349 138.267 368.985C138.85 368.621 139.505 368.439 140.233 368.439C140.638 368.439 141.028 368.501 141.403 368.626C141.787 368.751 142.13 368.927 142.432 369.156C142.734 369.375 142.983 369.629 143.181 369.921C143.378 370.201 143.498 370.498 143.539 370.81L143.181 370.685V365.21H144.351V376.752H143.196L143.165 374.725L143.461 374.616C143.42 374.907 143.3 375.193 143.103 375.473C142.916 375.744 142.676 375.988 142.385 376.207C142.094 376.425 141.761 376.596 141.387 376.721C141.023 376.846 140.643 376.908 140.248 376.908ZM140.42 375.832C140.961 375.832 141.444 375.697 141.87 375.427C142.297 375.156 142.63 374.782 142.869 374.304C143.118 373.825 143.243 373.279 143.243 372.666C143.243 372.052 143.118 371.512 142.869 371.044C142.63 370.565 142.297 370.191 141.87 369.921C141.444 369.64 140.961 369.499 140.42 369.499C139.858 369.499 139.364 369.64 138.938 369.921C138.522 370.191 138.189 370.565 137.94 371.044C137.701 371.512 137.581 372.052 137.581 372.666C137.581 373.269 137.701 373.81 137.94 374.288C138.179 374.766 138.512 375.146 138.938 375.427C139.364 375.697 139.858 375.832 140.42 375.832ZM155.992 376.908C155.212 376.908 154.495 376.773 153.84 376.503C153.185 376.222 152.618 375.832 152.14 375.333C151.661 374.823 151.287 374.226 151.017 373.539C150.757 372.853 150.627 372.104 150.627 371.293C150.627 370.492 150.757 369.759 151.017 369.094C151.287 368.418 151.667 367.83 152.155 367.331C152.644 366.822 153.211 366.432 153.855 366.161C154.5 365.891 155.207 365.756 155.977 365.756C156.486 365.756 156.991 365.839 157.49 366.005C157.989 366.161 158.446 366.38 158.862 366.661C159.289 366.941 159.637 367.264 159.907 367.628L159.065 368.501C158.805 368.189 158.504 367.919 158.16 367.69C157.828 367.461 157.474 367.285 157.1 367.16C156.725 367.035 156.351 366.973 155.977 366.973C155.394 366.973 154.848 367.082 154.339 367.3C153.84 367.508 153.408 367.804 153.044 368.189C152.68 368.574 152.394 369.031 152.186 369.562C151.989 370.092 151.89 370.669 151.89 371.293C151.89 371.938 151.989 372.531 152.186 373.071C152.394 373.612 152.686 374.08 153.06 374.475C153.445 374.86 153.892 375.161 154.401 375.38C154.921 375.588 155.498 375.692 156.133 375.692C156.507 375.692 156.881 375.64 157.256 375.536C157.63 375.421 157.973 375.265 158.285 375.068C158.597 374.87 158.862 374.647 159.081 374.397L159.705 375.411C159.465 375.702 159.143 375.962 158.738 376.191C158.342 376.409 157.906 376.586 157.427 376.721C156.949 376.846 156.471 376.908 155.992 376.908ZM164.427 376.908C163.803 376.908 163.273 376.784 162.836 376.534C162.41 376.274 162.082 375.9 161.854 375.411C161.635 374.922 161.526 374.314 161.526 373.586V368.61H162.712V373.352C162.712 373.903 162.784 374.366 162.93 374.74C163.086 375.104 163.315 375.38 163.616 375.567C163.928 375.754 164.308 375.848 164.755 375.848C165.098 375.848 165.415 375.791 165.706 375.676C165.998 375.551 166.252 375.385 166.471 375.177C166.689 374.969 166.861 374.725 166.985 374.444C167.11 374.163 167.173 373.867 167.173 373.555V368.61H168.342V376.752H167.188L167.141 375.037L167.329 374.943C167.204 375.307 166.996 375.64 166.705 375.941C166.414 376.233 166.065 376.466 165.66 376.643C165.264 376.82 164.854 376.908 164.427 376.908ZM173.287 376.908C172.591 376.908 171.967 376.778 171.416 376.518C170.865 376.259 170.428 375.915 170.106 375.489L170.932 374.772C171.234 375.135 171.587 375.411 171.993 375.598C172.409 375.785 172.872 375.879 173.381 375.879C173.641 375.879 173.875 375.853 174.083 375.801C174.291 375.739 174.473 375.65 174.629 375.536C174.785 375.421 174.904 375.286 174.988 375.13C175.071 374.974 175.112 374.803 175.112 374.616C175.112 374.272 174.962 373.986 174.66 373.758C174.525 373.664 174.333 373.57 174.083 373.477C173.833 373.373 173.532 373.274 173.178 373.181C172.596 373.014 172.112 372.848 171.728 372.681C171.343 372.505 171.041 372.302 170.823 372.073C170.667 371.886 170.547 371.683 170.464 371.465C170.391 371.246 170.355 371.007 170.355 370.747C170.355 370.414 170.423 370.108 170.558 369.827C170.703 369.546 170.901 369.302 171.151 369.094C171.411 368.875 171.712 368.714 172.055 368.61C172.409 368.496 172.788 368.439 173.194 368.439C173.579 368.439 173.958 368.491 174.333 368.595C174.707 368.699 175.055 368.849 175.378 369.047C175.7 369.245 175.976 369.479 176.204 369.749L175.487 370.529C175.289 370.321 175.071 370.134 174.832 369.967C174.593 369.801 174.338 369.671 174.067 369.577C173.807 369.484 173.537 369.437 173.256 369.437C173.007 369.437 172.773 369.468 172.554 369.531C172.346 369.593 172.164 369.681 172.008 369.796C171.863 369.9 171.748 370.03 171.665 370.186C171.593 370.342 171.556 370.513 171.556 370.7C171.556 370.856 171.587 370.997 171.65 371.122C171.712 371.246 171.8 371.356 171.915 371.449C172.06 371.564 172.263 371.673 172.523 371.777C172.794 371.87 173.126 371.969 173.521 372.073C173.979 372.198 174.364 372.328 174.676 372.463C174.998 372.588 175.263 372.739 175.471 372.915C175.752 373.123 175.95 373.362 176.064 373.633C176.189 373.903 176.251 374.21 176.251 374.553C176.251 375.011 176.121 375.416 175.861 375.77C175.612 376.123 175.263 376.404 174.816 376.612C174.369 376.81 173.859 376.908 173.287 376.908ZM179.207 376.752V366.473H180.377V376.752H179.207ZM177.367 369.733V368.61H182.436V369.733H177.367ZM187.399 376.908C186.588 376.908 185.866 376.726 185.231 376.362C184.607 375.999 184.113 375.494 183.749 374.849C183.396 374.205 183.219 373.472 183.219 372.65C183.219 371.839 183.396 371.116 183.749 370.482C184.113 369.848 184.607 369.349 185.231 368.985C185.866 368.621 186.588 368.439 187.399 368.439C188.2 368.439 188.912 368.621 189.536 368.985C190.171 369.349 190.665 369.848 191.018 370.482C191.382 371.116 191.564 371.839 191.564 372.65C191.564 373.472 191.382 374.205 191.018 374.849C190.665 375.494 190.171 375.999 189.536 376.362C188.912 376.726 188.2 376.908 187.399 376.908ZM187.399 375.801C187.971 375.801 188.481 375.666 188.928 375.395C189.375 375.115 189.723 374.74 189.973 374.272C190.223 373.794 190.347 373.253 190.347 372.65C190.347 372.047 190.223 371.512 189.973 371.044C189.723 370.576 189.375 370.212 188.928 369.952C188.481 369.681 187.971 369.546 187.399 369.546C186.827 369.546 186.313 369.681 185.855 369.952C185.408 370.212 185.054 370.581 184.794 371.059C184.545 371.527 184.425 372.057 184.436 372.65C184.425 373.253 184.545 373.794 184.794 374.272C185.054 374.74 185.408 375.115 185.855 375.395C186.313 375.666 186.827 375.801 187.399 375.801ZM193.255 376.752V368.61H194.425L194.456 370.466L194.222 370.544C194.305 370.233 194.441 369.952 194.628 369.702C194.825 369.442 195.059 369.219 195.33 369.031C195.6 368.844 195.896 368.704 196.219 368.61C196.541 368.506 196.879 368.454 197.233 368.454C197.659 368.454 198.039 368.527 198.371 368.673C198.714 368.808 199 369.047 199.229 369.39C199.468 369.723 199.65 370.165 199.775 370.716L199.494 370.576L199.604 370.31C199.707 370.071 199.858 369.843 200.056 369.624C200.264 369.395 200.498 369.193 200.758 369.016C201.028 368.839 201.319 368.704 201.631 368.61C201.954 368.506 202.281 368.454 202.614 368.454C203.186 368.454 203.669 368.579 204.065 368.829C204.46 369.068 204.756 369.437 204.954 369.936C205.162 370.435 205.266 371.07 205.266 371.839V376.752H204.065V371.901C204.065 371.361 203.997 370.919 203.862 370.576C203.727 370.233 203.524 369.978 203.253 369.811C202.993 369.635 202.661 369.546 202.255 369.546C201.902 369.546 201.574 369.609 201.272 369.733C200.981 369.848 200.727 370.014 200.508 370.233C200.3 370.44 200.134 370.68 200.009 370.95C199.895 371.22 199.837 371.512 199.837 371.823V376.752H198.652V371.886C198.652 371.366 198.579 370.934 198.434 370.591C198.298 370.248 198.096 369.988 197.825 369.811C197.555 369.635 197.222 369.546 196.827 369.546C196.484 369.546 196.167 369.609 195.876 369.733C195.584 369.848 195.33 370.009 195.111 370.217C194.903 370.425 194.737 370.664 194.612 370.934C194.498 371.205 194.441 371.496 194.441 371.808V376.752H193.255ZM211.07 376.908C210.259 376.908 209.536 376.732 208.902 376.378C208.278 376.025 207.789 375.531 207.436 374.896C207.082 374.262 206.905 373.534 206.905 372.713C206.905 372.078 207.004 371.506 207.202 370.997C207.399 370.477 207.675 370.025 208.028 369.64C208.392 369.255 208.824 368.959 209.323 368.751C209.822 368.532 210.363 368.423 210.945 368.423C211.496 368.423 211.996 368.522 212.443 368.72C212.9 368.917 213.29 369.193 213.613 369.546C213.945 369.889 214.195 370.3 214.361 370.778C214.528 371.257 214.6 371.782 214.58 372.354L214.564 372.9H207.779L207.607 371.917H213.675L213.394 372.182V371.808C213.373 371.434 213.264 371.075 213.067 370.732C212.869 370.378 212.588 370.092 212.224 369.874C211.871 369.655 211.444 369.546 210.945 369.546C210.363 369.546 209.859 369.666 209.432 369.905C209.006 370.134 208.678 370.477 208.45 370.934C208.221 371.392 208.106 371.959 208.106 372.635C208.106 373.279 208.231 373.841 208.481 374.319C208.73 374.787 209.084 375.151 209.541 375.411C210.009 375.671 210.571 375.801 211.226 375.801C211.611 375.801 211.99 375.739 212.365 375.614C212.749 375.479 213.171 375.219 213.628 374.834L214.236 375.676C213.997 375.915 213.711 376.129 213.379 376.316C213.046 376.492 212.682 376.638 212.287 376.752C211.892 376.856 211.486 376.908 211.07 376.908ZM216.241 376.752V368.61H217.411L217.442 370.778L217.317 370.482C217.432 370.118 217.614 369.78 217.863 369.468C218.123 369.156 218.43 368.907 218.784 368.72C219.137 368.532 219.527 368.439 219.953 368.439C220.13 368.439 220.297 368.454 220.453 368.486C220.609 368.506 220.739 368.538 220.843 368.579L220.515 369.889C220.38 369.827 220.239 369.785 220.094 369.765C219.959 369.733 219.829 369.718 219.704 369.718C219.35 369.718 219.033 369.78 218.752 369.905C218.472 370.03 218.232 370.207 218.035 370.435C217.837 370.654 217.687 370.908 217.583 371.2C217.479 371.491 217.427 371.803 217.427 372.135V376.752H216.241ZM224.727 376.908C224.03 376.908 223.407 376.778 222.855 376.518C222.304 376.259 221.868 375.915 221.545 375.489L222.372 374.772C222.673 375.135 223.027 375.411 223.432 375.598C223.848 375.785 224.311 375.879 224.821 375.879C225.081 375.879 225.315 375.853 225.523 375.801C225.731 375.739 225.913 375.65 226.069 375.536C226.225 375.421 226.344 375.286 226.427 375.13C226.51 374.974 226.552 374.803 226.552 374.616C226.552 374.272 226.401 373.986 226.1 373.758C225.965 373.664 225.772 373.57 225.523 373.477C225.273 373.373 224.971 373.274 224.618 373.181C224.036 373.014 223.552 372.848 223.167 372.681C222.783 372.505 222.481 372.302 222.263 372.073C222.107 371.886 221.987 371.683 221.904 371.465C221.831 371.246 221.795 371.007 221.795 370.747C221.795 370.414 221.862 370.108 221.997 369.827C222.143 369.546 222.341 369.302 222.59 369.094C222.85 368.875 223.152 368.714 223.495 368.61C223.848 368.496 224.228 368.439 224.634 368.439C225.018 368.439 225.398 368.491 225.772 368.595C226.147 368.699 226.495 368.849 226.817 369.047C227.14 369.245 227.415 369.479 227.644 369.749L226.926 370.529C226.729 370.321 226.51 370.134 226.271 369.967C226.032 369.801 225.777 369.671 225.507 369.577C225.247 369.484 224.977 369.437 224.696 369.437C224.446 369.437 224.212 369.468 223.994 369.531C223.786 369.593 223.604 369.681 223.448 369.796C223.303 369.9 223.188 370.03 223.105 370.186C223.032 370.342 222.996 370.513 222.996 370.7C222.996 370.856 223.027 370.997 223.089 371.122C223.152 371.246 223.24 371.356 223.355 371.449C223.5 371.564 223.703 371.673 223.963 371.777C224.233 371.87 224.566 371.969 224.961 372.073C225.419 372.198 225.803 372.328 226.115 372.463C226.438 372.588 226.703 372.739 226.911 372.915C227.192 373.123 227.389 373.362 227.504 373.633C227.628 373.903 227.691 374.21 227.691 374.553C227.691 375.011 227.561 375.416 227.301 375.77C227.051 376.123 226.703 376.404 226.256 376.612C225.809 376.81 225.299 376.908 224.727 376.908Z" fill="#656565"/>
<g filter="url(#filter2_d_266_594)">
<rect x="304.094" y="85.7886" width="238.302" height="169.844" rx="8.66551" fill="white"/>
<rect x="304.527" y="86.2218" width="237.435" height="168.977" rx="8.23224" stroke="#D1D1E1" stroke-opacity="0.3" stroke-width="0.866551"/>
</g>
<g filter="url(#filter3_d_266_594)">
<rect x="252.102" y="255.633" width="290.295" height="169.844" rx="8.66551" fill="#F8F9FA"/>
<rect x="252.535" y="256.066" width="289.428" height="168.977" rx="8.23224" stroke="#D1D1E1" stroke-opacity="0.3" stroke-width="0.866551"/>
</g>
<path d="M395.196 169.478V145.853L396.735 148.64L390.663 151.593L389.456 146.061L397.567 141.985H401.352V169.478H395.196ZM390.08 171.517V165.901H406.593V171.517H390.08ZM421.193 171.641C419.252 171.641 417.491 171.267 415.91 170.518C414.33 169.742 413.068 168.702 412.125 167.399C411.182 166.095 410.711 164.654 410.711 163.073C410.711 162.047 410.836 161.118 411.085 160.286C411.362 159.454 411.765 158.706 412.291 158.04C412.846 157.374 413.512 156.792 414.288 156.293C415.064 155.794 415.966 155.364 416.992 155.004L416.576 156.459C415.799 156.154 415.106 155.794 414.496 155.378C413.886 154.934 413.359 154.435 412.915 153.881C412.499 153.326 412.167 152.73 411.917 152.092C411.695 151.426 411.584 150.733 411.584 150.012C411.584 148.515 412.014 147.17 412.874 145.978C413.733 144.785 414.884 143.842 416.326 143.149C417.768 142.428 419.39 142.068 421.193 142.068C422.967 142.068 424.576 142.428 426.018 143.149C427.46 143.842 428.61 144.785 429.47 145.978C430.33 147.17 430.759 148.515 430.759 150.012C430.759 150.733 430.648 151.426 430.427 152.092C430.205 152.73 429.886 153.312 429.47 153.839C429.054 154.366 428.527 154.851 427.889 155.295C427.279 155.738 426.558 156.127 425.726 156.459L425.477 155.17C426.392 155.447 427.224 155.835 427.973 156.335C428.749 156.806 429.401 157.388 429.927 158.082C430.482 158.747 430.912 159.496 431.217 160.328C431.522 161.16 431.674 162.075 431.674 163.073C431.674 164.681 431.203 166.137 430.26 167.44C429.317 168.744 428.056 169.77 426.475 170.518C424.895 171.267 423.134 171.641 421.193 171.641ZM421.193 166.525C422.025 166.525 422.787 166.359 423.48 166.026C424.174 165.693 424.714 165.25 425.103 164.695C425.491 164.113 425.685 163.447 425.685 162.699C425.685 161.922 425.491 161.243 425.103 160.66C424.714 160.05 424.174 159.565 423.48 159.205C422.815 158.844 422.052 158.664 421.193 158.664C420.333 158.664 419.557 158.844 418.863 159.205C418.198 159.565 417.671 160.05 417.283 160.66C416.895 161.243 416.7 161.922 416.7 162.699C416.7 163.42 416.895 164.071 417.283 164.654C417.671 165.208 418.198 165.666 418.863 166.026C419.557 166.359 420.333 166.525 421.193 166.525ZM421.193 153.589C421.941 153.589 422.607 153.451 423.189 153.173C423.772 152.868 424.229 152.48 424.562 152.009C424.922 151.51 425.103 150.927 425.103 150.262C425.103 149.624 424.922 149.056 424.562 148.556C424.229 148.03 423.772 147.614 423.189 147.309C422.607 147.004 421.941 146.851 421.193 146.851C420.444 146.851 419.765 147.004 419.155 147.309C418.572 147.614 418.101 148.03 417.74 148.556C417.408 149.056 417.241 149.624 417.241 150.262C417.241 150.927 417.408 151.51 417.74 152.009C418.101 152.48 418.572 152.868 419.155 153.173C419.765 153.451 420.444 153.589 421.193 153.589ZM435.451 162.199V157.333H456.29V162.199H435.451ZM443.146 169.853V149.596H448.553V169.853H443.146Z" fill="#212121"/>
<path d="M364.315 206.908V201.465L364.424 202.229L360.01 195.99H361.491L365.11 201.168L364.783 201.137L368.105 195.99H369.509L365.282 202.4L365.516 201.34V206.908H364.315ZM373.259 207.064C372.448 207.064 371.726 206.887 371.091 206.534C370.467 206.18 369.979 205.686 369.625 205.052C369.271 204.418 369.095 203.69 369.095 202.868C369.095 202.234 369.193 201.662 369.391 201.153C369.589 200.633 369.864 200.18 370.218 199.796C370.582 199.411 371.013 199.114 371.512 198.906C372.012 198.688 372.552 198.579 373.135 198.579C373.686 198.579 374.185 198.678 374.632 198.875C375.09 199.073 375.479 199.348 375.802 199.702C376.135 200.045 376.384 200.456 376.551 200.934C376.717 201.413 376.79 201.938 376.769 202.51L376.753 203.056H369.968L369.797 202.073H375.864L375.583 202.338V201.964C375.563 201.589 375.453 201.231 375.256 200.887C375.058 200.534 374.778 200.248 374.414 200.03C374.06 199.811 373.634 199.702 373.135 199.702C372.552 199.702 372.048 199.822 371.622 200.061C371.195 200.289 370.868 200.633 370.639 201.09C370.41 201.548 370.296 202.114 370.296 202.79C370.296 203.435 370.421 203.997 370.67 204.475C370.92 204.943 371.273 205.307 371.731 205.567C372.199 205.827 372.76 205.957 373.415 205.957C373.8 205.957 374.18 205.894 374.554 205.77C374.939 205.634 375.36 205.374 375.817 204.99L376.426 205.832C376.187 206.071 375.901 206.284 375.568 206.471C375.235 206.648 374.871 206.794 374.476 206.908C374.081 207.012 373.675 207.064 373.259 207.064ZM381.612 207.064C380.905 207.064 380.266 206.882 379.694 206.518C379.122 206.144 378.67 205.64 378.337 205.005C378.004 204.361 377.838 203.633 377.838 202.822C377.838 202 378.009 201.272 378.352 200.638C378.696 200.004 379.153 199.504 379.725 199.14C380.307 198.776 380.957 198.595 381.675 198.595C382.101 198.595 382.496 198.657 382.86 198.782C383.224 198.906 383.547 199.083 383.827 199.312C384.118 199.53 384.358 199.79 384.545 200.092C384.742 200.383 384.878 200.7 384.95 201.043L384.607 200.872L384.654 198.766H385.824V206.908H384.638V204.912L384.95 204.709C384.878 205.021 384.737 205.322 384.529 205.614C384.321 205.894 384.066 206.144 383.765 206.362C383.474 206.581 383.141 206.752 382.767 206.877C382.403 207.002 382.018 207.064 381.612 207.064ZM381.878 205.941C382.418 205.941 382.902 205.811 383.328 205.551C383.755 205.281 384.087 204.912 384.326 204.444C384.576 203.965 384.701 203.425 384.701 202.822C384.701 202.218 384.576 201.683 384.326 201.215C384.087 200.747 383.755 200.378 383.328 200.108C382.902 199.837 382.418 199.702 381.878 199.702C381.326 199.702 380.838 199.837 380.411 200.108C379.995 200.378 379.663 200.747 379.413 201.215C379.174 201.683 379.054 202.218 379.054 202.822C379.054 203.414 379.174 203.95 379.413 204.428C379.652 204.896 379.985 205.265 380.411 205.536C380.838 205.806 381.326 205.941 381.878 205.941ZM388.103 206.908V198.766H389.273L389.304 200.934L389.179 200.638C389.294 200.274 389.476 199.936 389.725 199.624C389.985 199.312 390.292 199.062 390.645 198.875C390.999 198.688 391.389 198.595 391.815 198.595C391.992 198.595 392.158 198.61 392.314 198.641C392.47 198.662 392.6 198.693 392.704 198.735L392.377 200.045C392.242 199.983 392.101 199.941 391.956 199.92C391.82 199.889 391.69 199.874 391.566 199.874C391.212 199.874 390.895 199.936 390.614 200.061C390.333 200.185 390.094 200.362 389.897 200.591C389.699 200.809 389.548 201.064 389.444 201.355C389.34 201.647 389.288 201.958 389.288 202.291V206.908H388.103ZM396.589 207.064C395.892 207.064 395.268 206.934 394.717 206.674C394.166 206.414 393.729 206.071 393.407 205.645L394.234 204.927C394.535 205.291 394.889 205.567 395.294 205.754C395.71 205.941 396.173 206.035 396.683 206.035C396.943 206.035 397.176 206.009 397.384 205.957C397.592 205.894 397.774 205.806 397.93 205.692C398.086 205.577 398.206 205.442 398.289 205.286C398.372 205.13 398.414 204.958 398.414 204.771C398.414 204.428 398.263 204.142 397.962 203.913C397.826 203.82 397.634 203.726 397.384 203.633C397.135 203.529 396.833 203.43 396.48 203.336C395.897 203.17 395.414 203.004 395.029 202.837C394.644 202.66 394.343 202.458 394.124 202.229C393.969 202.042 393.849 201.839 393.766 201.621C393.693 201.402 393.657 201.163 393.657 200.903C393.657 200.57 393.724 200.263 393.859 199.983C394.005 199.702 394.202 199.458 394.452 199.25C394.712 199.031 395.014 198.87 395.357 198.766C395.71 198.652 396.09 198.595 396.495 198.595C396.88 198.595 397.26 198.647 397.634 198.75C398.008 198.854 398.357 199.005 398.679 199.203C399.001 199.4 399.277 199.634 399.506 199.905L398.788 200.685C398.591 200.477 398.372 200.289 398.133 200.123C397.894 199.957 397.639 199.827 397.369 199.733C397.109 199.64 396.839 199.593 396.558 199.593C396.308 199.593 396.074 199.624 395.856 199.686C395.648 199.749 395.466 199.837 395.31 199.952C395.164 200.056 395.05 200.185 394.967 200.341C394.894 200.497 394.858 200.669 394.858 200.856C394.858 201.012 394.889 201.153 394.951 201.277C395.014 201.402 395.102 201.511 395.216 201.605C395.362 201.719 395.565 201.828 395.825 201.932C396.095 202.026 396.428 202.125 396.823 202.229C397.28 202.354 397.665 202.484 397.977 202.619C398.3 202.744 398.565 202.894 398.773 203.071C399.053 203.279 399.251 203.518 399.365 203.789C399.49 204.059 399.553 204.366 399.553 204.709C399.553 205.166 399.423 205.572 399.163 205.926C398.913 206.279 398.565 206.56 398.118 206.768C397.67 206.965 397.161 207.064 396.589 207.064ZM406.225 206.908V195.99H412.839V197.175H407.442V205.723H412.808V206.908H406.225ZM406.787 201.886V200.7H411.965V201.886H406.787ZM420.632 206.908L417.809 203.274L417.668 203.102L414.284 198.766H415.765L418.542 202.338L418.698 202.541L422.098 206.908H420.632ZM414.221 206.908L417.544 202.619L418.245 203.461L415.625 206.908H414.221ZM418.776 202.915L418.105 202.088L420.476 198.766H421.895L418.776 202.915ZM423.488 210.34V198.766H424.658L424.689 200.747L424.47 200.778C424.564 200.383 424.767 200.024 425.079 199.702C425.391 199.369 425.77 199.104 426.217 198.906C426.664 198.709 427.138 198.61 427.637 198.61C428.365 198.61 429.015 198.792 429.586 199.156C430.169 199.52 430.632 200.019 430.975 200.653C431.318 201.288 431.489 202.016 431.489 202.837C431.489 203.648 431.323 204.371 430.99 205.005C430.658 205.64 430.2 206.144 429.618 206.518C429.035 206.882 428.38 207.064 427.652 207.064C427.143 207.064 426.659 206.96 426.202 206.752C425.744 206.544 425.354 206.274 425.032 205.941C424.71 205.598 424.496 205.229 424.392 204.834H424.673V210.34H423.488ZM427.465 205.941C428.016 205.941 428.505 205.806 428.931 205.536C429.358 205.265 429.696 204.896 429.945 204.428C430.195 203.96 430.32 203.43 430.32 202.837C430.32 202.234 430.195 201.698 429.945 201.231C429.696 200.763 429.358 200.393 428.931 200.123C428.505 199.853 428.016 199.718 427.465 199.718C426.914 199.718 426.42 199.853 425.983 200.123C425.557 200.383 425.219 200.747 424.97 201.215C424.72 201.683 424.595 202.218 424.595 202.822C424.595 203.425 424.72 203.96 424.97 204.428C425.219 204.896 425.557 205.265 425.983 205.536C426.42 205.806 426.914 205.941 427.465 205.941ZM436.778 207.064C435.967 207.064 435.244 206.887 434.61 206.534C433.986 206.18 433.497 205.686 433.144 205.052C432.79 204.418 432.614 203.69 432.614 202.868C432.614 202.234 432.712 201.662 432.91 201.153C433.108 200.633 433.383 200.18 433.737 199.796C434.101 199.411 434.532 199.114 435.031 198.906C435.53 198.688 436.071 198.579 436.653 198.579C437.205 198.579 437.704 198.678 438.151 198.875C438.608 199.073 438.998 199.348 439.321 199.702C439.653 200.045 439.903 200.456 440.069 200.934C440.236 201.413 440.309 201.938 440.288 202.51L440.272 203.056H433.487L433.315 202.073H439.383L439.102 202.338V201.964C439.082 201.589 438.972 201.231 438.775 200.887C438.577 200.534 438.296 200.248 437.932 200.03C437.579 199.811 437.153 199.702 436.653 199.702C436.071 199.702 435.567 199.822 435.14 200.061C434.714 200.289 434.387 200.633 434.158 201.09C433.929 201.548 433.815 202.114 433.815 202.79C433.815 203.435 433.939 203.997 434.189 204.475C434.439 204.943 434.792 205.307 435.25 205.567C435.718 205.827 436.279 205.957 436.934 205.957C437.319 205.957 437.699 205.894 438.073 205.77C438.458 205.634 438.879 205.374 439.336 204.99L439.945 205.832C439.705 206.071 439.419 206.284 439.087 206.471C438.754 206.648 438.39 206.794 437.995 206.908C437.6 207.012 437.194 207.064 436.778 207.064ZM441.949 206.908V198.766H443.119L443.15 200.934L443.026 200.638C443.14 200.274 443.322 199.936 443.571 199.624C443.831 199.312 444.138 199.062 444.492 198.875C444.845 198.688 445.235 198.595 445.662 198.595C445.838 198.595 446.005 198.61 446.161 198.641C446.317 198.662 446.447 198.693 446.551 198.735L446.223 200.045C446.088 199.983 445.948 199.941 445.802 199.92C445.667 199.889 445.537 199.874 445.412 199.874C445.058 199.874 444.741 199.936 444.461 200.061C444.18 200.185 443.941 200.362 443.743 200.591C443.545 200.809 443.395 201.064 443.291 201.355C443.187 201.647 443.135 201.958 443.135 202.291V206.908H441.949ZM448.08 206.908V198.766H449.25V206.908H448.08ZM448.657 197.004C448.366 197.004 448.142 196.931 447.986 196.785C447.841 196.629 447.768 196.421 447.768 196.161C447.768 195.901 447.846 195.693 448.002 195.537C448.158 195.381 448.376 195.303 448.657 195.303C448.938 195.303 449.156 195.381 449.312 195.537C449.468 195.683 449.546 195.891 449.546 196.161C449.546 196.411 449.468 196.614 449.312 196.77C449.156 196.926 448.938 197.004 448.657 197.004ZM455.392 207.064C454.581 207.064 453.858 206.887 453.224 206.534C452.6 206.18 452.111 205.686 451.758 205.052C451.404 204.418 451.228 203.69 451.228 202.868C451.228 202.234 451.326 201.662 451.524 201.153C451.721 200.633 451.997 200.18 452.351 199.796C452.715 199.411 453.146 199.114 453.645 198.906C454.144 198.688 454.685 198.579 455.267 198.579C455.818 198.579 456.318 198.678 456.765 198.875C457.222 199.073 457.612 199.348 457.935 199.702C458.267 200.045 458.517 200.456 458.683 200.934C458.85 201.413 458.922 201.938 458.902 202.51L458.886 203.056H452.101L451.929 202.073H457.997L457.716 202.338V201.964C457.695 201.589 457.586 201.231 457.389 200.887C457.191 200.534 456.91 200.248 456.546 200.03C456.193 199.811 455.767 199.702 455.267 199.702C454.685 199.702 454.181 199.822 453.754 200.061C453.328 200.289 453 200.633 452.772 201.09C452.543 201.548 452.429 202.114 452.429 202.79C452.429 203.435 452.553 203.997 452.803 204.475C453.052 204.943 453.406 205.307 453.864 205.567C454.331 205.827 454.893 205.957 455.548 205.957C455.933 205.957 456.312 205.894 456.687 205.77C457.072 205.634 457.493 205.374 457.95 204.99L458.559 205.832C458.319 206.071 458.033 206.284 457.701 206.471C457.368 206.648 457.004 206.794 456.609 206.908C456.214 207.012 455.808 207.064 455.392 207.064ZM460.563 206.908V198.766H461.717L461.764 200.466L461.577 200.544C461.681 200.191 461.884 199.868 462.185 199.577C462.487 199.286 462.846 199.052 463.262 198.875C463.688 198.688 464.125 198.595 464.572 198.595C465.175 198.595 465.679 198.714 466.085 198.953C466.49 199.192 466.797 199.562 467.005 200.061C467.213 200.56 467.317 201.194 467.317 201.964V206.908H466.132V202.026C466.132 201.485 466.059 201.043 465.913 200.7C465.778 200.347 465.565 200.087 465.274 199.92C464.983 199.754 464.624 199.676 464.198 199.686C463.844 199.686 463.516 199.749 463.215 199.874C462.913 199.988 462.653 200.149 462.435 200.357C462.217 200.565 462.045 200.804 461.92 201.075C461.795 201.345 461.733 201.636 461.733 201.948V206.908H461.156C461.083 206.908 461 206.908 460.906 206.908C460.813 206.908 460.698 206.908 460.563 206.908ZM472.982 207.064C472.212 207.064 471.526 206.882 470.923 206.518C470.32 206.144 469.841 205.64 469.488 205.005C469.145 204.361 468.973 203.633 468.973 202.822C468.973 202.01 469.145 201.288 469.488 200.653C469.841 200.009 470.32 199.504 470.923 199.14C471.526 198.776 472.218 198.595 472.997 198.595C473.694 198.595 474.328 198.735 474.9 199.016C475.472 199.286 475.93 199.666 476.273 200.154L475.587 200.997C475.389 200.737 475.15 200.508 474.869 200.31C474.599 200.113 474.302 199.962 473.98 199.858C473.668 199.744 473.356 199.686 473.044 199.686C472.493 199.686 471.999 199.827 471.562 200.108C471.126 200.378 470.777 200.747 470.517 201.215C470.268 201.683 470.143 202.218 470.143 202.822C470.143 203.425 470.268 203.965 470.517 204.444C470.777 204.912 471.126 205.281 471.562 205.551C471.999 205.822 472.488 205.957 473.029 205.957C473.341 205.957 473.647 205.91 473.949 205.816C474.25 205.712 474.536 205.567 474.807 205.38C475.077 205.192 475.327 204.958 475.556 204.678L476.242 205.52C475.888 205.988 475.415 206.362 474.822 206.643C474.23 206.924 473.616 207.064 472.982 207.064ZM481.348 207.064C480.537 207.064 479.814 206.887 479.18 206.534C478.556 206.18 478.067 205.686 477.714 205.052C477.36 204.418 477.183 203.69 477.183 202.868C477.183 202.234 477.282 201.662 477.48 201.153C477.677 200.633 477.953 200.18 478.306 199.796C478.67 199.411 479.102 199.114 479.601 198.906C480.1 198.688 480.641 198.579 481.223 198.579C481.774 198.579 482.274 198.678 482.721 198.875C483.178 199.073 483.568 199.348 483.891 199.702C484.223 200.045 484.473 200.456 484.639 200.934C484.806 201.413 484.878 201.938 484.858 202.51L484.842 203.056H478.057L477.885 202.073H483.953L483.672 202.338V201.964C483.651 201.589 483.542 201.231 483.345 200.887C483.147 200.534 482.866 200.248 482.502 200.03C482.149 199.811 481.722 199.702 481.223 199.702C480.641 199.702 480.137 199.822 479.71 200.061C479.284 200.289 478.956 200.633 478.728 201.09C478.499 201.548 478.384 202.114 478.384 202.79C478.384 203.435 478.509 203.997 478.759 204.475C479.008 204.943 479.362 205.307 479.819 205.567C480.287 205.827 480.849 205.957 481.504 205.957C481.889 205.957 482.268 205.894 482.643 205.77C483.027 205.634 483.449 205.374 483.906 204.99L484.514 205.832C484.275 206.071 483.989 206.284 483.657 206.471C483.324 206.648 482.96 206.794 482.565 206.908C482.17 207.012 481.764 207.064 481.348 207.064Z" fill="#656565"/>
<path d="M351.267 341.361L351.101 340.945L360.085 322.56L360.959 325.347C360.598 326.29 360.113 327.149 359.503 327.926C358.893 328.675 358.186 329.326 357.382 329.881C356.605 330.408 355.787 330.824 354.927 331.129C354.068 331.434 353.222 331.586 352.39 331.586C350.81 331.586 349.354 331.156 348.023 330.297C346.692 329.437 345.624 328.3 344.82 326.886C344.016 325.444 343.614 323.891 343.614 322.227C343.614 320.231 344.071 318.428 344.986 316.82C345.929 315.212 347.205 313.95 348.813 313.035C350.421 312.092 352.238 311.621 354.262 311.621C355.704 311.621 357.063 311.884 358.338 312.411C359.614 312.91 360.737 313.631 361.707 314.574C362.678 315.489 363.427 316.543 363.953 317.735C364.508 318.928 364.785 320.203 364.785 321.562C364.785 322.449 364.702 323.35 364.536 324.266C364.369 325.181 364.12 326.137 363.787 327.136C363.454 328.106 363.024 329.174 362.498 330.338C361.998 331.475 361.416 332.737 360.751 334.123L357.132 341.361H351.267ZM353.846 326.428C354.789 326.428 355.621 326.22 356.342 325.805C357.063 325.389 357.631 324.834 358.047 324.141C358.463 323.42 358.671 322.629 358.671 321.77C358.671 320.827 358.463 319.995 358.047 319.274C357.659 318.525 357.104 317.943 356.383 317.527C355.662 317.084 354.83 316.862 353.888 316.862C353.028 316.862 352.252 317.07 351.558 317.486C350.893 317.902 350.352 318.47 349.936 319.191C349.548 319.912 349.354 320.758 349.354 321.728C349.354 322.56 349.548 323.337 349.936 324.058C350.352 324.779 350.893 325.361 351.558 325.805C352.252 326.22 353.014 326.428 353.846 326.428ZM369.875 341.361L381.646 314.907L383.143 317.61H368.086V312.078H386.762L387.386 315.281L376.239 341.361H369.875ZM395.365 341.361L414.623 312.245H420.197L400.731 341.361H395.365ZM397.528 327.676C396.169 327.676 394.949 327.33 393.868 326.636C392.814 325.943 391.982 325 391.372 323.808C390.79 322.588 390.498 321.201 390.498 319.649C390.498 318.096 390.79 316.709 391.372 315.489C391.982 314.241 392.814 313.285 393.868 312.619C394.921 311.926 396.141 311.579 397.528 311.579C398.914 311.579 400.121 311.926 401.147 312.619C402.2 313.285 403.018 314.241 403.601 315.489C404.211 316.709 404.516 318.096 404.516 319.649C404.516 321.174 404.211 322.546 403.601 323.766C402.991 324.959 402.159 325.915 401.105 326.636C400.051 327.33 398.859 327.676 397.528 327.676ZM397.528 323.766C398.027 323.766 398.457 323.6 398.817 323.267C399.178 322.934 399.441 322.463 399.608 321.853C399.802 321.215 399.899 320.48 399.899 319.649C399.899 318.817 399.802 318.082 399.608 317.444C399.441 316.806 399.178 316.321 398.817 315.988C398.457 315.655 398.027 315.489 397.528 315.489C397.029 315.489 396.585 315.669 396.197 316.03C395.836 316.363 395.559 316.848 395.365 317.486C395.171 318.096 395.074 318.817 395.074 319.649C395.074 320.48 395.171 321.215 395.365 321.853C395.559 322.463 395.836 322.934 396.197 323.267C396.585 323.6 397.029 323.766 397.528 323.766ZM418.492 341.735C417.133 341.735 415.913 341.389 414.831 340.695C413.778 340.002 412.946 339.059 412.336 337.867C411.726 336.647 411.421 335.274 411.421 333.749C411.421 332.168 411.712 330.768 412.294 329.548C412.904 328.328 413.736 327.371 414.79 326.678C415.871 325.985 417.105 325.638 418.492 325.638C419.85 325.638 421.057 325.985 422.11 326.678C423.164 327.371 423.982 328.328 424.564 329.548C425.147 330.768 425.438 332.168 425.438 333.749C425.438 335.246 425.133 336.605 424.523 337.825C423.913 339.045 423.081 340.002 422.027 340.695C421.001 341.389 419.823 341.735 418.492 341.735ZM418.492 337.867C418.963 337.867 419.379 337.701 419.739 337.368C420.128 337.007 420.419 336.522 420.613 335.912C420.807 335.302 420.904 334.581 420.904 333.749C420.904 332.889 420.807 332.155 420.613 331.545C420.419 330.907 420.128 330.421 419.739 330.089C419.379 329.728 418.963 329.548 418.492 329.548C417.965 329.548 417.521 329.728 417.161 330.089C416.8 330.421 416.509 330.907 416.287 331.545C416.093 332.155 415.996 332.889 415.996 333.749C415.996 334.581 416.093 335.302 416.287 335.912C416.481 336.522 416.758 337.007 417.119 337.368C417.507 337.701 417.965 337.867 418.492 337.867ZM429.297 332.044V327.177H450.136V332.044H429.297ZM436.992 339.697V319.441H442.399V339.697H436.992Z" fill="#212121"/>
<path d="M345.147 376.908C344.367 376.908 343.65 376.773 342.994 376.503C342.339 376.222 341.773 375.832 341.294 375.333C340.816 374.823 340.442 374.226 340.171 373.539C339.911 372.853 339.781 372.104 339.781 371.293C339.781 370.492 339.911 369.759 340.171 369.094C340.442 368.418 340.821 367.83 341.31 367.331C341.799 366.822 342.365 366.432 343.01 366.161C343.655 365.891 344.362 365.756 345.131 365.756C345.641 365.756 346.145 365.839 346.644 366.005C347.143 366.161 347.601 366.38 348.017 366.661C348.443 366.941 348.792 367.264 349.062 367.628L348.22 368.501C347.96 368.189 347.658 367.919 347.315 367.69C346.982 367.461 346.629 367.285 346.254 367.16C345.88 367.035 345.506 366.973 345.131 366.973C344.549 366.973 344.003 367.082 343.494 367.3C342.994 367.508 342.563 367.804 342.199 368.189C341.835 368.574 341.549 369.031 341.341 369.562C341.143 370.092 341.045 370.669 341.045 371.293C341.045 371.938 341.143 372.531 341.341 373.071C341.549 373.612 341.84 374.08 342.215 374.475C342.599 374.86 343.046 375.161 343.556 375.38C344.076 375.588 344.653 375.692 345.287 375.692C345.662 375.692 346.036 375.64 346.41 375.536C346.785 375.421 347.128 375.265 347.44 375.068C347.752 374.87 348.017 374.647 348.235 374.397L348.859 375.411C348.62 375.702 348.298 375.962 347.892 376.191C347.497 376.409 347.06 376.586 346.582 376.721C346.104 376.846 345.625 376.908 345.147 376.908ZM350.728 376.752V365.21H351.897V376.752H350.728ZM354.512 376.752V368.61H355.682V376.752H354.512ZM355.089 366.848C354.798 366.848 354.574 366.775 354.418 366.629C354.273 366.473 354.2 366.265 354.2 366.005C354.2 365.746 354.278 365.538 354.434 365.382C354.59 365.226 354.808 365.148 355.089 365.148C355.37 365.148 355.588 365.226 355.744 365.382C355.9 365.527 355.978 365.735 355.978 366.005C355.978 366.255 355.9 366.458 355.744 366.614C355.588 366.77 355.37 366.848 355.089 366.848ZM361.824 376.908C361.013 376.908 360.29 376.732 359.656 376.378C359.032 376.025 358.543 375.531 358.19 374.896C357.836 374.262 357.659 373.534 357.659 372.713C357.659 372.078 357.758 371.506 357.956 370.997C358.153 370.477 358.429 370.025 358.782 369.64C359.146 369.255 359.578 368.959 360.077 368.751C360.576 368.532 361.117 368.423 361.699 368.423C362.25 368.423 362.749 368.522 363.197 368.72C363.654 368.917 364.044 369.193 364.366 369.546C364.699 369.889 364.949 370.3 365.115 370.778C365.281 371.257 365.354 371.782 365.333 372.354L365.318 372.9H358.533L358.361 371.917H364.429L364.148 372.182V371.808C364.127 371.434 364.018 371.075 363.82 370.732C363.623 370.378 363.342 370.092 362.978 369.874C362.625 369.655 362.198 369.546 361.699 369.546C361.117 369.546 360.612 369.666 360.186 369.905C359.76 370.134 359.432 370.477 359.203 370.934C358.975 371.392 358.86 371.959 358.86 372.635C358.86 373.279 358.985 373.841 359.235 374.319C359.484 374.787 359.838 375.151 360.295 375.411C360.763 375.671 361.325 375.801 361.98 375.801C362.365 375.801 362.744 375.739 363.119 375.614C363.503 375.479 363.924 375.219 364.382 374.834L364.99 375.676C364.751 375.915 364.465 376.129 364.132 376.316C363.8 376.492 363.436 376.638 363.041 376.752C362.645 376.856 362.24 376.908 361.824 376.908ZM366.995 376.752V368.61H368.149L368.196 370.31L368.009 370.388C368.113 370.035 368.316 369.713 368.617 369.421C368.919 369.13 369.277 368.896 369.693 368.72C370.12 368.532 370.557 368.439 371.004 368.439C371.607 368.439 372.111 368.558 372.517 368.798C372.922 369.037 373.229 369.406 373.437 369.905C373.645 370.404 373.749 371.038 373.749 371.808V376.752H372.563V371.87C372.563 371.33 372.491 370.888 372.345 370.544C372.21 370.191 371.997 369.931 371.706 369.765C371.414 369.598 371.056 369.52 370.629 369.531C370.276 369.531 369.948 369.593 369.647 369.718C369.345 369.832 369.085 369.993 368.867 370.201C368.648 370.409 368.477 370.648 368.352 370.919C368.227 371.189 368.165 371.48 368.165 371.792V376.752H367.588C367.515 376.752 367.432 376.752 367.338 376.752C367.245 376.752 367.13 376.752 366.995 376.752ZM377.105 376.752V366.473H378.275V376.752H377.105ZM375.265 369.733V368.61H380.334V369.733H375.265ZM386.61 376.752V365.834H390.884C391.518 365.834 392.09 365.985 392.6 366.286C393.12 366.577 393.53 366.978 393.832 367.487C394.133 367.997 394.284 368.574 394.284 369.219C394.284 369.822 394.139 370.368 393.847 370.856C393.556 371.345 393.161 371.735 392.662 372.026C392.163 372.307 391.601 372.447 390.977 372.447H387.827V376.752H386.61ZM393.27 376.752L390.525 371.948L391.695 371.543L394.721 376.752H393.27ZM387.827 371.262H391.087C391.471 371.262 391.809 371.174 392.1 370.997C392.392 370.82 392.62 370.581 392.787 370.279C392.953 369.967 393.036 369.614 393.036 369.219C393.036 368.792 392.938 368.413 392.74 368.08C392.542 367.747 392.267 367.487 391.913 367.3C391.57 367.113 391.175 367.019 390.728 367.019H387.827V371.262ZM399.722 376.908C398.911 376.908 398.188 376.732 397.554 376.378C396.93 376.025 396.441 375.531 396.088 374.896C395.734 374.262 395.557 373.534 395.557 372.713C395.557 372.078 395.656 371.506 395.854 370.997C396.051 370.477 396.327 370.025 396.68 369.64C397.044 369.255 397.476 368.959 397.975 368.751C398.474 368.532 399.015 368.423 399.597 368.423C400.148 368.423 400.647 368.522 401.095 368.72C401.552 368.917 401.942 369.193 402.264 369.546C402.597 369.889 402.847 370.3 403.013 370.778C403.18 371.257 403.252 371.782 403.232 372.354L403.216 372.9H396.431L396.259 371.917H402.327L402.046 372.182V371.808C402.025 371.434 401.916 371.075 401.719 370.732C401.521 370.378 401.24 370.092 400.876 369.874C400.523 369.655 400.096 369.546 399.597 369.546C399.015 369.546 398.511 369.666 398.084 369.905C397.658 370.134 397.33 370.477 397.102 370.934C396.873 371.392 396.758 371.959 396.758 372.635C396.758 373.279 396.883 373.841 397.133 374.319C397.382 374.787 397.736 375.151 398.193 375.411C398.661 375.671 399.223 375.801 399.878 375.801C400.263 375.801 400.642 375.739 401.017 375.614C401.401 375.479 401.822 375.219 402.28 374.834L402.888 375.676C402.649 375.915 402.363 376.129 402.03 376.316C401.698 376.492 401.334 376.638 400.939 376.752C400.543 376.856 400.138 376.908 399.722 376.908ZM406.016 376.752V366.473H407.186V376.752H406.016ZM404.176 369.733V368.61H409.245V369.733H404.176ZM414.193 376.908C413.382 376.908 412.659 376.732 412.025 376.378C411.401 376.025 410.912 375.531 410.558 374.896C410.205 374.262 410.028 373.534 410.028 372.713C410.028 372.078 410.127 371.506 410.324 370.997C410.522 370.477 410.798 370.025 411.151 369.64C411.515 369.255 411.947 368.959 412.446 368.751C412.945 368.532 413.486 368.423 414.068 368.423C414.619 368.423 415.118 368.522 415.565 368.72C416.023 368.917 416.413 369.193 416.735 369.546C417.068 369.889 417.317 370.3 417.484 370.778C417.65 371.257 417.723 371.782 417.702 372.354L417.687 372.9H410.902L410.73 371.917H416.798L416.517 372.182V371.808C416.496 371.434 416.387 371.075 416.189 370.732C415.992 370.378 415.711 370.092 415.347 369.874C414.993 369.655 414.567 369.546 414.068 369.546C413.486 369.546 412.981 369.666 412.555 369.905C412.129 370.134 411.801 370.477 411.572 370.934C411.343 371.392 411.229 371.959 411.229 372.635C411.229 373.279 411.354 373.841 411.603 374.319C411.853 374.787 412.207 375.151 412.664 375.411C413.132 375.671 413.694 375.801 414.349 375.801C414.733 375.801 415.113 375.739 415.487 375.614C415.872 375.479 416.293 375.219 416.751 374.834L417.359 375.676C417.12 375.915 416.834 376.129 416.501 376.316C416.168 376.492 415.804 376.638 415.409 376.752C415.014 376.856 414.609 376.908 414.193 376.908ZM419.364 376.752V368.61H420.518L420.565 370.31L420.378 370.388C420.482 370.035 420.684 369.713 420.986 369.421C421.288 369.13 421.646 368.896 422.062 368.72C422.489 368.532 422.925 368.439 423.372 368.439C423.976 368.439 424.48 368.558 424.885 368.798C425.291 369.037 425.598 369.406 425.806 369.905C426.014 370.404 426.118 371.038 426.118 371.808V376.752H424.932V371.87C424.932 371.33 424.859 370.888 424.714 370.544C424.579 370.191 424.366 369.931 424.074 369.765C423.783 369.598 423.424 369.52 422.998 369.531C422.645 369.531 422.317 369.593 422.015 369.718C421.714 369.832 421.454 369.993 421.236 370.201C421.017 370.409 420.846 370.648 420.721 370.919C420.596 371.189 420.534 371.48 420.534 371.792V376.752H419.956C419.884 376.752 419.801 376.752 419.707 376.752C419.613 376.752 419.499 376.752 419.364 376.752ZM429.474 376.752V366.473H430.644V376.752H429.474ZM427.633 369.733V368.61H432.703V369.733H427.633ZM434.451 376.752V368.61H435.621V376.752H434.451ZM435.028 366.848C434.737 366.848 434.514 366.775 434.358 366.629C434.212 366.473 434.139 366.265 434.139 366.005C434.139 365.746 434.217 365.538 434.373 365.382C434.529 365.226 434.747 365.148 435.028 365.148C435.309 365.148 435.527 365.226 435.683 365.382C435.839 365.527 435.917 365.735 435.917 366.005C435.917 366.255 435.839 366.458 435.683 366.614C435.527 366.77 435.309 366.848 435.028 366.848ZM441.779 376.908C440.968 376.908 440.245 376.726 439.611 376.362C438.987 375.999 438.493 375.494 438.129 374.849C437.775 374.205 437.599 373.472 437.599 372.65C437.599 371.839 437.775 371.116 438.129 370.482C438.493 369.848 438.987 369.349 439.611 368.985C440.245 368.621 440.968 368.439 441.779 368.439C442.58 368.439 443.292 368.621 443.916 368.985C444.55 369.349 445.044 369.848 445.398 370.482C445.762 371.116 445.943 371.839 445.943 372.65C445.943 373.472 445.762 374.205 445.398 374.849C445.044 375.494 444.55 375.999 443.916 376.362C443.292 376.726 442.58 376.908 441.779 376.908ZM441.779 375.801C442.351 375.801 442.86 375.666 443.307 375.395C443.755 375.115 444.103 374.74 444.353 374.272C444.602 373.794 444.727 373.253 444.727 372.65C444.727 372.047 444.602 371.512 444.353 371.044C444.103 370.576 443.755 370.212 443.307 369.952C442.86 369.681 442.351 369.546 441.779 369.546C441.207 369.546 440.692 369.681 440.235 369.952C439.788 370.212 439.434 370.581 439.174 371.059C438.924 371.527 438.805 372.057 438.815 372.65C438.805 373.253 438.924 373.794 439.174 374.272C439.434 374.74 439.788 375.115 440.235 375.395C440.692 375.666 441.207 375.801 441.779 375.801ZM447.65 376.752V368.61H448.804L448.851 370.31L448.664 370.388C448.768 370.035 448.971 369.713 449.272 369.421C449.574 369.13 449.933 368.896 450.349 368.72C450.775 368.532 451.212 368.439 451.659 368.439C452.262 368.439 452.766 368.558 453.172 368.798C453.577 369.037 453.884 369.406 454.092 369.905C454.3 370.404 454.404 371.038 454.404 371.808V376.752H453.219V371.87C453.219 371.33 453.146 370.888 453 370.544C452.865 370.191 452.652 369.931 452.361 369.765C452.07 369.598 451.711 369.52 451.285 369.531C450.931 369.531 450.603 369.593 450.302 369.718C450 369.832 449.74 369.993 449.522 370.201C449.304 370.409 449.132 370.648 449.007 370.919C448.882 371.189 448.82 371.48 448.82 371.792V376.752H448.243C448.17 376.752 448.087 376.752 447.993 376.752C447.9 376.752 447.785 376.752 447.65 376.752Z" fill="#656565"/>
<g clip-path="url(#clip2_266_594)">
<path d="M498.77 433.006C510.673 425.934 510.828 425.406 504.586 413.048C511.658 424.951 512.177 425.108 524.544 418.865C512.641 425.936 512.484 426.455 518.727 438.822C511.654 426.91 511.128 426.764 498.77 433.006Z" fill="black"/>
</g>
<defs>
<filter id="filter0_d_266_594" x="0.802795" y="54.5927" width="337.953" height="239.168" filterUnits="userSpaceOnUse" color-interpolation-filters="sRGB">
<feFlood flood-opacity="0" result="BackgroundImageFix"/>
<feColorMatrix in="SourceAlpha" type="matrix" values="0 0 0 0 0 0 0 0 0 0 0 0 0 0 0 0 0 0 127 0" result="hardAlpha"/>
<feOffset dy="3.4662"/>
<feGaussianBlur stdDeviation="17.331"/>
<feComposite in2="hardAlpha" operator="out"/>
<feColorMatrix type="matrix" values="0 0 0 0 0.966667 0 0 0 0 0.966667 0 0 0 0 0.966667 0 0 0 1 0"/>
<feBlend mode="normal" in2="BackgroundImageFix" result="effect1_dropShadow_266_594"/>
<feBlend mode="normal" in="SourceGraphic" in2="effect1_dropShadow_266_594" result="shape"/>
</filter>
<filter id="filter1_d_266_594" x="0.802795" y="224.437" width="307.625" height="239.168" filterUnits="userSpaceOnUse" color-interpolation-filters="sRGB">
<feFlood flood-opacity="0" result="BackgroundImageFix"/>
<feColorMatrix in="SourceAlpha" type="matrix" values="0 0 0 0 0 0 0 0 0 0 0 0 0 0 0 0 0 0 127 0" result="hardAlpha"/>
<feOffset dy="3.4662"/>
<feGaussianBlur stdDeviation="17.331"/>
<feComposite in2="hardAlpha" operator="out"/>
<feColorMatrix type="matrix" values="0 0 0 0 0.966667 0 0 0 0 0.966667 0 0 0 0 0.966667 0 0 0 1 0"/>
<feBlend mode="normal" in2="BackgroundImageFix" result="effect1_dropShadow_266_594"/>
<feBlend mode="normal" in="SourceGraphic" in2="effect1_dropShadow_266_594" result="shape"/>
</filter>
<filter id="filter2_d_266_594" x="269.432" y="54.5927" width="307.625" height="239.168" filterUnits="userSpaceOnUse" color-interpolation-filters="sRGB">
<feFlood flood-opacity="0" result="BackgroundImageFix"/>
<feColorMatrix in="SourceAlpha" type="matrix" values="0 0 0 0 0 0 0 0 0 0 0 0 0 0 0 0 0 0 127 0" result="hardAlpha"/>
<feOffset dy="3.4662"/>
<feGaussianBlur stdDeviation="17.331"/>
<feComposite in2="hardAlpha" operator="out"/>
<feColorMatrix type="matrix" values="0 0 0 0 0.966667 0 0 0 0 0.966667 0 0 0 0 0.966667 0 0 0 1 0"/>
<feBlend mode="normal" in2="BackgroundImageFix" result="effect1_dropShadow_266_594"/>
<feBlend mode="normal" in="SourceGraphic" in2="effect1_dropShadow_266_594" result="shape"/>
</filter>
<filter id="filter3_d_266_594" x="217.44" y="224.437" width="359.617" height="239.168" filterUnits="userSpaceOnUse" color-interpolation-filters="sRGB">
<feFlood flood-opacity="0" result="BackgroundImageFix"/>
<feColorMatrix in="SourceAlpha" type="matrix" values="0 0 0 0 0 0 0 0 0 0 0 0 0 0 0 0 0 0 127 0" result="hardAlpha"/>
<feOffset dy="3.4662"/>
<feGaussianBlur stdDeviation="17.331"/>
<feComposite in2="hardAlpha" operator="out"/>
<feColorMatrix type="matrix" values="0 0 0 0 0.966667 0 0 0 0 0.966667 0 0 0 0 0.966667 0 0 0 1 0"/>
<feBlend mode="normal" in2="BackgroundImageFix" result="effect1_dropShadow_266_594"/>
<feBlend mode="normal" in="SourceGraphic" in2="effect1_dropShadow_266_594" result="shape"/>
</filter>
<clipPath id="clip0_266_594">
<rect width="51.1265" height="44.1941" fill="white" transform="translate(510.336 64.125)"/>
</clipPath>
<clipPath id="clip1_266_594">
<rect width="33.7955" height="34.662" fill="white" transform="translate(19 68.4575)"/>
</clipPath>
<clipPath id="clip2_266_594">
<rect width="26.8631" height="26.8631" fill="white" transform="translate(498.203 412.479)"/>
</clipPath>
</defs>
</svg>
