<?xml version="1.0" encoding="UTF-8"?>
<!DOCTYPE svg PUBLIC "-//W3C//DTD SVG 1.1//EN" "http://www.w3.org/Graphics/SVG/1.1/DTD/svg11.dtd">
<!-- Creator: CorelDRAW 2019 (64-Bit) -->
<svg xmlns="http://www.w3.org/2000/svg" xml:space="preserve" width="0.291669in" height="0.323126in" version="1.1" style="shape-rendering:geometricPrecision; text-rendering:geometricPrecision; image-rendering:optimizeQuality; fill-rule:evenodd; clip-rule:evenodd"
viewBox="0 0 16.9 18.72"
 xmlns:xlink="http://www.w3.org/1999/xlink"
 xmlns:xodm="http://www.corel.com/coreldraw/odm/2003">
 <defs>
  <style type="text/css">
   <![CDATA[
    .fil12 {fill:url(#id0)}
    .fil10 {fill:url(#id1)}
    .fil14 {fill:url(#id2)}
    .fil13 {fill:url(#id3)}
    .fil1 {fill:url(#id4)}
    .fil11 {fill:url(#id5)}
    .fil9 {fill:url(#id6)}
    .fil2 {fill:url(#id7)}
    .fil4 {fill:url(#id8)}
    .fil7 {fill:url(#id9)}
    .fil8 {fill:url(#id10)}
    .fil6 {fill:url(#id11)}
    .fil5 {fill:url(#id12)}
    .fil3 {fill:url(#id13)}
    .fil0 {fill:url(#id14)}
   ]]>
  </style>
  <linearGradient id="id0" gradientUnits="userSpaceOnUse" x1="11.74" y1="9.42" x2="11.03" y2="8.79">
   <stop offset="0" style="stop-opacity:1; stop-color:#262E45"/>
   <stop offset="1" style="stop-opacity:1; stop-color:#E3C2A0"/>
  </linearGradient>
  <linearGradient id="id1" gradientUnits="userSpaceOnUse" xlink:href="#id0" x1="11.74" y1="8.21" x2="11.03" y2="7.58">
  </linearGradient>
  <linearGradient id="id2" gradientUnits="userSpaceOnUse" xlink:href="#id0" x1="14.47" y1="10.62" x2="13.99" y2="10">
  </linearGradient>
  <linearGradient id="id3" gradientUnits="userSpaceOnUse" xlink:href="#id0" x1="3" y1="10.62" x2="2.53" y2="10">
  </linearGradient>
  <linearGradient id="id4" gradientUnits="userSpaceOnUse" xlink:href="#id0" x1="2.92" y1="9.74" x2="0.57" y2="5.35">
  </linearGradient>
  <linearGradient id="id5" gradientUnits="userSpaceOnUse" xlink:href="#id0" x1="6.01" y1="9.42" x2="5.3" y2="8.79">
  </linearGradient>
  <linearGradient id="id6" gradientUnits="userSpaceOnUse" xlink:href="#id0" x1="6.01" y1="8.21" x2="5.3" y2="7.58">
  </linearGradient>
  <linearGradient id="id7" gradientUnits="userSpaceOnUse" xlink:href="#id0" x1="16.81" y1="9.74" x2="14.45" y2="5.35">
  </linearGradient>
  <linearGradient id="id8" gradientUnits="userSpaceOnUse" xlink:href="#id0" x1="5.36" y1="6.42" x2="3.47" y2="2.03">
  </linearGradient>
  <linearGradient id="id9" gradientUnits="userSpaceOnUse" xlink:href="#id0" x1="9.3" y1="7.61" x2="7.88" y2="6.98">
  </linearGradient>
  <linearGradient id="id10" gradientUnits="userSpaceOnUse" xlink:href="#id0" x1="9.3" y1="8.81" x2="7.88" y2="8.19">
  </linearGradient>
  <linearGradient id="id11" gradientUnits="userSpaceOnUse" xlink:href="#id0" x1="9.3" y1="6.4" x2="7.88" y2="5.77">
  </linearGradient>
  <linearGradient id="id12" gradientUnits="userSpaceOnUse" xlink:href="#id0" x1="9.3" y1="4.28" x2="7.88" y2="0.2">
  </linearGradient>
  <linearGradient id="id13" gradientUnits="userSpaceOnUse" xlink:href="#id0" x1="13.81" y1="6.42" x2="11.92" y2="2.03">
  </linearGradient>
  <linearGradient id="id14" gradientUnits="userSpaceOnUse" xlink:href="#id0" x1="15.53" y1="20.01" x2="3.74" y2="4.95">
  </linearGradient>
 </defs>
 <g id="Layer_x0020_1">
  <metadata id="CorelCorpID_0Corel-Layer"/>
  <g id="_2493536162080">
   <path class="fil0" d="M1.55 11.59l0 -0.11 2.15 0c0,0.41 0.06,0.72 0.17,1.07 0.05,0.15 0.08,0.27 0.14,0.42 1.09,2.73 4.51,3.91 7.07,2.2 1.21,-0.81 2.12,-2.24 2.12,-3.69l2.15 0c0,1.03 -0.09,0.76 -0.41,0.8 -0.31,0.03 -0.54,0.22 -0.69,0.44 -0.09,0.14 -0.11,0.23 -0.17,0.4 -0.24,0.69 -0.69,1.16 -0.34,1.78 0.09,0.15 0.2,0.22 0.29,0.35 -0.08,0.29 -1.03,1.16 -1.28,1.36 -0.09,0.07 -0.11,0.12 -0.23,0.15 -0.25,-0.17 -0.32,-0.41 -0.91,-0.41 -0.26,0 -0.88,0.35 -1.32,0.49 -0.16,0.05 -0.3,0.11 -0.43,0.21 -0.4,0.33 -0.32,0.85 -0.34,0.91 -0.04,0.11 -0.16,0.1 -0.48,0.12 -0.82,0.04 -0.42,0.02 -1.17,0 -0.13,-0 -0.18,-0.02 -0.27,-0.03 -0.14,-0.01 -0.18,0.03 -0.24,-0.06 -0.06,-0.09 0.08,-0.56 -0.33,-0.91 -0.16,-0.13 -1.56,-0.73 -1.76,-0.73 -0.22,0 -0.39,0.03 -0.57,0.14 -0.14,0.08 -0.21,0.19 -0.33,0.27 -0.28,-0.15 -0.97,-0.79 -1.19,-1.07 -0.07,-0.09 -0.11,-0.13 -0.17,-0.21 -0.07,-0.09 -0.12,-0.11 -0.15,-0.23 0.15,-0.22 0.41,-0.33 0.41,-0.91 0,-0.27 -0.21,-0.59 -0.3,-0.8 -0.22,-0.54 -0.32,-1.17 -0.99,-1.27 -0.33,-0.05 -0.44,0.23 -0.44,-0.69zm2.75 -0.11l8.3 0c-0.03,1.35 -1.13,2.96 -2.38,3.47 -1.27,0.51 -2.24,0.53 -3.51,0.01 -0.42,-0.17 -0.84,-0.49 -1.15,-0.81 -0.19,-0.2 -0.3,-0.3 -0.46,-0.52 -0.4,-0.53 -0.77,-1.44 -0.79,-2.15zm6.26 -4.71l1.51 0.41 0 3.7 -1.51 0 0 -4.11zm-2.41 3.21l0.6 0 0 0.91 -0.6 0 0 -0.91zm-3.32 -2.79c0.21,-0.02 0.54,-0.14 0.75,-0.2 0.24,-0.07 0.5,-0.16 0.76,-0.22l0 4.11 -1.51 0 0 -3.7zm2.72 2.49l0 1.21 -0.6 0 0 -6.04 3.02 0 0 6.04 -0.6 0 0 -1.21c0,-0.18 -0.12,-0.3 -0.3,-0.3l-1.21 0c-0.18,0 -0.3,0.12 -0.3,0.3zm-1.21 -3.55l-1.15 0.32c-0.47,0.13 -0.96,0.18 -0.96,0.51l0 3.92 -3.02 0c-0.35,0 -0.3,0.34 -0.3,0.57 0,0.37 0.05,0.73 0.1,1.03 0.08,0.52 0.27,0.37 0.77,0.4 0.41,0.03 0.41,0.34 0.52,0.65 0.34,0.95 0.6,0.8 -0.04,1.45 -0.29,0.3 0.02,0.57 0.42,1.07l0.88 0.89c0.43,0.37 0.79,0.72 1.08,0.46 0.5,-0.46 0.46,-0.53 1.05,-0.24 0.14,0.07 0.26,0.11 0.4,0.16 0.31,0.12 0.62,0.13 0.67,0.5 0.05,0.48 -0.13,0.72 0.37,0.8 0.92,0.15 1.71,0.15 2.62,0 0.52,-0.08 0.37,-0.26 0.4,-0.77 0.03,-0.41 0.34,-0.41 0.65,-0.52 0.95,-0.34 0.8,-0.6 1.45,0.04 0.3,0.29 0.57,-0.02 1.07,-0.42 0.49,-0.4 0.91,-0.89 1.28,-1.4 0.15,-0.2 0.27,-0.34 0.06,-0.56 -0.6,-0.64 -0.49,-0.44 -0.08,-1.45 0.12,-0.31 0.13,-0.62 0.5,-0.67 0.48,-0.05 0.72,0.13 0.8,-0.37 0.09,-0.55 0.11,-0.75 0.11,-1.33 0,-0.18 -0.12,-0.3 -0.3,-0.3l-3.02 0 0 -3.92c0,-0.24 -0.17,-0.29 -0.37,-0.35l-1.74 -0.48c0,-0.36 0,-0.73 0,-1.09 0,-0.38 0.08,-0.79 -0.3,-0.79l-3.62 0c-0.38,0 -0.3,0.41 -0.3,0.79 0,0.36 0,0.73 0,1.09z"/>
   <path class="fil1" d="M0.6 6.04c0,-0.38 0.6,-0.38 0.6,0 0,0.38 -0.6,0.38 -0.6,0zm-0.6 -0.08c0,0.98 0.9,1.15 1.38,0.85 0.19,-0.12 0.16,-0.13 0.36,-0.02 0.2,0.1 0.68,0.29 0.68,0.42l0 2.15 0.6 0 0 -2.41c0,-0.28 -0.31,-0.36 -0.52,-0.47 -0.18,-0.09 -0.52,-0.29 -0.69,-0.33 0,-1.47 -1.81,-1.19 -1.81,-0.19z"/>
   <path class="fil2" d="M15.69 6.04c0,-0.38 0.6,-0.38 0.6,0 0,0.38 -0.6,0.38 -0.6,0zm-0.6 0.11l-0.99 0.48c-0.13,0.06 -0.22,0.13 -0.22,0.31l0 2.41 0.6 0 0 -2.15c0,-0.14 0.1,-0.1 0.31,-0.21 0.43,-0.24 0.47,-0.34 0.7,-0.2 0.55,0.35 1.4,0.09 1.4,-0.83 0,-0.79 -1.11,-1.12 -1.59,-0.54 -0.17,0.2 -0.22,0.36 -0.22,0.72z"/>
   <path class="fil3" d="M12.67 2.72c0,-0.38 0.6,-0.38 0.6,0 0,0.38 -0.6,0.38 -0.6,0zm-0.6 -0.08c0,0.39 0.01,0.21 0.08,0.49 -0.17,0.11 -0.68,0.59 -0.68,0.79l0 2.11 0.6 0 0 -1.92c0,-0.12 0.41,-0.44 0.49,-0.57 0.28,0.07 0.1,0.08 0.49,0.08 0.46,0 0.83,-0.4 0.83,-0.98 0,-0.46 -0.4,-0.83 -0.98,-0.83 -0.41,0 -0.83,0.41 -0.83,0.83z"/>
   <path class="fil4" d="M3.62 2.72c0,-0.38 0.6,-0.38 0.6,0 0,0.38 -0.6,0.38 -0.6,0zm-0.6 -0.08c0,0.63 0.35,0.98 0.98,0.98 0.16,0 0.2,-0.04 0.34,-0.08 0.08,0.12 0.49,0.45 0.49,0.57l0 1.92 0.6 0 0 -2.11c0,-0.2 -0.52,-0.68 -0.68,-0.79 0.07,-0.28 0.08,-0.1 0.08,-0.49 0,-0.46 -0.4,-0.83 -0.98,-0.83 -0.41,0 -0.83,0.41 -0.83,0.83z"/>
   <path class="fil5" d="M8.15 0.91c0,-0.38 0.6,-0.38 0.6,0 0,0.38 -0.6,0.38 -0.6,0zm-0.6 -0.08c0,0.9 0.6,0.79 0.6,1.02l0 2.07 0.6 0 0 -2.07c0,-0.23 0.6,-0.11 0.6,-1.02 0,-0.21 -0.13,-0.44 -0.23,-0.56 -0.35,-0.37 -1,-0.37 -1.34,0 -0.11,0.11 -0.23,0.35 -0.23,0.56z"/>
   <polygon class="fil6" points="7.54,6.34 9.35,6.34 9.35,5.74 7.54,5.74 "/>
   <polygon class="fil7" points="7.54,7.55 9.35,7.55 9.35,6.95 7.54,6.95 "/>
   <polygon class="fil8" points="7.54,8.76 9.35,8.76 9.35,8.16 7.54,8.16 "/>
   <polygon class="fil9" points="5.13,8.16 6.04,8.16 6.04,7.55 5.13,7.55 "/>
   <polygon class="fil10" points="10.86,8.16 11.77,8.16 11.77,7.55 10.86,7.55 "/>
   <polygon class="fil11" points="5.13,9.36 6.04,9.36 6.04,8.76 5.13,8.76 "/>
   <polygon class="fil12" points="10.86,9.36 11.77,9.36 11.77,8.76 10.86,8.76 "/>
   <polygon class="fil13" points="2.41,10.57 3.02,10.57 3.02,9.97 2.41,9.97 "/>
   <polygon class="fil14" points="13.88,10.57 14.48,10.57 14.48,9.97 13.88,9.97 "/>
  </g>
 </g>
</svg>
