<?xml version="1.0" encoding="UTF-8"?>
<!DOCTYPE svg PUBLIC "-//W3C//DTD SVG 1.1//EN" "http://www.w3.org/Graphics/SVG/1.1/DTD/svg11.dtd">
<!-- Creator: CorelDRAW 2019 (64-Bit) -->
<svg xmlns="http://www.w3.org/2000/svg" xml:space="preserve" width="0.322945in" height="0.324358in" version="1.1" style="shape-rendering:geometricPrecision; text-rendering:geometricPrecision; image-rendering:optimizeQuality; fill-rule:evenodd; clip-rule:evenodd"
viewBox="0 0 26.04 26.16"
 xmlns:xlink="http://www.w3.org/1999/xlink"
 xmlns:xodm="http://www.corel.com/coreldraw/odm/2003">
 <defs>
  <style type="text/css">
   <![CDATA[
    .fil1 {fill:url(#id0)}
    .fil7 {fill:url(#id1)}
    .fil11 {fill:url(#id2)}
    .fil6 {fill:url(#id3)}
    .fil4 {fill:url(#id4)}
    .fil12 {fill:url(#id5)}
    .fil9 {fill:url(#id6)}
    .fil2 {fill:url(#id7)}
    .fil0 {fill:url(#id8)}
    .fil10 {fill:url(#id9)}
    .fil8 {fill:url(#id10)}
    .fil5 {fill:url(#id11)}
    .fil3 {fill:url(#id12)}
   ]]>
  </style>
  <linearGradient id="id0" gradientUnits="userSpaceOnUse" x1="6.22" y1="17.56" x2="6.22" y2="6.68">
   <stop offset="0" style="stop-opacity:1; stop-color:#262E45"/>
   <stop offset="1" style="stop-opacity:1; stop-color:#E3C2A0"/>
  </linearGradient>
  <linearGradient id="id1" gradientUnits="userSpaceOnUse" xlink:href="#id0" x1="12.6" y1="10.36" x2="12.6" y2="8.51">
  </linearGradient>
  <linearGradient id="id2" gradientUnits="userSpaceOnUse" xlink:href="#id0" x1="11.75" y1="23.21" x2="11.75" y2="22.75">
  </linearGradient>
  <linearGradient id="id3" gradientUnits="userSpaceOnUse" xlink:href="#id0" x1="19.73" y1="21.27" x2="19.73" y2="19.84">
  </linearGradient>
  <linearGradient id="id4" gradientUnits="userSpaceOnUse" xlink:href="#id0" x1="19.73" y1="5.22" x2="19.73" y2="3.77">
  </linearGradient>
  <linearGradient id="id5" gradientUnits="userSpaceOnUse" xlink:href="#id0" x1="5.19" y1="15.26" x2="5.19" y2="14.36">
  </linearGradient>
  <linearGradient id="id6" gradientUnits="userSpaceOnUse" xlink:href="#id0" x1="-0.02" y1="13.13" x2="-0.02" y2="12.67">
  </linearGradient>
  <linearGradient id="id7" gradientUnits="userSpaceOnUse" xlink:href="#id0" x1="5.02" y1="10.37" x2="5.02" y2="6.42">
  </linearGradient>
  <linearGradient id="id8" gradientUnits="userSpaceOnUse" xlink:href="#id0" x1="6.65" y1="10.02" x2="6.65" y2="0.29">
  </linearGradient>
  <linearGradient id="id9" gradientUnits="userSpaceOnUse" xlink:href="#id0" x1="22.66" y1="13.13" x2="22.66" y2="12.67">
  </linearGradient>
  <linearGradient id="id10" gradientUnits="userSpaceOnUse" xlink:href="#id0" x1="3.66" y1="21.27" x2="3.66" y2="19.84">
  </linearGradient>
  <linearGradient id="id11" gradientUnits="userSpaceOnUse" xlink:href="#id0" x1="3.66" y1="5.22" x2="3.66" y2="3.77">
  </linearGradient>
  <linearGradient id="id12" gradientUnits="userSpaceOnUse" xlink:href="#id0" x1="11.75" y1="4.85" x2="11.75" y2="3.47">
  </linearGradient>
 </defs>
 <g id="Layer_x0020_1">
  <metadata id="CorelCorpID_0Corel-Layer"/>
  <g id="_2495248645856">
   <path class="fil0" d="M11.76 13.65l0 -0.16 2.52 0c0,0.34 -0.02,0.26 -0.3,0.54 -0.42,0.42 -0.2,0.3 -1.54,0.3 -0.13,0 -0.68,-0.55 -0.68,-0.68zm4.2 -3.73c0.23,0.16 0.46,0.43 0.67,0.64 0.27,0.26 0.17,0.45 0.17,1.14 -0.35,-0.19 -0.43,-0.16 -0.84,-0.16l0 -1.63zm-6.72 1.79c0,-0.73 -0.1,-0.89 0.17,-1.14 0.21,-0.21 0.44,-0.48 0.67,-0.64l0 1.63c-0.29,-0.07 -0.59,0.04 -0.84,0.16zm-0.84 -1.16l0 2.63c0,0.14 0.34,0.5 0.65,0.29 0.43,-0.3 0.13,-1.02 1.03,-1.02 0,0.56 0.22,1.04 0.84,1.05 0,0.71 -0.07,0.49 0.56,1.12 0.37,0.36 0.28,0.25 0.28,0.93 -0.52,-0.14 -0.66,-0.58 -2.05,-0.26 -0.11,-0.39 -0.94,-0.94 -1.58,-0.94 -1.96,0 -1.48,1.09 -0.94,1.08 0.11,-0 0.23,-0.09 0.32,-0.13 0.9,-0.39 1.72,0.37 1.72,1.15 0,0.42 -0.6,1.26 0.21,1.26 0.32,0 0.41,-0.29 0.49,-0.56 0.11,-0.35 0.08,-0.59 0.08,-1.02 0.08,-0.02 0.37,-0.11 0.42,-0.11 0.48,0 0.87,0.25 1.08,0.55 0.43,0.63 -0.06,1.13 0.76,1.13 0.13,0 0.31,-0.19 0.31,-0.31l0 -2.2 0.84 0 0 2.2c0,0.29 0.52,0.46 0.75,0.18 0.24,-0.29 -0.06,-0.91 0.7,-1.35 0.41,-0.24 0.65,-0.19 1.07,-0.13 0,0.47 -0,1.13 0.31,1.47 0.29,0.33 0.75,-0.04 0.75,-0.22 0,-0.29 -0.54,-1.06 0.17,-1.77 0.34,-0.34 0.8,-0.46 1.27,-0.29 0.19,0.07 0.19,0.13 0.36,0.15 0.54,0.07 1.11,-1.08 -0.91,-1.08 -0.38,0 -0.71,0.15 -0.96,0.3 -0.2,0.12 -0.56,0.41 -0.62,0.64 -1.4,-0.33 -1.58,0.14 -2.05,0.26 0,-0.66 -0.08,-0.53 0.28,-0.88 0.64,-0.63 0.56,-0.39 0.56,-1.17 0.62,-0.01 0.84,-0.48 0.84,-1.05 0.88,-0.21 0.52,1.05 1.37,1.05 0.13,0 0.31,-0.19 0.31,-0.31l0 -2.68c0,-0.16 -1.18,-1.31 -1.4,-1.54 -0.12,-0.12 -0.24,-0.18 -0.27,-0.36 -0.12,-0.69 0.31,-5.19 -0.79,-5.19 -0.73,0 -0.26,1.01 -0.15,1.67 0.17,1.02 0.1,6.26 0.1,7.57l-4.2 0 0 -6.25c0,-2.26 0.69,-3.54 1.86,-5.07 0.09,-0.12 0.13,-0.15 0.24,-0.23 0.11,0.08 0.15,0.11 0.24,0.23l0.61 0.81c0.13,0.2 0.19,0.43 0.44,0.5 0.16,0.05 0.54,-0.03 0.54,-0.44 0,-0.32 -0.91,-1.44 -1.22,-1.77 -0.72,-0.78 -0.83,-0.44 -1.63,0.45 -0.28,0.31 -0.56,0.74 -0.79,1.1 -1.28,2.05 -1.14,4 -1.14,6.42 0,0.44 -0.28,0.56 -0.8,1.09 -0.3,0.29 -0.88,0.77 -0.88,1.06z"/>
   <path class="fil1" d="M16.75 6.78c0,0.4 0.71,0.68 1.22,1.19 0.74,0.75 1.04,1.19 1.51,2.11 0.9,1.77 0.81,3.68 0.2,5.51 -0.46,1.38 -1.52,2.6 -2.67,3.42 -0.64,0.45 -1.03,1.22 -1.05,2.05l-5.88 0c0,-1.46 -0.77,-1.8 -1.45,-2.38 -0.36,-0.31 -0.62,-0.56 -0.95,-0.89 -0.13,-0.13 -0.29,-0.34 -0.4,-0.49 -0.61,-0.89 -0.98,-0.2 -0.98,-0.02 0,0.25 0.44,0.76 0.62,0.96 0.48,0.54 0.67,0.8 1.33,1.29 1.47,1.09 0.69,1.42 1.12,2.03 0.15,0.21 0.41,0.37 0.71,0.39 0,0.79 -0.06,1.81 0,2.57 0.07,0.99 1.19,0.79 1.78,0.79 0.05,0.6 1.15,1.2 1.91,0.59 0.17,-0.13 0.38,-0.35 0.4,-0.59 0.54,0 1.78,0.21 1.78,-0.84 0,-1.02 0.14,-1.31 -0.52,-1.31 -0.44,0 -0.31,0.81 -0.31,1.26 -1.26,0 -1.55,-0.16 -1.69,0.41 -0.14,0.59 -0.7,0.56 -0.83,0 -0.14,-0.57 -0.41,-0.42 -1.68,-0.42l0 -2.52 4.2 0c0,0.4 -0.1,0.95 0.42,0.95 0.52,0 0.42,-0.54 0.42,-0.95 1.01,0 0.85,-1.03 1,-1.46 0.2,-0.55 0.77,-0.89 1.26,-1.27 0.26,-0.2 0.64,-0.58 0.84,-0.84 0.6,-0.78 0.86,-1.03 1.3,-2.06 1.19,-2.77 0.76,-5.86 -1.12,-8.19 -0.22,-0.27 -0.37,-0.41 -0.61,-0.65 -0.3,-0.3 -1.05,-1.06 -1.51,-1.06 -0.15,0 -0.37,0.26 -0.37,0.42z"/>
   <path class="fil2" d="M5.04 12.76c0,0.49 -0.06,0.73 0.53,0.73 0.37,0 0.34,-0.63 0.36,-0.9 0.32,-4.2 3.36,-5.36 3.36,-5.77 0,-0.26 -0.18,-0.53 -0.42,-0.53 -0.62,0 -2.2,1.83 -2.62,2.52 -0.58,0.97 -1.21,2.39 -1.21,3.94z"/>
   <path class="fil3" d="M11.76 4.57c0,0.73 0.61,0.56 0.75,0.39 0.15,-0.18 0.05,-0.08 0.1,-0.32 0.22,-1.01 1.45,0.23 0.44,0.44 -0.31,0.07 -0.46,0.04 -0.46,0.54 0,0.55 1.68,0.52 1.68,-1.05 0,-1.53 -2.52,-1.53 -2.52,0z"/>
   <path class="fil4" d="M19.74 5.94c0,0.29 0.18,0.42 0.42,0.42 0.28,0 0.46,-0.27 0.62,-0.43 0.25,-0.25 1.59,-1.48 1.59,-1.72 0,-0.23 -0.21,-0.47 -0.42,-0.47 -0.3,0 -0.89,0.7 -1.19,1.01 -0.31,0.31 -1.01,0.9 -1.01,1.19z"/>
   <path class="fil5" d="M3.68 4.15c0,0.3 0.7,0.89 1.01,1.19 0.31,0.31 0.9,1.01 1.19,1.01 0.25,0 0.42,-0.17 0.42,-0.42 0,-0.3 -0.68,-0.86 -0.98,-1.17 -0.19,-0.19 -0.95,-1.04 -1.17,-1.04 -0.23,0 -0.47,0.21 -0.47,0.42z"/>
   <path class="fil6" d="M19.74 20.22c0,0.31 0.97,1.15 1.22,1.4 0.21,0.21 0.44,0.47 0.65,0.66 0.31,0.27 0.75,0.05 0.75,-0.28 0,-0.3 -0.7,-0.89 -1.01,-1.19 -0.31,-0.31 -0.9,-1.01 -1.19,-1.01 -0.25,0 -0.42,0.17 -0.42,0.42z"/>
   <path class="fil7" d="M12.6 8.77l0 2.73c0,0.42 0.84,0.42 0.84,0l0 -2.73c0,-0.42 -0.84,-0.42 -0.84,0z"/>
   <path class="fil8" d="M3.68 21.95c0,0.38 0.41,0.59 0.72,0.35l1.31 -1.31c0.18,-0.18 0.59,-0.48 0.59,-0.77 0,-0.25 -0.17,-0.42 -0.42,-0.42 -0.3,0 -0.86,0.68 -1.17,0.98 -0.19,0.19 -1.04,0.95 -1.04,1.17z"/>
   <path class="fil9" d="M-0 12.97c0,0.2 0.04,0.53 0.32,0.53l2.73 0c0.42,0 0.42,-0.84 0,-0.84l-2.73 0c-0.13,0 -0.32,0.19 -0.32,0.31z"/>
   <path class="fil10" d="M22.68 12.97c0,0.2 0.04,0.53 0.31,0.53l2.73 0c0.42,0 0.42,-0.84 0,-0.84l-2.73 0c-0.13,0 -0.31,0.19 -0.31,0.31z"/>
   <path class="fil11" d="M11.76 23.05c0,0.2 0.04,0.53 0.31,0.53l1.89 0c0.42,0 0.42,-0.84 0,-0.84l-1.89 0c-0.13,0 -0.31,0.19 -0.31,0.31z"/>
   <path class="fil12" d="M5.2 14.76c0,0.1 0.14,1.21 0.63,1.21 0.78,0 0.34,-0.9 0.28,-1.12 -0.09,-0.36 -0.12,-0.5 -0.49,-0.5 -0.25,0 -0.42,0.17 -0.42,0.42z"/>
  </g>
 </g>
</svg>
