<?xml version="1.0" encoding="UTF-8"?>
<!DOCTYPE svg PUBLIC "-//W3C//DTD SVG 1.1//EN" "http://www.w3.org/Graphics/SVG/1.1/DTD/svg11.dtd">
<!-- Creator: CorelDRAW 2019 (64-Bit) -->
<svg xmlns="http://www.w3.org/2000/svg" xml:space="preserve" width="0.0666693in" height="0.0666654in" version="1.1" style="shape-rendering:geometricPrecision; text-rendering:geometricPrecision; image-rendering:optimizeQuality; fill-rule:evenodd; clip-rule:evenodd"
viewBox="0 0 1.62 1.62"
 xmlns:xlink="http://www.w3.org/1999/xlink"
 xmlns:xodm="http://www.corel.com/coreldraw/odm/2003">
 <defs>
  <style type="text/css">
   <![CDATA[
    .fil0 {fill:url(#id0)}
    .fil7 {fill:url(#id1)}
    .fil2 {fill:url(#id2)}
    .fil6 {fill:url(#id3)}
    .fil5 {fill:url(#id4)}
    .fil3 {fill:url(#id5)}
    .fil1 {fill:url(#id6)}
    .fil4 {fill:url(#id7)}
   ]]>
  </style>
  <linearGradient id="id0" gradientUnits="userSpaceOnUse" x1="0.91" y1="1.58" x2="-0.75" y2="-0.49">
   <stop offset="0" style="stop-opacity:1; stop-color:#262E45"/>
   <stop offset="1" style="stop-opacity:1; stop-color:#E3C2A0"/>
  </linearGradient>
  <linearGradient id="id1" gradientUnits="userSpaceOnUse" xlink:href="#id0" x1="0.9" y1="1.58" x2="-0.75" y2="-0.49">
  </linearGradient>
  <linearGradient id="id2" gradientUnits="userSpaceOnUse" xlink:href="#id0" x1="0.91" y1="1.58" x2="-0.75" y2="-0.48">
  </linearGradient>
  <linearGradient id="id3" gradientUnits="userSpaceOnUse" xlink:href="#id0" x1="0.91" y1="1.58" x2="-0.75" y2="-0.48">
  </linearGradient>
  <linearGradient id="id4" gradientUnits="userSpaceOnUse" xlink:href="#id0" x1="0.91" y1="1.58" x2="-0.75" y2="-0.48">
  </linearGradient>
  <linearGradient id="id5" gradientUnits="userSpaceOnUse" xlink:href="#id0" x1="0.91" y1="1.58" x2="-0.75" y2="-0.48">
  </linearGradient>
  <linearGradient id="id6" gradientUnits="userSpaceOnUse" xlink:href="#id0" x1="0.91" y1="1.58" x2="-0.75" y2="-0.48">
  </linearGradient>
  <linearGradient id="id7" gradientUnits="userSpaceOnUse" xlink:href="#id0" x1="0.91" y1="1.58" x2="-0.75" y2="-0.49">
  </linearGradient>
 </defs>
 <g id="Layer_x0020_1">
  <metadata id="CorelCorpID_0Corel-Layer"/>
  <g id="_1482168039328">
   <path class="fil0" d="M0.05 1.49c0.02,0.01 0.04,0.03 0.07,0.03l0.7 0c0.03,0 0.05,-0.02 0.07,-0.02 -0.01,0.04 -0.03,0.08 -0.08,0.08l-0.67 0c-0.05,0 -0.08,-0.03 -0.08,-0.08zm1.46 -0.29c0,-0.03 0.05,-0.03 0.05,0 0,0.03 -0.05,0.03 -0.05,0zm0 -0.26c0,-0.03 0.05,-0.03 0.05,0 0,0.03 -0.05,0.03 -0.05,0zm0 -0.26c0,-0.03 0.05,-0.03 0.05,0 0,0.03 -0.05,0.03 -0.05,0zm-0.29 -0.07c0,-0.02 0.02,-0.04 0.03,-0.08l0.08 0c-0.03,0.04 -0.08,0.07 -0.12,0.08zm-0.18 -0.08l0.16 0c-0,0.01 -0.01,0.02 -0.01,0.03 -0.04,0.1 -0.09,0.1 -0.13,0 -0,-0.01 -0.01,-0.02 -0.01,-0.03zm-0.14 0l0.08 0c0.01,0.05 0.03,0.07 0.03,0.08 -0.04,-0.02 -0.09,-0.04 -0.12,-0.08zm0.12 -0.14l0 -0.02 0.2 0c0,0.06 -0.01,0.08 -0.01,0.1l-0.18 0c-0,-0.01 -0,-0.03 -0.01,-0.04 -0,-0.02 -0,-0.03 -0,-0.05zm0.35 0.09l-0.1 0c0,-0.02 0.01,-0.06 0.01,-0.1l0.13 0c0,0.02 -0.01,0.04 -0.01,0.06 -0,0.01 -0.01,0.05 -0.03,0.05zm-0.53 -0.1l0.13 0c0,0.04 0.01,0.08 0.01,0.1l-0.1 0c-0.01,0 -0.01,-0.01 -0.02,-0.02 -0.01,-0.03 -0.02,-0.06 -0.02,-0.09zm0.18 -0.07c0,-0.04 0.01,-0.07 0.01,-0.09l0.18 0c0,0.02 0.01,0.05 0.01,0.1l-0.2 0 0 -0.02zm-0.24 0.03c0,0.09 0.02,0.14 0.07,0.22 0.01,0.02 0.04,0.04 0.04,0.05l0 0.79c0,0.05 -0.04,0.08 -0.08,0.08l-0.67 0c-0.05,0 -0.08,-0.03 -0.08,-0.08l0 -1.12 0.74 0c0,0.02 -0.01,0.04 -0.01,0.07zm0.49 -0.12l0.1 0c0.02,0 0.04,0.09 0.04,0.1l-0.13 0c0,-0.02 -0,-0.03 -0,-0.05 -0,-0.02 -0.01,-0.04 -0.01,-0.05zm-0.3 0.1l-0.13 0c0,-0.01 0.02,-0.1 0.04,-0.1l0.1 0c-0,0.02 -0.01,0.03 -0.01,0.05 -0,0.02 -0,0.03 -0,0.06zm0.16 -0.26c0.02,0 0.04,0.03 0.05,0.04 0.02,0.03 0.02,0.04 0.03,0.06l-0.16 0c0.01,-0.02 0.01,-0.03 0.03,-0.06 0.01,-0.01 0.03,-0.04 0.05,-0.04zm-0.31 0.16l-0.76 0c0,-0.06 -0.01,-0.16 0.08,-0.16l0.67 0c0.04,0 0.06,0.02 0.07,0.04 0,0 0,0 0,0 0,0.01 0,0 0,0.01 -0,0.01 -0.01,0.02 -0.02,0.03 -0.02,0.02 -0.05,0.06 -0.05,0.09zm0.41 -0.14c0.04,0.02 0.09,0.04 0.12,0.08l-0.08 0c-0.01,-0.02 -0.01,-0.04 -0.02,-0.06l-0.01 -0.02zm-0.24 0.08l-0.08 0c0.03,-0.04 0.08,-0.07 0.12,-0.08 -0,0.02 -0.02,0.04 -0.03,0.08zm-0.99 -0.04l0 1.38c0,0.06 0.06,0.12 0.12,0.12l0.7 0c0.06,0 0.12,-0.06 0.12,-0.12l0 -0.43 0.22 0c0.01,0 0.13,0.12 0.15,0.14 0.02,0.02 0.01,0.02 0.04,0.02 0.04,-0 0.08,-0 0.12,-0 0.02,0.04 0.04,0.05 0.08,0.05 0.04,0 0.07,-0.03 0.07,-0.08 0,-0.07 -0.1,-0.1 -0.14,-0.04 -0.01,0.01 -0.01,0.02 -0.02,0.02 -0.15,0 -0.1,0.02 -0.19,-0.08 -0.01,-0.01 -0.07,-0.08 -0.08,-0.08l-0.24 0 0 -0.05 0.52 0c0.01,0 0.01,0.01 0.01,0.01 0.04,0.06 0.15,0.05 0.15,-0.05 0,-0.06 -0.08,-0.1 -0.13,-0.05 -0.02,0.02 -0.02,0.03 -0.03,0.03l-0.52 0 0 -0.05 0.24 0c0.02,0 0.15,-0.16 0.17,-0.16l0.11 0c0.02,0 0.01,0.05 0.09,0.05 0.04,0 0.07,-0.03 0.07,-0.08 0,-0.06 -0.07,-0.1 -0.13,-0.06 -0.01,0.01 -0.02,0.02 -0.03,0.04 -0.04,0 -0.08,0 -0.11,-0 -0.04,-0 -0.03,-0.01 -0.07,0.04 -0.02,0.02 -0.04,0.04 -0.06,0.06 -0.01,0.01 -0.05,0.06 -0.06,0.06l-0.22 0 0 -0.18c0.08,0.04 0.11,0.05 0.2,0.05 0.1,0 0.2,-0.06 0.26,-0.14 0.03,-0.04 0.06,-0.12 0.06,-0.18 0,-0.07 -0,-0.11 -0.03,-0.17 -0.04,-0.07 -0.09,-0.12 -0.16,-0.16 -0.08,-0.04 -0.18,-0.04 -0.27,-0.01 -0.05,0.02 -0.05,0.03 -0.08,0.04 -0.01,-0.03 -0.06,-0.07 -0.1,-0.07l-0.7 0c-0.06,0 -0.12,0.06 -0.12,0.12z"/>
   <path class="fil1" d="M0.26 0.58c0,-0.04 0.03,-0.08 0.06,-0.11 0.08,-0.08 0.23,-0.06 0.28,0.05 0.01,0.02 0.02,0.04 0.02,0.07 0.02,-0 0.06,-0.02 0.1,0 0.09,0.05 0.07,0.2 -0.06,0.2l-0.39 0c-0.07,0 -0.11,-0.04 -0.12,-0.1 -0.01,-0.05 0.04,-0.11 0.11,-0.11zm-0.16 0.09l0 0.03c0,0.07 0.07,0.14 0.14,0.14l0.44 0c0.07,0 0.14,-0.07 0.14,-0.15 0,-0.05 -0.01,-0.1 -0.05,-0.12 -0.04,-0.03 -0.05,-0.04 -0.12,-0.04 -0.01,-0.03 -0.03,-0.06 -0.05,-0.08 -0.01,-0.01 -0.02,-0.01 -0.02,-0.02 -0.1,-0.09 -0.3,-0.07 -0.37,0.1 -0.01,0.03 -0.02,0.01 -0.07,0.05 -0.02,0.02 -0.05,0.07 -0.05,0.11z"/>
   <path class="fil2" d="M0.26 0.97l0.04 0.04c0.03,-0.02 0.05,-0.05 0.11,-0.06 0.07,-0.01 0.13,-0 0.19,0.03 0.01,0.01 0.02,0.02 0.03,0.03l0.04 -0.04c-0.03,-0.02 -0.04,-0.04 -0.08,-0.06 -0.08,-0.04 -0.17,-0.04 -0.25,-0 -0.04,0.02 -0.06,0.04 -0.08,0.06z"/>
   <path class="fil3" d="M0.44 1.18c0,-0.03 0.05,-0.03 0.05,0 0,0.03 -0.05,0.03 -0.05,0zm-0.06 0c0,0.07 0.08,0.11 0.14,0.05 0.05,-0.05 0.01,-0.13 -0.05,-0.13l-0.02 0c-0.04,0 -0.07,0.04 -0.07,0.08z"/>
   <polygon class="fil4" points="0.31,0.16 0.63,0.16 0.63,0.1 0.31,0.1 "/>
   <polygon class="fil5" points="0.37,1.41 0.63,1.41 0.63,1.36 0.37,1.36 "/>
   <path class="fil6" d="M0.34 1.04c0,0.02 0.03,0.03 0.04,0.04 0.02,-0.01 0.05,-0.04 0.09,-0.04 0.05,0 0.07,0.02 0.09,0.04l0.04 -0.04c-0.05,-0.03 -0.05,-0.05 -0.14,-0.05 -0.03,0 -0.07,0.02 -0.09,0.03 -0.01,0.01 -0.01,0.01 -0.02,0.02z"/>
   <path class="fil7" d="M0.1 0.13c0,0.04 0.05,0.04 0.05,0 0,-0.04 -0.05,-0.04 -0.05,0z"/>
  </g>
 </g>
</svg>
