<?xml version="1.0" encoding="UTF-8"?>
<!DOCTYPE svg PUBLIC "-//W3C//DTD SVG 1.1//EN" "http://www.w3.org/Graphics/SVG/1.1/DTD/svg11.dtd">
<!-- Creator: CorelDRAW 2019 (64-Bit) -->
<svg xmlns="http://www.w3.org/2000/svg" xml:space="preserve" width="0.062in" height="0.0619567in" version="1.1" style="shape-rendering:geometricPrecision; text-rendering:geometricPrecision; image-rendering:optimizeQuality; fill-rule:evenodd; clip-rule:evenodd"
viewBox="0 0 1.59 1.59"
 xmlns:xlink="http://www.w3.org/1999/xlink"
 xmlns:xodm="http://www.corel.com/coreldraw/odm/2003">
 <defs>
  <style type="text/css">
   <![CDATA[
    .fil4 {fill:url(#id0)}
    .fil3 {fill:url(#id1)}
    .fil2 {fill:url(#id2)}
    .fil0 {fill:url(#id3)}
    .fil1 {fill:url(#id4)}
   ]]>
  </style>
  <linearGradient id="id0" gradientUnits="userSpaceOnUse" x1="0.54" y1="0.81" x2="0.5" y2="0.69">
   <stop offset="0" style="stop-opacity:1; stop-color:#262E45"/>
   <stop offset="1" style="stop-opacity:1; stop-color:#E3C2A0"/>
  </linearGradient>
  <linearGradient id="id1" gradientUnits="userSpaceOnUse" xlink:href="#id0" x1="0.6" y1="1.28" x2="0.56" y2="1.13">
  </linearGradient>
  <linearGradient id="id2" gradientUnits="userSpaceOnUse" xlink:href="#id0" x1="0.65" y1="0.35" x2="0.61" y2="0.13">
  </linearGradient>
  <linearGradient id="id3" gradientUnits="userSpaceOnUse" xlink:href="#id0" x1="0.89" y1="1.55" x2="-0.74" y2="-0.48">
  </linearGradient>
  <linearGradient id="id4" gradientUnits="userSpaceOnUse" xlink:href="#id0" x1="0.53" y1="0.61" x2="0.49" y2="0.35">
  </linearGradient>
 </defs>
 <g id="Layer_x0020_1">
  <metadata id="CorelCorpID_0Corel-Layer"/>
  <g id="_1482154733856">
   <path class="fil0" d="M0.96 1.08c-0.03,0 -0.02,-0.02 -0.01,-0.05 0.02,0 0.04,0.01 0.04,0.03 -0.02,0.01 -0.03,0.02 -0.03,0.02zm0.02 -0.16l0.09 0.06c-0,0.01 -0.01,0.01 -0.02,0.02 -0.01,0.01 -0.01,0.01 -0.02,0.02 -0.01,-0.01 -0.02,-0.02 -0.03,-0.02 -0.01,-0.01 -0.02,-0.01 -0.04,-0.02 0,-0.01 0.01,-0.04 0.02,-0.05zm0.13 0.02c-0.03,-0.01 -0.09,-0.06 -0.11,-0.07 0,-0.01 0.11,-0.17 0.12,-0.19l0.08 -0.13c0.01,-0.01 0.01,-0.02 0.02,-0.03l0.1 -0.16c0.01,0.01 0.02,0.01 0.03,0.02 0.01,0.01 0.02,0.01 0.03,0.02 0.01,0.01 0.04,0.03 0.05,0.03 -0.01,0.01 -0.01,0.02 -0.02,0.03l-0.31 0.47zm-1.06 -0.57c0,-0.05 0.05,-0.05 0.1,-0.07l0.13 -0.04c0,0.02 0.01,0.06 0.01,0.08l0.03 0.24c0.01,0.1 0.03,0.21 0.04,0.32l0.06 0.48c0.01,0.05 0.05,0.09 0.1,0.09 0.03,0 0.1,-0.01 0.13,-0.02l0.14 -0.02c-0.01,0.01 -0.36,0.11 -0.36,0.11 -0.01,0 -0.03,-0.01 -0.03,-0.01 -0.01,-0.01 -0.01,-0.02 -0.02,-0.03l-0.09 -0.3c-0.06,-0.2 -0.12,-0.4 -0.18,-0.6 -0.01,-0.03 -0.07,-0.2 -0.07,-0.23zm1.33 -0.07c0.01,0 0.04,0.02 0.05,0.03 0.01,0.01 0.02,0.01 0.02,0.02 0.01,0.01 0.02,0.01 0.03,0.02 -0,0.01 -0.01,0.02 -0.02,0.03l-0.05 -0.03c-0.02,-0.01 -0.03,-0.02 -0.05,-0.03 0,-0.01 0.01,-0.02 0.02,-0.03zm0.09 -0.09c0.05,0 0.07,0.03 0.07,0.07 0,0.02 -0.01,0.02 -0.02,0.04 -0.02,-0.01 -0.04,-0.02 -0.05,-0.03 -0.02,-0.01 -0.04,-0.02 -0.05,-0.04 0.01,-0.02 0.02,-0.04 0.06,-0.04zm-1.14 -0.01c0,-0.02 0.01,-0.03 0.02,-0.04 0.02,-0.01 0.32,-0.05 0.35,-0.05 0.04,-0.01 0.37,-0.05 0.41,-0.05 0.01,0 0.03,0.01 0.03,0.02 0.01,0.01 0.01,0.02 0.01,0.04l0.04 0.33c0.01,0.05 0.01,0.02 -0.04,0.11 -0.03,0.04 -0.06,0.09 -0.08,0.13 -0.03,0 -0.05,0 -0.08,0.01l-0.15 0.02c-0.02,0 -0.06,0 -0.06,0.03 0,0.04 0.06,0.03 0.11,0.02l0.14 -0.02c-0.02,0.03 -0.04,0.06 -0.06,0.09 -0.02,0.04 -0.04,0.05 -0.05,0.1 -0.02,0 -0.03,0 -0.05,0.01 -0.02,0 -0.03,0 -0.05,0.01l-0.25 0.03c-0.06,0.01 -0.04,0.05 -0.02,0.05 0.01,0 0.13,-0.01 0.15,-0.02l0.2 -0.03c-0,0.04 -0.05,0.09 -0,0.13 0.03,0.03 0.07,0.03 0.11,-0l0.12 -0.1c0.01,-0.01 0.05,-0.07 0.06,-0.09 0.01,-0.02 0.05,-0.08 0.06,-0.09 0,0.07 0.05,0.36 0.05,0.44 0,0.04 -0.05,0.04 -0.07,0.05l-0.5 0.07c-0.04,0 -0.06,0.01 -0.1,0.01 -0.18,0.03 -0.14,0.04 -0.18,-0.26 -0.02,-0.1 -0.03,-0.21 -0.04,-0.31 -0.01,-0.1 -0.03,-0.21 -0.04,-0.31 -0.01,-0.04 -0.04,-0.28 -0.04,-0.31zm-0.05 0.01l-0.17 0.05c-0.06,0.02 -0.11,0.03 -0.11,0.12 0,0.02 0.04,0.13 0.05,0.16 0.02,0.05 0.03,0.11 0.05,0.16 0.02,0.05 0.03,0.11 0.05,0.16l0.05 0.16c0.05,0.16 0.1,0.32 0.14,0.48 0.01,0.04 0.02,0.07 0.06,0.09 0.05,0.02 0.1,-0.01 0.16,-0.02 0.02,-0.01 0.04,-0.01 0.06,-0.02 0.02,-0.01 0.04,-0.01 0.06,-0.02l0.24 -0.07c0.03,-0.01 0.22,-0.07 0.24,-0.07 0.02,-0 0.05,-0.01 0.07,-0.01 0.02,-0 0.05,-0 0.07,-0.01 0.08,-0.03 0.07,-0.11 0.06,-0.18l-0.05 -0.37c-0.01,-0.07 -0.01,-0.05 0.02,-0.09l0.25 -0.38c0.07,-0.12 -0.04,-0.22 -0.14,-0.18 -0.04,0.02 -0.06,0.06 -0.08,0.09 -0.01,0.02 -0.03,0.05 -0.05,0.07 -0.01,0.02 -0.04,0.06 -0.05,0.07l-0.02 -0.11c-0.01,-0.05 -0.02,-0.19 -0.04,-0.23 -0.04,-0.08 -0.14,-0.05 -0.2,-0.04l-0.45 0.06c-0.05,0.01 -0.18,0.02 -0.22,0.04 -0.03,0.02 -0.04,0.04 -0.04,0.09z"/>
   <path class="fil1" d="M0.48 0.53c0,0.05 0.05,0.03 0.1,0.02l0.38 -0.05c0.03,-0 0.05,-0.01 0.08,-0.01 0.02,-0 0.06,-0 0.06,-0.03 0,-0.04 -0.04,-0.03 -0.06,-0.03 -0.13,0.02 -0.28,0.04 -0.41,0.05 -0.03,0 -0.06,0.01 -0.08,0.01 -0.02,0 -0.07,0 -0.07,0.03z"/>
   <path class="fil2" d="M0.6 0.28c0,0.05 0.07,0.02 0.14,0.01l0.23 -0.03c0.04,-0.01 0.1,-0 0.1,-0.03 0,-0.02 -0.02,-0.03 -0.04,-0.03 -0.02,0 -0.04,0.01 -0.07,0.01l-0.25 0.03c-0.04,0.01 -0.11,0.01 -0.11,0.04z"/>
   <path class="fil3" d="M0.57 1.23c0,0.04 0.06,0.02 0.09,0.02l0.12 -0.01c0.02,-0 0.04,-0 0.04,-0.03 0,-0.03 -0.03,-0.03 -0.05,-0.02 -0.03,0 -0.05,0.01 -0.07,0.01 -0.03,0 -0.05,0.01 -0.07,0.01 -0.02,0 -0.05,0 -0.05,0.03z"/>
   <path class="fil4" d="M0.67 0.75c0,-0.05 -0.07,-0.02 -0.13,-0.02 -0.05,0.01 -0.04,0.05 -0.01,0.05 0.01,0 0.04,-0 0.05,-0.01 0.02,-0 0.03,-0 0.05,-0.01 0.01,-0 0.03,-0.01 0.03,-0.03z"/>
  </g>
 </g>
</svg>
