<?xml version="1.0" encoding="UTF-8"?>
<!DOCTYPE svg PUBLIC "-//W3C//DTD SVG 1.1//EN" "http://www.w3.org/Graphics/SVG/1.1/DTD/svg11.dtd">
<!-- Creator: CorelDRAW 2019 (64-Bit) -->
<svg xmlns="http://www.w3.org/2000/svg" xml:space="preserve" width="0.0666693in" height="0.0635748in" version="1.1" style="shape-rendering:geometricPrecision; text-rendering:geometricPrecision; image-rendering:optimizeQuality; fill-rule:evenodd; clip-rule:evenodd"
viewBox="0 0 1.85 1.77"
 xmlns:xlink="http://www.w3.org/1999/xlink"
 xmlns:xodm="http://www.corel.com/coreldraw/odm/2003">
 <defs>
  <style type="text/css">
   <![CDATA[
    .fil6 {fill:url(#id0)}
    .fil4 {fill:url(#id1)}
    .fil7 {fill:url(#id2)}
    .fil3 {fill:url(#id3)}
    .fil8 {fill:url(#id4)}
    .fil0 {fill:url(#id5)}
    .fil5 {fill:url(#id6)}
    .fil1 {fill:url(#id7)}
    .fil2 {fill:url(#id8)}
   ]]>
  </style>
  <linearGradient id="id0" gradientUnits="userSpaceOnUse" x1="0.88" y1="1.01" x2="0.57" y2="0.79">
   <stop offset="0" style="stop-opacity:1; stop-color:#262E45"/>
   <stop offset="1" style="stop-opacity:1; stop-color:#E3C2A0"/>
  </linearGradient>
  <linearGradient id="id1" gradientUnits="userSpaceOnUse" xlink:href="#id0" x1="0.35" y1="0.4" x2="0.1" y2="0.08">
  </linearGradient>
  <linearGradient id="id2" gradientUnits="userSpaceOnUse" xlink:href="#id0" x1="0.64" y1="0.96" x2="0.33" y2="0.81">
  </linearGradient>
  <linearGradient id="id3" gradientUnits="userSpaceOnUse" xlink:href="#id0" x1="0.67" y1="0.4" x2="0.42" y2="0.08">
  </linearGradient>
  <linearGradient id="id4" gradientUnits="userSpaceOnUse" xlink:href="#id0" x1="0.55" y1="1.42" x2="0.48" y2="1.32">
  </linearGradient>
  <linearGradient id="id5" gradientUnits="userSpaceOnUse" xlink:href="#id0" x1="0.98" y1="1.76" x2="-0.81" y2="-0.57">
  </linearGradient>
  <linearGradient id="id6" gradientUnits="userSpaceOnUse" xlink:href="#id0" x1="0.37" y1="1.01" x2="0.06" y2="0.79">
  </linearGradient>
  <linearGradient id="id7" gradientUnits="userSpaceOnUse" xlink:href="#id0" x1="1.07" y1="0.47" x2="0.91" y2="0.01">
  </linearGradient>
  <linearGradient id="id8" gradientUnits="userSpaceOnUse" xlink:href="#id0" x1="1.41" y1="1.51" x2="0.95" y2="0.94">
  </linearGradient>
 </defs>
 <g id="Layer_x0020_1">
  <metadata id="CorelCorpID_0Corel-Layer"/>
  <g id="_1482154739488">
   <path class="fil0" d="M1.08 1.05l0.05 -0.06c0.02,0.01 0.03,0.03 0.05,0.04 0.03,0.01 0.06,-0.02 0.12,-0.04 0.05,-0.01 0.04,-0.04 0.04,-0.09 0.12,0 0.07,-0 0.08,0.06 0,0.02 0.02,0.03 0.04,0.03 0.02,0.01 0.04,0.01 0.05,0.02 0.02,0.01 0.03,0.02 0.06,0.02 0.03,0 0.04,-0.04 0.06,-0.04 0.01,0 0.05,0.04 0.05,0.05 -0.01,0.02 -0.04,0.03 -0.04,0.06 0,0.02 0.03,0.05 0.04,0.1 0.02,0.05 0.01,0.05 0.09,0.05 0.01,0.02 0.01,0.05 0,0.08 -0.07,0 -0.08,-0 -0.09,0.05 -0.03,0.09 -0.07,0.09 -0.02,0.13 0.01,0.01 0.02,0.01 0.02,0.03l-0.05 0.06c-0.05,-0.04 -0.03,-0.07 -0.11,-0.02 -0.05,0.02 -0.08,0.02 -0.09,0.04 -0.01,0.02 -0.01,0.04 -0.01,0.07 -0.02,0.01 -0.05,0.01 -0.08,0 0,-0.11 -0.01,-0.06 -0.1,-0.11 -0.02,-0.01 -0.03,-0.02 -0.05,-0.02 -0.02,0 -0.04,0.03 -0.06,0.04 -0.02,-0.01 -0.02,-0.01 -0.03,-0.02 -0.01,-0.01 -0.02,-0.02 -0.02,-0.03 0,-0.02 0.04,-0.02 0.04,-0.07 0,-0.01 -0.02,-0.04 -0.04,-0.08 -0.02,-0.06 -0.01,-0.06 -0.09,-0.06 0,-0.12 -0,-0.07 0.06,-0.08 0.03,-0.01 0.03,-0.04 0.05,-0.09 0.04,-0.09 0.01,-0.06 -0.02,-0.11zm0.77 0.21l0 0.07c-0,0.02 -0.01,0.03 -0.02,0.05 -0.01,0.01 -0,0 -0.01,0.01 -0.02,0.02 -0.03,0.02 -0.06,0.02l-0.03 0.07c0.01,0.01 0.02,0.02 0.02,0.03 0.02,0.06 -0.01,0.09 -0.04,0.12 -0.02,0.02 -0.03,0.04 -0.07,0.05 -0.04,0.01 -0.05,-0.01 -0.08,-0.03 -0.01,0 -0.02,0.01 -0.03,0.01 -0.01,0.01 -0.02,0.01 -0.03,0.01 0,0.03 -0,0.05 -0.02,0.07 -0.01,0.02 -0.03,0.03 -0.06,0.03 -0.07,0 -0.16,0.02 -0.16,-0.1 -0.02,-0 -0.05,-0.02 -0.07,-0.03 -0.03,0.04 -0.08,0.05 -0.12,0.01 -0.03,-0.02 -0.07,-0.07 -0.07,-0.1 0,-0.05 0.01,-0.04 0.03,-0.07 -0.01,-0.01 -0.02,-0.05 -0.03,-0.07 -0.08,0 -0.16,0 -0.24,0 -0.05,0 -0.09,0.01 -0.1,-0.02 -0.01,-0.02 0,-0.04 0.03,-0.05 0.02,-0 0.18,-0 0.21,-0 0,-0.07 -0.01,-0.16 0.1,-0.16 0,-0.01 0.02,-0.05 0.03,-0.07 -0.03,-0.02 -0.03,-0.05 -0.03,-0.08 0,-0.02 0.07,-0.12 0.13,-0.12 0.04,0 0.05,0.02 0.07,0.03 0.01,-0.01 0.05,-0.02 0.07,-0.03 0,-0.04 0.01,-0.05 0.02,-0.07 0.01,-0.01 0.04,-0.03 0.06,-0.03 0.07,0 0.14,-0.01 0.14,0.1 0.02,0 0.05,0.02 0.07,0.03 0.03,-0.02 0.02,-0.03 0.08,-0.03l0 -0.37 -1.57 0 0 0.63c0,0.05 0.01,0.08 0.03,0.11 0.03,0.04 0.05,0.04 0.09,0.04 0.04,-0 0.09,0 0.13,0 0.02,0 0.05,-0 0.07,0 0.05,0.01 0.03,0.07 -0,0.07l-0.22 0c-0.05,0 -0.09,-0.03 -0.11,-0.06 -0.02,-0.03 -0.05,-0.08 -0.05,-0.13l0 -1.05c0,-0.09 0.08,-0.18 0.16,-0.18l1.4 0c0.09,0 0.15,0.09 0.16,0.18 0,0.03 0,0.7 0,0.77 -0,0.05 0.01,0.03 0.03,0.06 0.04,0.06 -0.01,0.1 -0.02,0.12l0.03 0.07c0.05,0 0.09,0.03 0.09,0.08 0,0 0,0.01 0,0.01zm-1.78 -1.04c0,-0.05 0.01,-0.08 0.03,-0.12 0.02,-0.03 0.05,-0.04 0.1,-0.04l1.33 0c0.05,0 0.06,0.01 0.09,0.03 0.02,0.02 0.03,0.05 0.03,0.09l0 0.29 -1.57 0 0 -0.25z"/>
   <path class="fil1" d="M1.42 0.33l-0.34 0c-0.05,0 -0.06,-0.09 0.01,-0.09l0.33 0c0.05,0 0.06,0.09 0,0.09zm-0.45 -0.06l0 0.02c0,0.06 0.06,0.12 0.12,0.12l0.34 0c0.06,0 0.12,-0.06 0.12,-0.11 0,-0.04 -0,-0.07 -0.04,-0.1 -0.02,-0.02 -0.05,-0.03 -0.08,-0.03l-0.33 0c-0.03,0 -0.06,0.02 -0.08,0.03 -0.01,0.01 -0.04,0.05 -0.04,0.08z"/>
   <path class="fil2" d="M1.24 1.3c0,-0.11 0.13,-0.21 0.25,-0.11 0.09,0.07 0.04,0.26 -0.09,0.26 -0.05,0 -0.09,-0.01 -0.12,-0.04 -0.02,-0.03 -0.04,-0.06 -0.04,-0.1zm-0.08 0c0,0.19 0.24,0.3 0.38,0.16 0.18,-0.18 -0.02,-0.46 -0.25,-0.36 -0.03,0.01 -0.05,0.02 -0.07,0.05 -0.04,0.04 -0.07,0.1 -0.07,0.16z"/>
   <path class="fil3" d="M0.66 0.33c-0.08,0 -0.06,-0.09 -0.01,-0.09 0.07,0 0.06,0.09 0.01,0.09zm-0.13 -0.05c0,0.04 0.01,0.06 0.03,0.08 0.05,0.05 0.13,0.05 0.18,0.01 0.08,-0.07 0.03,-0.21 -0.09,-0.21 -0.06,0 -0.12,0.06 -0.12,0.12z"/>
   <path class="fil4" d="M0.29 0.28c0,-0.06 0.1,-0.06 0.1,0 0,0.06 -0.1,0.06 -0.1,0zm0.04 0.12c0.08,0 0.13,-0.06 0.13,-0.12 0,-0.15 -0.24,-0.17 -0.25,-0 -0,0.06 0.05,0.13 0.12,0.13z"/>
   <path class="fil5" d="M0.21 0.95c0,0.03 0.04,0.06 0.06,0.09 0.01,0.02 0.06,0.07 0.08,0.07 0.02,0 0.04,-0.02 0.04,-0.04 0,-0.02 -0.03,-0.05 -0.05,-0.07 -0.01,-0.01 -0.01,-0.02 -0.03,-0.03 -0.01,-0.01 -0.02,-0.02 -0.03,-0.03 0.03,-0.05 0.14,-0.12 0.08,-0.15 -0.04,-0.03 -0.07,0.03 -0.11,0.07 -0.01,0.01 -0.01,0.01 -0.02,0.03 -0.02,0.02 -0.04,0.03 -0.04,0.06z"/>
   <path class="fil6" d="M0.72 0.82c0,0.03 0.03,0.05 0.04,0.07 0.01,0.01 0.02,0.02 0.03,0.03 0.01,0.01 0.02,0.02 0.03,0.03 -0.02,0.04 -0.1,0.1 -0.1,0.13 0,0.01 0.03,0.07 0.08,0.01l0.07 -0.08c0.05,-0.04 0.03,-0.07 -0.01,-0.11l-0.04 -0.05c-0.01,-0.01 -0.01,-0.01 -0.02,-0.02 -0.01,-0.01 -0.01,-0.02 -0.02,-0.02 -0.03,-0.01 -0.05,0.02 -0.05,0.03z"/>
   <path class="fil7" d="M0.48 1.1c0,0.02 0.01,0.03 0.04,0.03 0.03,0 0.04,-0.04 0.04,-0.07l0.07 -0.27c0,-0.02 -0.02,-0.04 -0.04,-0.04 -0.04,0 -0.04,0.04 -0.04,0.07l-0.04 0.18c-0,0.01 -0.01,0.03 -0.01,0.05 -0,0.01 -0.01,0.03 -0.01,0.05z"/>
   <path class="fil8" d="M0.51 1.38c0,0.08 0.12,0.03 0.06,-0.02 -0.02,-0.02 -0.06,-0.01 -0.06,0.02z"/>
  </g>
 </g>
</svg>
