<?xml version="1.0" encoding="UTF-8"?>
<!DOCTYPE svg PUBLIC "-//W3C//DTD SVG 1.1//EN" "http://www.w3.org/Graphics/SVG/1.1/DTD/svg11.dtd">
<!-- Creator: CorelDRAW 2019 (64-Bit) -->
<svg xmlns="http://www.w3.org/2000/svg" xml:space="preserve" width="0.0624961in" height="0.0625315in" version="1.1" style="shape-rendering:geometricPrecision; text-rendering:geometricPrecision; image-rendering:optimizeQuality; fill-rule:evenodd; clip-rule:evenodd"
viewBox="0 0 1.64 1.64"
 xmlns:xlink="http://www.w3.org/1999/xlink"
 xmlns:xodm="http://www.corel.com/coreldraw/odm/2003">
 <defs>
  <style type="text/css">
   <![CDATA[
    .fil2 {fill:url(#id0)}
    .fil3 {fill:url(#id1)}
    .fil1 {fill:url(#id2)}
    .fil0 {fill:url(#id3)}
   ]]>
  </style>
  <linearGradient id="id0" gradientUnits="userSpaceOnUse" x1="1.35" y1="0.93" x2="1.13" y2="0.72">
   <stop offset="0" style="stop-opacity:1; stop-color:#262E45"/>
   <stop offset="1" style="stop-opacity:1; stop-color:#E3C2A0"/>
  </linearGradient>
  <linearGradient id="id1" gradientUnits="userSpaceOnUse" xlink:href="#id0" x1="0.71" y1="1.19" x2="0.67" y2="1.09">
  </linearGradient>
  <linearGradient id="id2" gradientUnits="userSpaceOnUse" xlink:href="#id0" x1="1.32" y1="1.07" x2="0.91" y2="0.52">
  </linearGradient>
  <linearGradient id="id3" gradientUnits="userSpaceOnUse" xlink:href="#id0" x1="0.92" y1="1.6" x2="-0.76" y2="-0.49">
  </linearGradient>
 </defs>
 <g id="Layer_x0020_1">
  <metadata id="CorelCorpID_0Corel-Layer"/>
  <g id="_1482506342688">
   <path class="fil0" d="M0.33 1.56c0,-0.01 0.02,-0.03 0.03,-0.03l0.73 0c0.04,0 0.04,0.05 0,0.05l-0.73 0c-0.02,0 -0.03,-0.01 -0.03,-0.03zm0.3 -0.27l0.22 0 0 0.19 -0.22 0 0 -0.19zm0.41 0.02l0 -0.05 0.55 0c0,0.03 0.01,0.08 -0.03,0.08l-0.49 0c-0.02,0 -0.03,-0.01 -0.03,-0.03zm-0.98 -0.11l0 -0.13 0.93 0 0 0.16 -0.89 0c-0.02,0 -0.03,-0.01 -0.03,-0.03zm0.98 -0.68l0.55 0 0 0.68 -0.55 0 0 -0.68zm-0.64 0.15c0,-0.01 0.03,-0.03 0.04,-0.03 0.01,0.01 0.08,0.1 0.09,0.11 0.01,0.01 0.03,0.03 0.03,0.04 0,0.01 -0.02,0.06 -0.06,-0 -0.01,-0.01 -0.02,-0.03 -0.03,-0.04l-0.06 -0.08zm-0.12 0.01c-0.1,0 -0.1,-0.1 -0.06,-0.14 0.02,-0.01 0.07,-0.06 0.08,-0.07l0.05 0.06c0.01,0.02 0.04,0.05 0.05,0.06 -0.01,0 -0.02,0.01 -0.03,0.02 -0.03,0.02 -0.06,0.06 -0.09,0.06zm0.76 -0.26c0,-0.02 0.01,-0.03 0.03,-0.03l0.49 0c0.04,0 0.03,0.05 0.03,0.08l-0.55 0 0 -0.05zm-0.59 0.15l-0.05 -0.07c-0.01,-0.01 -0.05,-0.06 -0.05,-0.07l0.06 -0.09c0.06,-0.08 0.14,-0.19 0.19,-0.26 0.01,0.01 0.12,0.14 0.13,0.15l0.11 0.13c0.01,0.01 0.01,0.01 0.02,0.02l-0.3 0.13c-0.02,0.01 -0.03,0.01 -0.05,0.02 -0.02,0.01 -0.04,0.01 -0.05,0.02zm-0.31 0.03c0,0.1 0.1,0.16 0.18,0.13 0.01,-0.01 0.03,-0.02 0.04,-0.02 0.01,0.01 0.01,0.01 0.02,0.02l0.06 0.07c0.02,0.03 0.05,0.08 0.1,0.08 0.06,0 0.12,-0.06 0.06,-0.14 -0.02,-0.03 -0.09,-0.11 -0.11,-0.13 0.01,-0 0.02,-0.01 0.03,-0.01 0.01,-0 0.02,-0.01 0.03,-0.01 0.11,-0.05 0.23,-0.1 0.34,-0.15 0.08,-0.03 0.04,-0.05 -0.03,-0.14 -0.01,-0.01 -0.02,-0.02 -0.03,-0.04 0.02,-0 0.05,-0.04 0.05,-0.06l0.51 -0c0.05,0 0.04,0.03 0.04,0.14l-0.36 0c-0.04,0 -0.08,0.04 -0.08,0.08l0 0.61 -0.93 0 0 -0.79c0,-0.04 0.03,-0.03 0.07,-0.03l0.32 0 -0.04 0.05c-0.01,0.02 -0.02,0.03 -0.04,0.05l-0.07 0.1c-0.02,0.02 -0.07,0.06 -0.1,0.08 -0.04,0.03 -0.06,0.06 -0.06,0.11zm0.62 -0.42c0.02,-0.03 0.06,-0.03 0.06,0 0,0.02 -0.02,0.03 -0.03,0.03 -0.01,-0.02 -0.01,-0.01 -0.03,-0.04zm-0.76 0.03l0 1c0,0.04 0.03,0.08 0.07,0.08l0.5 0 0 0.19 -0.23 0c-0.04,0 -0.08,0.04 -0.08,0.09 0,0.04 0.04,0.08 0.08,0.08l0.75 0c0.04,0 0.08,-0.04 0.08,-0.09 0,-0.04 -0.04,-0.08 -0.08,-0.08l-0.2 0 0 -0.19 0.08 0 0 0.03c0,0.04 0.04,0.08 0.08,0.08l0.51 0c0.04,0 0.08,-0.04 0.08,-0.08l0 -0.92c0,-0.04 -0.04,-0.08 -0.08,-0.08l-0.09 0 0 -0.12c0,-0.03 -0.01,-0.04 -0.03,-0.06 -0.02,-0.02 -0.04,-0.02 -0.07,-0.02l-0.52 0c-0.01,-0.01 -0.01,-0.02 -0.03,-0.03 -0.03,-0.02 -0.05,-0.02 -0.08,-0 -0.01,0.01 -0.02,0.02 -0.03,0.02l-0.08 -0.1c-0.02,-0.02 -0.04,-0.05 -0.07,-0.01l-0.06 0.09c-0.03,0.04 -0.01,0.03 -0.07,0.03l-0.3 0c-0.03,0 -0.07,-0 -0.09,0.01 -0.02,0.01 -0.04,0.03 -0.04,0.06z"/>
   <path class="fil1" d="M1.15 0.98l0 -0.24c0,-0.02 0.01,-0.03 0.03,-0.03l0.27 0c0.02,0 0.03,0.01 0.03,0.03l0 0.24c0,0.02 -0.01,0.03 -0.03,0.03l-0.27 0c-0.02,0 -0.03,-0.01 -0.03,-0.03zm-0.05 -0.25l0 0.26c0,0.04 0.04,0.08 0.08,0.08l0.29 0c0.04,0 0.08,-0.04 0.08,-0.08l0 -0.26c0,-0.04 -0.04,-0.08 -0.08,-0.08l-0.29 0c-0.04,0 -0.08,0.04 -0.08,0.08z"/>
   <path class="fil2" d="M1.28 0.88l0 -0.04c0.02,0 0.02,0.01 0.03,0.02l0 0.01c-0.01,0 -0.01,0.01 -0.03,0.02zm-0.05 -0.1l0 0.16c0,0.02 0.02,0.03 0.04,0.02l0.09 -0.06c0.01,-0.01 0.04,-0.02 0.04,-0.04 0,-0.02 -0.02,-0.03 -0.03,-0.04 -0.02,-0.01 -0.03,-0.02 -0.04,-0.03 -0.02,-0.02 -0.05,-0.04 -0.07,-0.03 -0.01,0 -0.02,0.01 -0.02,0.02z"/>
   <path class="fil3" d="M0.68 1.15c0,0.04 0.04,0.03 0.08,0.03 0.04,0 0.04,-0.05 0,-0.05 -0.04,0 -0.08,-0.01 -0.08,0.03z"/>
  </g>
 </g>
</svg>
