<?xml version="1.0" encoding="UTF-8"?>
<!DOCTYPE svg PUBLIC "-//W3C//DTD SVG 1.1//EN" "http://www.w3.org/Graphics/SVG/1.1/DTD/svg11.dtd">
<!-- Creator: CorelDRAW 2019 (64-Bit) -->
<svg xmlns="http://www.w3.org/2000/svg" xml:space="preserve" width="0.0666693in" height="0.0594055in" version="1.1" style="shape-rendering:geometricPrecision; text-rendering:geometricPrecision; image-rendering:optimizeQuality; fill-rule:evenodd; clip-rule:evenodd"
viewBox="0 0 1.93 1.72"
 xmlns:xlink="http://www.w3.org/1999/xlink"
 xmlns:xodm="http://www.corel.com/coreldraw/odm/2003">
 <defs>
  <style type="text/css">
   <![CDATA[
    .fil3 {fill:url(#id0)}
    .fil4 {fill:url(#id1)}
    .fil2 {fill:url(#id2)}
    .fil1 {fill:url(#id3)}
    .fil0 {fill:url(#id4)}
   ]]>
  </style>
  <linearGradient id="id0" gradientUnits="userSpaceOnUse" x1="0.18" y1="1.08" x2="0.16" y2="0.96">
   <stop offset="0" style="stop-opacity:1; stop-color:#262E45"/>
   <stop offset="1" style="stop-opacity:1; stop-color:#E3C2A0"/>
  </linearGradient>
  <linearGradient id="id1" gradientUnits="userSpaceOnUse" xlink:href="#id0" x1="0.18" y1="0.95" x2="0.15" y2="0.84">
  </linearGradient>
  <linearGradient id="id2" gradientUnits="userSpaceOnUse" xlink:href="#id0" x1="1.69" y1="0.55" x2="1.43" y2="0.23">
  </linearGradient>
  <linearGradient id="id3" gradientUnits="userSpaceOnUse" xlink:href="#id0" x1="0.98" y1="0.83" x2="0.34" y2="0.07">
  </linearGradient>
  <linearGradient id="id4" gradientUnits="userSpaceOnUse" xlink:href="#id0" x1="0.95" y1="1.77" x2="-0.76" y2="-0.61">
  </linearGradient>
 </defs>
 <g id="Layer_x0020_1">
  <metadata id="CorelCorpID_0Corel-Layer"/>
  <g id="_1482694882176">
   <path class="fil0" d="M0.78 1.44l0.36 0 0 0.22 -0.36 0 0 -0.22zm-0.34 -0.93c0,0.11 0.03,0.21 0.09,0.29 0.01,0.01 0.02,0.02 0.03,0.04 0.02,0.03 0.07,0.07 0.1,0.09 0.03,0.02 0.05,0.03 0.08,0.05 0.17,0.08 0.38,0.07 0.53,-0.05 0.03,-0.02 0.05,-0.04 0.07,-0.06l0.03 -0.03c0.03,-0.03 0.05,-0.08 0.07,-0.12 0.13,-0.3 -0.06,-0.51 -0.06,-0.53l0.42 0c0.04,-0 0.08,-0 0.08,0.06l0 0.87 -0.22 0c-0.05,0 -0.04,0.06 -0,0.06l0.22 0 0 0.14c0,0.03 -0.02,0.05 -0.05,0.05l-1.72 0c-0.03,0 -0.05,-0.02 -0.05,-0.05l0 -0.14 1.45 0c0.04,0 0.05,-0.06 -0.01,-0.06l-1.44 0 0 -0.87c0,-0.02 0.01,-0.04 0.02,-0.05 0.01,-0.01 0.03,-0.01 0.06,-0.01l0.28 0c0.03,0 0.05,0 0.05,-0.02 0.01,-0.02 -0,-0.04 -0.03,-0.04l-0.35 0c-0.05,0 -0.09,0.05 -0.09,0.09l0 1.12c0,0.03 0.02,0.05 0.03,0.07 0.02,0.02 0.04,0.03 0.08,0.03l0.61 0 0 0.22c-0.06,0 -0.12,-0.01 -0.11,0.03 0,0.02 0.01,0.03 0.03,0.03l0.65 0c0.04,0 0.04,-0.06 0,-0.06l-0.08 0 0 -0.22 0.61 0c0.06,0 0.11,-0.04 0.11,-0.1l0 -1.11c0,-0.05 -0.04,-0.09 -0.11,-0.09l-0.47 0c-0.03,0 -0.02,0 -0.04,-0.01 -0.02,-0.02 -0.04,-0.04 -0.07,-0.04 -0.01,0 -0.02,0.02 -0.02,0.02 0,0.03 0.04,0.04 0.07,0.08 0.08,0.08 0.14,0.19 0.14,0.31 0,0.09 -0.01,0.14 -0.04,0.22 -0.07,0.14 -0.21,0.24 -0.36,0.26 -0.11,0.01 -0.21,-0.01 -0.31,-0.08 -0.04,-0.03 -0.06,-0.05 -0.09,-0.08 -0.08,-0.08 -0.11,-0.19 -0.11,-0.31 0,-0.14 0.08,-0.29 0.2,-0.37 0.11,-0.07 0.25,-0.1 0.38,-0.07 0.01,0 0.03,0.01 0.04,0.01 0.03,0 0.04,-0.04 0.01,-0.06 -0.12,-0.04 -0.28,-0.03 -0.39,0.03 -0.08,0.04 -0.12,0.08 -0.17,0.14 -0.01,0.01 -0.02,0.03 -0.03,0.04 -0.02,0.02 -0.03,0.05 -0.04,0.08 -0.02,0.05 -0.05,0.13 -0.05,0.21z"/>
   <path class="fil1" d="M1 0.58l0 0.01 -0.06 0 -0 -0.08 0.06 0c0,0.03 -0,0.04 -0,0.06zm0.12 0.01l-0.06 0c0,-0.02 0.01,-0.05 0.01,-0.08l0.07 0c-0.01,0.02 -0.01,0.05 -0.02,0.08zm-0.32 -0.08l0.08 0c0,0.02 0,0.03 0,0.06l0 0.02 -0.06 0c-0,-0.02 -0.01,-0.06 -0.02,-0.08zm0.2 -0.06l-0.08 0 0 -0.02c0,-0.03 -0,-0.03 -0,-0.06l0.09 0c-0,0.02 -0.01,0.06 -0.01,0.08zm0.14 0l-0.08 0c0,-0.03 0,-0.04 0,-0.06l0 -0.01 0.09 0c-0,0.01 -0.01,0.06 -0.02,0.08zm-0.37 -0.08l0.09 0c0,0.01 0.01,0.06 0.01,0.08l-0.08 0c-0,-0.01 -0.01,-0.07 -0.02,-0.08zm-0.14 -0.12c0,0.04 0.04,0.03 0.05,0.03 0.02,0 0.02,0.02 0.03,0.06l0.07 0.37c0.01,0.04 0.01,0.04 0.05,0.04 -0.03,0.04 -0,0.09 0.04,0.09 0.03,0 0.07,-0.03 0.04,-0.09l0.11 0c-0,0 -0.03,0.07 0.02,0.09 0.04,0.01 0.1,-0.02 0.06,-0.09 0.02,0 0.03,0 0.04,-0.01 0.01,-0.01 0.01,-0.03 0,-0.04 -0.01,-0.02 -0.07,-0.01 -0.1,-0.01 -0.07,0 -0.15,0 -0.22,0 -0,-0.02 -0.01,-0.04 -0.01,-0.06l0.29 0c0.04,0 0.05,-0 0.06,-0.04 0.01,-0.07 0.04,-0.18 0.05,-0.24 0,-0.03 -0.01,-0.05 -0.05,-0.05l-0.41 0c0,-0.02 -0.01,-0.04 -0.02,-0.06 -0.03,-0.03 -0.05,-0.03 -0.09,-0.03 -0.01,0 -0.02,0.02 -0.02,0.02z"/>
   <path class="fil2" d="M1.65 0.34l0 0.06c-0.04,0 -0.1,-0.01 -0.1,0.03 0,0.04 0.05,0.03 0.1,0.03 0,0.05 -0.01,0.1 0.03,0.1 0.04,0 0.03,-0.05 0.03,-0.1 0.04,0 0.1,0.01 0.1,-0.03 0,-0.04 -0.05,-0.03 -0.1,-0.03 0,-0.05 0.01,-0.1 -0.03,-0.1 -0.01,0 -0.03,0.02 -0.03,0.03z"/>
   <path class="fil3" d="M0.15 1.03c0,0.02 0.01,0.03 0.03,0.03l0.32 0c0.03,0 0.04,-0.06 -0,-0.06l-0.32 0c-0.01,0 -0.02,0.02 -0.02,0.03z"/>
   <path class="fil4" d="M0.15 0.9c0,0.01 0.01,0.03 0.02,0.03l0.18 0c0.03,0 0.04,-0.06 -0.01,-0.06l-0.17 0c-0.02,0 -0.03,0.01 -0.03,0.03z"/>
  </g>
 </g>
</svg>
