<?xml version="1.0" encoding="UTF-8"?>
<!DOCTYPE svg PUBLIC "-//W3C//DTD SVG 1.1//EN" "http://www.w3.org/Graphics/SVG/1.1/DTD/svg11.dtd">
<!-- Creator: CorelDRAW 2019 (64-Bit) -->
<svg xmlns="http://www.w3.org/2000/svg" xml:space="preserve" width="0.0666693in" height="0.0666496in" version="1.1" style="shape-rendering:geometricPrecision; text-rendering:geometricPrecision; image-rendering:optimizeQuality; fill-rule:evenodd; clip-rule:evenodd"
viewBox="0 0 1.83 1.83"
 xmlns:xlink="http://www.w3.org/1999/xlink"
 xmlns:xodm="http://www.corel.com/coreldraw/odm/2003">
 <defs>
  <style type="text/css">
   <![CDATA[
    .fil6 {fill:url(#id0)}
    .fil4 {fill:url(#id1)}
    .fil3 {fill:url(#id2)}
    .fil5 {fill:url(#id3)}
    .fil2 {fill:url(#id4)}
    .fil7 {fill:url(#id5)}
    .fil0 {fill:url(#id6)}
    .fil1 {fill:url(#id7)}
   ]]>
  </style>
  <linearGradient id="id0" gradientUnits="userSpaceOnUse" x1="1.18" y1="1.06" x2="0.93" y2="0.83">
   <stop offset="0" style="stop-opacity:1; stop-color:#262E45"/>
   <stop offset="1" style="stop-opacity:1; stop-color:#E3C2A0"/>
  </linearGradient>
  <linearGradient id="id1" gradientUnits="userSpaceOnUse" xlink:href="#id0" x1="0.95" y1="1.04" x2="0.6" y2="0.72">
  </linearGradient>
  <linearGradient id="id2" gradientUnits="userSpaceOnUse" xlink:href="#id0" x1="0.65" y1="1.06" x2="0.29" y2="0.69">
  </linearGradient>
  <linearGradient id="id3" gradientUnits="userSpaceOnUse" xlink:href="#id0" x1="0.31" y1="1.7" x2="0.01" y2="1.32">
  </linearGradient>
  <linearGradient id="id4" gradientUnits="userSpaceOnUse" xlink:href="#id0" x1="1.6" y1="0.4" x2="1.18" y2="0.12">
  </linearGradient>
  <linearGradient id="id5" gradientUnits="userSpaceOnUse" xlink:href="#id0" x1="0.29" y1="1.58" x2="0.24" y2="1.51">
  </linearGradient>
  <linearGradient id="id6" gradientUnits="userSpaceOnUse" xlink:href="#id0" x1="1.02" y1="1.78" x2="-0.85" y2="-0.55">
  </linearGradient>
  <linearGradient id="id7" gradientUnits="userSpaceOnUse" xlink:href="#id0" x1="0.6" y1="1.67" x2="0.57" y2="1.4">
  </linearGradient>
 </defs>
 <g id="Layer_x0020_1">
  <metadata id="CorelCorpID_0Corel-Layer"/>
  <g id="_1482694878336">
   <path class="fil0" d="M0.15 0.56l0 0.74c0,0.03 0.03,0.05 0.06,0.05l0.24 0c0.05,0 0.04,-0.06 0.01,-0.06l-0.25 0 0 -0.72 1.06 0c0.01,0 0.02,0.01 0.02,0.02 0.05,0.04 0.13,0.08 0.2,0.08l0 0.63 -0.91 0c-0.04,0 -0.04,0.06 0.01,0.06l0.9 0c0.07,0 0.06,-0.08 0.06,-0.13l0 -0.56c0.02,-0 0.03,-0.01 0.05,-0.01 0.02,-0 0.03,-0.01 0.05,-0.02 0,0.01 0,1.1 -0,1.11 -0,0.01 -0.01,0.02 -0.02,0.02l-1.53 0c-0.01,0 -0.02,-0.02 -0.02,-0.03l0 -1.3 1.13 0c0.01,0.03 0.02,0.05 0.03,0.07l-0.97 0c-0.02,0 -0.05,-0 -0.07,0 -0.01,0.01 -0.03,0.02 -0.03,0.04zm1.68 -0.25l0 0.04c-0,0.06 -0.03,0.13 -0.07,0.18 -0,0.01 -0.01,0.01 -0.01,0.01 -0.03,0.03 -0.01,0.01 -0.04,0.04 -0.01,0.01 -0.02,0.02 -0.03,0.02l0 0.98c0,0.05 0,0.11 0,0.16 -0,0.04 -0.04,0.07 -0.09,0.07l-1.51 0c-0.04,0 -0.09,-0.03 -0.09,-0.08l0 -1.47c0,-0.02 0.01,-0.04 0.03,-0.05 0.04,-0.03 0.15,-0.02 0.22,-0.02l0.95 0c0.01,-0.03 0.05,-0.09 0.07,-0.11 0.01,-0 0.01,-0.01 0.02,-0.01 0.03,-0.03 0.07,0.02 0.03,0.04 -0.01,0.01 -0.02,0.01 -0.03,0.02 -0.06,0.07 -0.07,0.11 -0.07,0.21 0,0.12 0.12,0.26 0.27,0.26 0.07,0 0.16,-0.03 0.2,-0.08 0.07,-0.08 0.1,-0.21 0.05,-0.31 -0.04,-0.09 -0.13,-0.16 -0.24,-0.16 -0.08,0 -0.12,0.03 -0.12,-0.02 0,-0.05 0.22,-0.07 0.35,0.05 0.06,0.06 0.1,0.14 0.1,0.22zm-0.66 0.01l0 0.06 -1.11 0c0,-0.04 -0.01,-0.13 0.02,-0.13l1.1 0c-0,0.02 -0.01,0.04 -0.01,0.07z"/>
   <path class="fil1" d="M0.87 1.53l-0.31 0c-0.04,0 -0.04,0.05 0,0.05l0.31 0c0,0.06 0.06,0.04 0.06,0.01l0 -0.01 0.59 0c0.04,0 0.03,-0.05 0,-0.05l-0.59 0c0,-0.05 -0.06,-0.05 -0.06,0z"/>
   <path class="fil2" d="M1.47 0.17c-0.06,0.01 -0.12,0.11 -0.01,0.17 0.03,0.01 0.14,0.03 0.1,0.09 -0.02,0.03 -0.07,0.02 -0.1,0.01 -0.01,-0.01 -0.03,-0.03 -0.04,-0.03 -0.05,0 -0.04,0.07 0.06,0.09 0,0.02 -0,0.06 0.03,0.06 0.03,0 0.03,-0.02 0.03,-0.05 0.03,-0.02 0.09,-0.02 0.09,-0.1 0,-0.1 -0.16,-0.08 -0.16,-0.14 0,-0.02 0.02,-0.03 0.04,-0.03 0.05,0 0.09,0.06 0.11,0.01 0.01,-0.03 -0.02,-0.04 -0.04,-0.05 -0.01,-0.01 -0.03,-0.01 -0.04,-0.01 0,-0.01 0,-0.02 -0,-0.03 -0,-0.02 -0.02,-0.02 -0.03,-0.02 -0.03,0 -0.03,0.03 -0.03,0.06z"/>
   <path class="fil3" d="M0.6 0.85c0.01,0.01 0.01,0.02 0.01,0.03l0.02 0.06c0,0.01 0.01,0.02 0.01,0.03l-0.1 0 0.05 -0.12zm-0.06 0.18l0.12 0c0.02,0 0.02,0.08 0.06,0.07 0.04,-0.01 0.01,-0.06 -0.01,-0.11l-0.08 -0.21c-0.01,-0.03 -0.05,-0.05 -0.07,0.01l-0.09 0.24c-0.01,0.02 -0.02,0.04 -0.01,0.06 0.01,0.02 0.04,0.02 0.05,-0 0.02,-0.03 0.01,-0.05 0.03,-0.05z"/>
   <path class="fil4" d="M0.89 1.05c-0.1,0 -0.09,-0.13 -0,-0.13 0.09,0 0.08,0.13 0,0.13zm0.06 -0.17c-0.09,-0.05 -0.19,0.01 -0.19,0.11 0,0.06 0.07,0.16 0.19,0.1 0.01,0.03 0.05,0.03 0.05,-0.01l0 -0.27c0,-0.02 -0.01,-0.03 -0.03,-0.03 -0.04,0 -0.03,0.07 -0.03,0.11z"/>
   <path class="fil5" d="M0.29 1.47c0.12,0 0.12,0.18 0,0.18 -0.12,0 -0.12,-0.18 -0,-0.18zm-0.14 0.08c0,0.05 0.01,0.08 0.05,0.12 0.1,0.09 0.25,0.02 0.25,-0.1 0,-0.06 -0.03,-0.11 -0.08,-0.13 -0.02,-0.01 -0.03,-0.01 -0.06,-0.01 -0.08,-0.01 -0.15,0.06 -0.15,0.14z"/>
   <path class="fil6" d="M1.06 0.93c0,0.07 0.11,0.07 0.11,0.1 0,0.02 -0.02,0.02 -0.03,0.02 -0.04,0 -0.02,-0.03 -0.07,-0.03 -0.01,0 -0.05,0.03 0.01,0.06 0.12,0.07 0.2,-0.07 0.1,-0.12 -0.03,-0.01 -0.06,-0.02 -0.06,-0.03 0.02,-0.03 0.06,0.01 0.08,0.01 0.03,0 0.05,-0.04 -0,-0.06 -0.07,-0.04 -0.13,0 -0.13,0.06z"/>
   <path class="fil7" d="M0.26 1.56c0,0.02 0.01,0.03 0.03,0.03 0.04,0 0.04,-0.05 0,-0.05 -0.02,0 -0.03,0.01 -0.03,0.03z"/>
  </g>
 </g>
</svg>
