<?xml version="1.0" encoding="UTF-8"?>
<!DOCTYPE svg PUBLIC "-//W3C//DTD SVG 1.1//EN" "http://www.w3.org/Graphics/SVG/1.1/DTD/svg11.dtd">
<!-- Creator: CorelDRAW 2019 (64-Bit) -->
<svg xmlns="http://www.w3.org/2000/svg" xml:space="preserve" width="0.0666693in" height="0.0666693in" version="1.1" style="shape-rendering:geometricPrecision; text-rendering:geometricPrecision; image-rendering:optimizeQuality; fill-rule:evenodd; clip-rule:evenodd"
viewBox="0 0 1.98 1.98"
 xmlns:xlink="http://www.w3.org/1999/xlink"
 xmlns:xodm="http://www.corel.com/coreldraw/odm/2003">
 <defs>
  <style type="text/css">
   <![CDATA[
    .fil3 {fill:url(#id0)}
    .fil4 {fill:url(#id1)}
    .fil2 {fill:url(#id2)}
    .fil1 {fill:url(#id3)}
    .fil0 {fill:url(#id4)}
   ]]>
  </style>
  <linearGradient id="id0" gradientUnits="userSpaceOnUse" x1="0.89" y1="0.96" x2="0.49" y2="0.61">
   <stop offset="0" style="stop-opacity:1; stop-color:#262E45"/>
   <stop offset="1" style="stop-opacity:1; stop-color:#E3C2A0"/>
  </linearGradient>
  <linearGradient id="id1" gradientUnits="userSpaceOnUse" xlink:href="#id0" x1="1.19" y1="0.9" x2="0.82" y2="0.67">
  </linearGradient>
  <linearGradient id="id2" gradientUnits="userSpaceOnUse" xlink:href="#id0" x1="1.43" y1="1.03" x2="1.04" y2="0.54">
  </linearGradient>
  <linearGradient id="id3" gradientUnits="userSpaceOnUse" xlink:href="#id0" x1="1.21" y1="1.5" x2="-0.2" y2="-0.25">
  </linearGradient>
  <linearGradient id="id4" gradientUnits="userSpaceOnUse" xlink:href="#id0" x1="1.11" y1="1.93" x2="-0.92" y2="-0.59">
  </linearGradient>
 </defs>
 <g id="Layer_x0020_1">
  <metadata id="CorelCorpID_0Corel-Layer"/>
  <g id="_1482697069296">
   <path class="fil0" d="M0.39 1.47l0.08 -0.08 0.04 0.04c0.04,0.04 0.02,0.02 0.04,0.04 0.01,0.01 0.03,0.02 0.03,0.03l-0.08 0.08 -0.11 -0.11zm0.68 -1.47l0.09 0c0.11,0.01 0.21,0.03 0.32,0.08 0.01,0.01 0.02,0.01 0.04,0.02 0.05,0.03 0.11,0.06 0.15,0.1 0.02,0.02 0.03,0.03 0.05,0.05 0.01,0.01 0.02,0.02 0.03,0.03 0.02,0.03 0.05,0.05 0.07,0.09 0.03,0.04 0.06,0.08 0.07,0.13 0.06,0.13 0.08,0.23 0.08,0.39 0,0.15 -0.05,0.3 -0.12,0.41 -0.03,0.04 -0.06,0.08 -0.09,0.12 -0.07,0.09 -0.2,0.18 -0.3,0.22 -0.11,0.05 -0.26,0.08 -0.38,0.07 -0.01,-0 -0.02,0 -0.04,-0 -0.07,-0.01 -0.14,-0.02 -0.2,-0.04 -0.08,-0.03 -0.15,-0.07 -0.21,-0.11l-0.08 0.08c0,0.01 0.01,0.01 0.01,0.02 0,0.01 -0.11,0.13 -0.13,0.13 -0.02,0 -0.05,-0.01 -0.04,-0.04 0.01,-0.03 0.07,-0.07 0.09,-0.1l-0.15 -0.15c-0.02,0.03 -0.11,0.12 -0.15,0.15 -0.07,0.07 -0.15,0.13 -0.11,0.21 0.01,0.01 0.01,0.02 0.02,0.03 0.02,0.02 0.04,0.03 0.08,0.03 0.08,0 0.12,-0.12 0.17,-0.12 0.01,0 0.03,0.02 0.03,0.03 0,0.02 -0.03,0.04 -0.04,0.05 -0.06,0.06 -0.08,0.1 -0.18,0.1 -0.11,0 -0.19,-0.14 -0.13,-0.25 0.02,-0.04 0.1,-0.1 0.13,-0.14 0.03,-0.03 0.06,-0.06 0.09,-0.09 0.02,-0.02 0.03,-0.03 0.04,-0.04 0.02,-0.02 0.03,-0.04 0.07,-0.03l0.08 -0.08c-0.04,-0.06 -0.08,-0.14 -0.11,-0.22 -0.03,-0.1 -0.05,-0.21 -0.04,-0.32 0.01,-0.09 0.01,-0.14 0.04,-0.23 0.01,-0.03 0.08,-0.21 0.11,-0.21 0.04,0 0.04,0.03 0.02,0.06 -0.04,0.05 -0.06,0.11 -0.08,0.17 -0.05,0.14 -0.05,0.3 -0.02,0.44 0.04,0.16 0.13,0.32 0.26,0.42l0.09 0.06c0.07,0.05 0.15,0.08 0.24,0.1 0.21,0.04 0.41,0.01 0.59,-0.09 0.01,-0.01 0.03,-0.02 0.04,-0.03 0.19,-0.14 0.3,-0.32 0.33,-0.56l0.01 -0.09c-0,-0.01 -0,-0.01 -0,-0.03 -0,-0.03 -0,-0.04 -0,-0.06 -0.01,-0.1 -0.04,-0.18 -0.08,-0.27 -0,-0.01 -0.01,-0.01 -0.01,-0.02 -0.04,-0.07 -0.09,-0.13 -0.14,-0.18 -0.01,-0.01 -0.02,-0.02 -0.03,-0.03 -0.1,-0.1 -0.3,-0.19 -0.45,-0.19 -0.01,-0 -0.02,0 -0.03,-0 -0.06,-0.01 -0.14,0 -0.2,0.02 -0.13,0.03 -0.25,0.09 -0.34,0.17 -0.01,0.01 -0.01,0.01 -0.02,0.02l-0.05 0.05c-0.01,0.01 -0.02,0.03 -0.04,0.02 -0.01,-0 -0.03,-0.02 -0.03,-0.03 0,-0.03 0.11,-0.12 0.15,-0.14 0.03,-0.02 0.07,-0.05 0.1,-0.07 0.05,-0.03 0.1,-0.05 0.16,-0.06 0.06,-0.02 0.12,-0.03 0.18,-0.03z"/>
   <path class="fil1" d="M0.44 0.84c0,0.2 0.07,0.36 0.2,0.49 0.07,0.07 0.11,0.1 0.2,0.14 0.14,0.07 0.31,0.08 0.46,0.04 0.05,-0.01 0.03,-0.06 0,-0.06 -0.01,-0 -0.08,0.02 -0.14,0.02 -0.12,0 -0.2,-0 -0.31,-0.06 -0.14,-0.07 -0.23,-0.16 -0.29,-0.3 -0.08,-0.17 -0.08,-0.38 0,-0.54l0.09 -0.14c0.04,-0.06 0.15,-0.13 0.22,-0.16 0.09,-0.04 0.15,-0.05 0.27,-0.05 0.13,0 0.3,0.06 0.39,0.15 0.01,0.01 0.01,0.01 0.02,0.02 0.06,0.05 0.11,0.13 0.15,0.2 0.07,0.14 0.07,0.32 0.02,0.47 -0.02,0.07 -0.08,0.16 -0.13,0.22l-0.06 0.06c-0.07,0.06 -0.14,0.07 -0.14,0.11 0,0.1 0.22,-0.09 0.28,-0.17 0.13,-0.17 0.18,-0.36 0.13,-0.58 -0.01,-0.05 -0.03,-0.09 -0.04,-0.13 -0.04,-0.09 -0.11,-0.18 -0.18,-0.24 -0.05,-0.04 -0.1,-0.07 -0.16,-0.1 -0.14,-0.06 -0.29,-0.08 -0.44,-0.04 -0.3,0.06 -0.54,0.34 -0.54,0.66z"/>
   <path class="fil2" d="M1.43 0.98c-0.04,0 -0.08,-0 -0.12,-0.04 -0.07,-0.09 -0.02,-0.22 0.1,-0.22 0.1,0 0.17,0.12 0.09,0.22 -0.01,0.02 -0.05,0.04 -0.08,0.04zm-0.02 0.06c0.11,0 0.2,-0.08 0.2,-0.18 0,-0.04 0,-0.06 -0.02,-0.1 -0.09,-0.18 -0.36,-0.13 -0.36,0.08 -0,0.06 0.02,0.1 0.05,0.14 0.03,0.03 0.08,0.06 0.13,0.06z"/>
   <path class="fil3" d="M0.88 0.92c0,0.05 -0.03,0.06 -0.08,0.06 -0.06,0 -0.08,-0.05 -0.1,-0.05 -0.03,0 -0.06,0.04 0.02,0.08 0.13,0.08 0.28,-0.05 0.19,-0.15 -0.05,-0.06 -0.17,-0.05 -0.17,-0.1 0,-0.05 0.07,-0.06 0.13,-0.02 0.03,0.02 0.05,-0 0.05,-0.02 0,-0.04 -0.13,-0.11 -0.22,-0.02 -0.04,0.04 -0.03,0.12 0.03,0.14 0.02,0.01 0.03,0.01 0.05,0.02 0.02,0.01 0.09,0.03 0.09,0.06z"/>
   <path class="fil4" d="M1 0.68l0 0.33c0,0.02 0.02,0.03 0.03,0.03l0.13 0c0.04,0 0.04,-0.06 0,-0.06l-0.1 0 0 -0.1c0.08,0 0.13,0.01 0.13,-0.03 0,-0.04 -0.09,-0.03 -0.13,-0.03l0 -0.1 0.11 0c0.04,0 0.04,-0.06 0,-0.06l-0.14 0c-0.01,0 -0.02,0.01 -0.02,0.02z"/>
  </g>
 </g>
</svg>
