<?xml version="1.0" encoding="UTF-8"?>
<!DOCTYPE svg PUBLIC "-//W3C//DTD SVG 1.1//EN" "http://www.w3.org/Graphics/SVG/1.1/DTD/svg11.dtd">
<!-- Creator: CorelDRAW 2019 (64-Bit) -->
<svg xmlns="http://www.w3.org/2000/svg" xml:space="preserve" width="0.0627559in" height="0.0666693in" version="1.1" style="shape-rendering:geometricPrecision; text-rendering:geometricPrecision; image-rendering:optimizeQuality; fill-rule:evenodd; clip-rule:evenodd"
viewBox="0 0 1.64 1.74"
 xmlns:xlink="http://www.w3.org/1999/xlink"
 xmlns:xodm="http://www.corel.com/coreldraw/odm/2003">
 <defs>
  <style type="text/css">
   <![CDATA[
    .fil2 {fill:url(#id0)}
    .fil1 {fill:url(#id1)}
    .fil0 {fill:url(#id2)}
    .fil3 {fill:url(#id3)}
   ]]>
  </style>
  <linearGradient id="id0" gradientUnits="userSpaceOnUse" x1="0.42" y1="1.04" x2="0.01" y2="0.54">
   <stop offset="0" style="stop-opacity:1; stop-color:#262E45"/>
   <stop offset="1" style="stop-opacity:1; stop-color:#E3C2A0"/>
  </linearGradient>
  <linearGradient id="id1" gradientUnits="userSpaceOnUse" xlink:href="#id0" x1="1.18" y1="0.76" x2="0.58" y2="0.01">
  </linearGradient>
  <linearGradient id="id2" gradientUnits="userSpaceOnUse" xlink:href="#id0" x1="0.98" y1="1.64" x2="-0.82" y2="-0.47">
  </linearGradient>
  <linearGradient id="id3" gradientUnits="userSpaceOnUse" xlink:href="#id0" x1="0.84" y1="1.52" x2="0.58" y2="1.16">
  </linearGradient>
 </defs>
 <g id="Layer_x0020_1">
  <metadata id="CorelCorpID_0Corel-Layer"/>
  <g id="_1482338770656">
   <path class="fil0" d="M0.66 0.46c-0.04,-0.01 -0.44,-0 -0.51,-0 -0.04,0 -0.09,0.03 -0.11,0.06 -0.04,0.04 -0.04,0.08 -0.04,0.15 0,0.03 0.03,0.05 0.05,0.03 0.01,-0.01 0,-0.07 0.01,-0.09 0.01,-0.05 0.05,-0.09 0.11,-0.09l0.45 0c0.04,0 0.07,0.01 0.09,0.03 0.02,0.02 0.03,0.05 0.03,0.09l0 0.46c-0.07,0 -0.13,-0 -0.16,0.07 -0.02,0.04 -0,0.02 -0.06,0.07 -0.02,0.02 -0.04,0.03 -0.06,0.05 0,-0.05 0.01,-0.09 -0.03,-0.09 -0.06,-0.01 -0.25,0.01 -0.29,-0.01 -0.03,-0.01 -0.05,-0.03 -0.06,-0.06 -0.01,-0.04 -0,-0.23 -0.01,-0.29 -0,-0.02 -0.01,-0.03 -0.03,-0.03 -0.02,0 -0.03,0.02 -0.03,0.04l0 0.22c0,0.06 0.01,0.1 0.04,0.13 0.03,0.03 0.08,0.05 0.12,0.05l0.23 0c0,0.05 -0.01,0.12 0.03,0.12 0.02,0 0.12,-0.09 0.14,-0.1 0,0.08 0,0.17 0,0.25 0,0.05 0,0.07 0.03,0.1 0.02,0.02 0.05,0.04 0.09,0.04l0.16 0c0,0.04 -0.01,0.08 0.03,0.08 0.01,0 0.03,-0.01 0.04,-0.02l0.07 -0.05c0.04,-0.03 0.07,0.01 0.13,-0.05 0.04,-0.04 0.04,-0.15 0.01,-0.15 -0.01,0 -0.03,-0 -0.03,0.03 -0,0.04 0.02,0.11 -0.09,0.11 -0.04,-0 -0.03,0 -0.07,0.03 -0.01,0.01 -0.02,0.01 -0.03,0.02 0,-0.07 -0,-0.05 -0.14,-0.05 -0.04,0 -0.13,0.01 -0.13,-0.06l0 -0.34c0,-0.03 0.03,-0.06 0.06,-0.06l0.34 0c0.03,0 0.05,0.02 0.05,0.03 0.02,0.04 -0.02,0.2 0.04,0.18 0.01,-0 0.02,-0.01 0.02,-0.03l0 -0.12c0,-0.07 -0.05,-0.13 -0.13,-0.13l-0.22 0 0 -0.13c0.01,0.01 0.04,0.01 0.06,0.01l0.29 0 0 0.12c0,0.02 0.02,0.03 0.03,0.03 0.01,0 0.11,-0.08 0.12,-0.09 0.02,-0.02 0.04,-0.03 0.06,-0.04 0.01,-0.01 0.02,-0.02 0.03,-0.02 0.07,-0 0.13,0.01 0.2,-0.06 0.04,-0.04 0.06,-0.09 0.06,-0.16l0 -0.55c0,-0.05 -0.01,-0.11 -0.05,-0.15 -0.05,-0.05 -0.09,-0.06 -0.14,-0.06l-0.07 0c-0,0 -0.01,0 -0.01,0 -0.03,0 -0.04,0.05 0.01,0.05 0.04,0 0.08,-0 0.11,0.01 0.05,0.02 0.1,0.06 0.1,0.13l0 0.59c0,0.04 -0.02,0.09 -0.05,0.11 -0.07,0.05 -0.13,0.02 -0.17,0.03 -0.02,0 -0.1,0.07 -0.12,0.09 -0.01,0.01 -0.04,0.03 -0.05,0.04 0,-0.15 0.04,-0.12 -0.29,-0.12 -0.06,0 -0.08,0 -0.12,-0.02 0,-0.08 0,-0.16 0,-0.24 0,-0.05 0,-0.07 -0.01,-0.11 -0.01,-0.02 -0.02,-0.04 -0.04,-0.05 -0.01,-0 -0.01,-0.01 -0.01,-0.02l0 -0.29c0,-0.05 0.03,-0.1 0.07,-0.12 0.05,-0.03 0.09,-0.02 0.17,-0.02l0.27 -0c0.02,-0.01 0.02,-0.05 -0.01,-0.05l-0.37 0c-0.08,0 -0.16,0.07 -0.18,0.15 -0.01,0.06 -0.01,0.24 -0.01,0.32z"/>
   <path class="fil1" d="M0.91 0.46l0.08 0 0 0.25 -0.08 0 0 -0.25zm0.28 -0.03c0,0.07 0.2,-0 0.2,0.04l0 0.24c0,0.01 -0.01,0.01 -0.01,0.01l-0.25 0c-0.03,0 -0.05,-0.01 -0.07,-0.02 -0.01,-0.01 -0.01,-0.01 -0.01,-0.02l0 -0.19c0,-0.01 0,-0.01 0.01,-0.01l0.11 -0.13c0.04,-0.05 0.03,-0.08 0.04,-0.11 0,-0 0,-0 0,-0 0.01,0.05 0.03,0.07 -0,0.14 -0,0.01 -0.02,0.03 -0.02,0.04zm-0.14 -0.01c-0.01,-0 -0.01,-0.01 -0.03,-0.01l-0.13 0c-0.02,0 -0.03,0.02 -0.03,0.04l0 0.29c0,0.03 0.01,0.04 0.04,0.04 0.03,0 0.12,0 0.14,-0 0.01,-0 0.01,-0 0.01,-0.01 0.03,0.01 0.05,0.03 0.09,0.03l0.24 0c0.04,0 0.07,-0.04 0.07,-0.09 -0.01,-0.11 0.03,-0.24 -0.04,-0.28 -0.03,-0.02 -0.11,-0.01 -0.16,-0.01 0.04,-0.08 0.01,-0.21 -0.04,-0.21 -0.09,0 -0.03,0.08 -0.1,0.15l-0.07 0.08z"/>
   <path class="fil2" d="M0.42 0.88l-0.06 0c0,-0.01 0.01,-0.04 0.01,-0.06l0.06 0c0,0.02 -0.01,0.04 -0.01,0.06zm-0.1 -0.11c-0.03,0 -0.11,-0.01 -0.12,0.01 -0.01,0.01 -0.02,0.05 0.04,0.05l0.07 0c-0,0.01 -0,0.03 -0.01,0.04 -0,0.01 0,0.01 -0.04,0.01 -0.02,-0 -0.07,-0.01 -0.07,0.03 0,0.04 0.06,0.03 0.1,0.03 -0,0.01 -0.01,0.07 -0.01,0.09 0,0.02 0.01,0.02 0.02,0.03 0.03,0 0.03,-0.04 0.03,-0.07 0,-0.01 0.01,-0.03 0.01,-0.05l0.06 0c-0,0.04 -0.04,0.12 0.01,0.11 0.02,-0 0.02,-0.01 0.03,-0.02 0.01,-0.03 0.01,-0.06 0.02,-0.09l0.11 -0c0.03,-0.01 0.02,-0.05 -0.01,-0.05l-0.09 0c0,-0.02 0.01,-0.04 0.01,-0.06 0.07,0 0.11,0.01 0.11,-0.03 0,-0.03 -0.07,-0.02 -0.1,-0.02 0,-0.03 0.04,-0.12 -0.01,-0.12 -0.02,0 -0.03,0.03 -0.03,0.05 -0,0.02 -0.01,0.05 -0.01,0.07l-0.06 0c0,-0.02 0.01,-0.05 0.01,-0.07 0,-0.01 0.01,-0.02 0,-0.03 -0,-0.01 -0.04,-0.05 -0.05,0.03 -0,0.02 -0.01,0.05 -0.01,0.07z"/>
   <path class="fil3" d="M0.75 1.35c0,-0.03 0.04,-0.07 0.07,-0.03 0.03,0.05 0.05,-0.02 0.08,-0.02 0.03,0 0.09,0.07 -0.05,0.15 -0.04,-0.02 -0.1,-0.05 -0.1,-0.11zm-0.05 -0.01c0,0.07 0.04,0.11 0.1,0.14 0.06,0.03 0.04,0.03 0.1,0 0.03,-0.02 0.06,-0.04 0.08,-0.07 0.05,-0.07 0.01,-0.18 -0.08,-0.17 -0.02,0 -0.03,0.01 -0.05,0.02 -0.08,-0.06 -0.15,0.02 -0.15,0.07z"/>
  </g>
 </g>
</svg>
