<?xml version="1.0" encoding="UTF-8"?>
<!DOCTYPE svg PUBLIC "-//W3C//DTD SVG 1.1//EN" "http://www.w3.org/Graphics/SVG/1.1/DTD/svg11.dtd">
<!-- Creator: CorelDRAW 2019 (64-Bit) -->
<svg xmlns="http://www.w3.org/2000/svg" xml:space="preserve" width="0.0627559in" height="0.0638031in" version="1.1" style="shape-rendering:geometricPrecision; text-rendering:geometricPrecision; image-rendering:optimizeQuality; fill-rule:evenodd; clip-rule:evenodd"
viewBox="0 0 1.76 1.79"
 xmlns:xlink="http://www.w3.org/1999/xlink"
 xmlns:xodm="http://www.corel.com/coreldraw/odm/2003">
 <defs>
  <style type="text/css">
   <![CDATA[
    .fil4 {fill:url(#id0)}
    .fil3 {fill:url(#id1)}
    .fil2 {fill:url(#id2)}
    .fil0 {fill:url(#id3)}
    .fil1 {fill:url(#id4)}
   ]]>
  </style>
  <linearGradient id="id0" gradientUnits="userSpaceOnUse" x1="1.6" y1="0.24" x2="1.46" y2="0.07">
   <stop offset="0" style="stop-opacity:1; stop-color:#262E45"/>
   <stop offset="1" style="stop-opacity:1; stop-color:#E3C2A0"/>
  </linearGradient>
  <linearGradient id="id1" gradientUnits="userSpaceOnUse" xlink:href="#id0" x1="1.27" y1="0.24" x2="1.13" y2="0.07">
  </linearGradient>
  <linearGradient id="id2" gradientUnits="userSpaceOnUse" xlink:href="#id0" x1="1.44" y1="0.24" x2="1.3" y2="0.07">
  </linearGradient>
  <linearGradient id="id3" gradientUnits="userSpaceOnUse" xlink:href="#id0" x1="1" y1="1.73" x2="-0.83" y2="-0.52">
  </linearGradient>
  <linearGradient id="id4" gradientUnits="userSpaceOnUse" xlink:href="#id0" x1="0.66" y1="1.32" x2="0.17" y2="0.16">
  </linearGradient>
 </defs>
 <g id="Layer_x0020_1">
  <metadata id="CorelCorpID_0Corel-Layer"/>
  <g id="_1482338781248">
   <path class="fil0" d="M0.78 1.49l0.39 0 0 0.24 -0.39 0 0 -0.24zm0.37 -0.11l0.38 0c0,0.05 0.01,0.15 -0.01,0.17 -0.01,0.01 -0.02,0.02 -0.04,0.02l-0.25 0c0,-0.11 0.01,-0.14 -0.09,-0.14 0,-0.02 0.01,-0.04 0.01,-0.05zm-0.42 0.11l0 0.08 -0.63 0c-0.04,0 -0.05,-0.02 -0.05,-0.06l0 -1.17c0,-0.07 0.07,-0.05 0.14,-0.05l0 1.01c0,0.04 0.04,0.08 0.09,0.09 0.03,0 0.47,0 0.52,0 0,0.01 0.01,0.03 0.01,0.05 -0.05,0 -0.09,0.01 -0.09,0.05zm0.22 -0.4c0,-0.04 0.05,-0.03 0.05,-0 0,0.04 -0.05,0.03 -0.05,0zm0.02 0.07c0.08,0 0.11,-0.1 0.03,-0.15l0 -0.11c0,0.01 0,0 0.01,0.01 0,0 0,0.01 0.01,0.01 0.01,0.01 0.01,0.01 0.01,0.02l0.08 0.14c0.01,0.02 0.02,0.03 0.03,0.05 0.01,0.02 0.02,0.03 0.03,0.05l0.05 0.09c-0.04,0.01 -0.06,0.02 -0.08,0.05 -0.03,0.03 -0.04,0.07 -0.04,0.11l-0.23 0c0,-0.03 0,-0.04 -0.01,-0.07 -0.02,-0.04 -0.06,-0.09 -0.1,-0.09 0,-0.01 0.02,-0.04 0.02,-0.05 0.06,-0.1 0.12,-0.21 0.17,-0.31l0 -0c0,-0.01 0,-0 0,-0.01l0 0.11c-0.09,0.05 -0.04,0.15 0.02,0.15zm-0.23 0.17c-0.03,0 -0.46,0.01 -0.48,-0 -0.02,-0.01 -0.03,-0.02 -0.03,-0.05l0 -0.93 0.16 0c0.05,0 0.04,-0.07 0.04,-0.12l0.22 0c0.01,0 0.06,0.06 0.07,0.07 0.03,0.03 0.05,0.06 0.08,0.06l0.9 0 0 0.92c0,0.06 -0.04,0.06 -0.08,0.06l-0.43 0c0.02,-0.02 0.05,-0 0.05,-0.06 0,-0.01 -0.11,-0.21 -0.13,-0.25 -0.01,-0.02 -0.02,-0.04 -0.03,-0.06l-0.07 -0.12c-0.02,-0.04 -0.02,-0.05 -0.05,-0.05 -0.03,0 -0.04,0.04 -0.05,0.06l-0.2 0.35c-0.01,0.01 -0.01,0.02 -0.02,0.04 -0.01,0.02 -0.03,0.05 0,0.07 0.02,0.02 0.02,0.01 0.04,0.02zm-0.35 -1.11l0 0.08 -0.16 0 0 -0.2c0,-0.03 0.02,-0.05 0.04,-0.05l1.39 0c0.03,0 0.04,0.03 0.04,0.06l0 0.19 -0.9 0c-0.02,0 -0.1,-0.12 -0.13,-0.12l-0.25 0c-0.02,0 -0.04,0.02 -0.04,0.04zm-0.2 -0.14l0 0.15 -0.1 0c-0.04,0 -0.09,0.04 -0.09,0.09l0 1.21c0,0.05 0.05,0.09 0.11,0.09l0.62 0 0 0.14c0,0.01 0.02,0.02 0.03,0.02l0.44 0c0.02,0 0.03,-0.01 0.03,-0.03l0 -0.13 0.24 0c0.03,0 0.06,-0.01 0.08,-0.02 0.02,-0.01 0.03,-0.04 0.03,-0.06l0 -0.15c0.05,0 0.12,0.01 0.16,-0.02 0.01,-0.01 0.03,-0.04 0.03,-0.06l0 -1.21c0,-0.05 -0.05,-0.09 -0.1,-0.09l-1.37 0c-0.05,0 -0.1,0.04 -0.1,0.09z"/>
   <path class="fil1" d="M1.36 1.02l0.11 0 0 0.1 -0.11 0 0 -0.1zm-0.88 0l0.1 0 0 0.1 -0.1 0 0 -0.1zm0.44 -0.45l0.1 0 0 0.1 -0.1 0 0 -0.1zm0.62 0.05c0,0.05 -0.07,0.06 -0.09,0.02 -0.01,-0.02 -0,-0.04 0.01,-0.05 0.03,-0.03 0.08,-0.01 0.08,0.03zm-1.09 0.04c-0.02,0 -0.04,-0.02 -0.04,-0.05 0,-0.04 0.05,-0.06 0.08,-0.03 0.02,0.03 0.01,0.08 -0.03,0.08zm0.42 -0.09l0 0.03 -0.32 0c-0.01,0 -0.01,-0.01 -0.02,-0.02 -0.02,-0.06 -0.11,-0.07 -0.15,-0.03 -0.07,0.07 -0.01,0.16 0.06,0.16 0.04,0 0.08,-0.03 0.09,-0.06l0.22 0c-0.01,0 -0,0 -0.01,0.01 -0.03,0.02 -0.04,0.02 -0.07,0.05 -0.05,0.04 -0.09,0.09 -0.12,0.15 -0.01,0.02 -0.04,0.07 -0.04,0.1 -0.1,0 -0.08,0.02 -0.08,0.16 0,0.06 0.09,0.04 0.13,0.04 0.09,0 0.07,-0.05 0.07,-0.15 0,-0.04 -0.03,-0.05 -0.07,-0.05 0,-0.05 0.06,-0.13 0.09,-0.17 0.03,-0.04 0.06,-0.06 0.1,-0.09 0.03,-0.02 0.07,-0.03 0.11,-0.04 0,0.07 0.05,0.05 0.16,0.05 0.03,0 0.04,-0.02 0.04,-0.05 0.06,0.01 0.11,0.04 0.15,0.07 0.01,0.01 0.01,0.01 0.02,0.02 0.06,0.05 0.1,0.11 0.12,0.18 0,0.01 0.01,0.02 0.01,0.03 -0.08,0 -0.07,0.06 -0.07,0.16 0,0.06 0.1,0.05 0.14,0.05 0.08,0 0.06,-0.06 0.06,-0.16 0,-0.05 -0.06,-0.04 -0.08,-0.04 -0.03,-0.12 -0.1,-0.22 -0.2,-0.28 -0.01,-0 -0.01,-0.01 -0.02,-0.01 -0,-0 -0.01,-0 -0.01,-0.01l-0.01 -0.01 0.22 0c0.01,0.02 0.01,0.03 0.03,0.04 0.11,0.07 0.2,-0.08 0.12,-0.14 -0.03,-0.03 -0.09,-0.03 -0.13,-0 -0.08,0.06 0.11,0.05 -0.36,0.05 0,-0.1 -0.03,-0.08 -0.16,-0.08 -0.03,0 -0.05,0.03 -0.05,0.05z"/>
   <path class="fil2" d="M1.41 0.18c0,-0.04 0.07,-0.01 0.02,0.01 -0.01,-0 -0.02,-0.01 -0.02,-0.01zm-0.05 -0.01l0 0.02c0,0.07 0.13,0.08 0.13,-0.01 0,-0.08 -0.13,-0.09 -0.13,-0z"/>
   <path class="fil3" d="M1.25 0.19c-0,-0.02 -0.01,-0.03 0.02,-0.03 0.01,0 0.02,0.02 0.01,0.03 -0.01,0.02 -0.02,0.01 -0.03,0.01zm-0.05 -0.01c0,0.08 0.14,0.1 0.14,-0.01 0,-0.08 -0.14,-0.09 -0.14,0.01z"/>
   <path class="fil4" d="M1.57 0.18c0,-0.03 0.03,-0.03 0.04,0l-0 0c-0,0 -0.01,0.01 -0.02,0.01 -0.01,0 -0.02,-0 -0.02,-0.01zm-0.05 -0.01c0,0.02 0.01,0.04 0.02,0.05 0.03,0.03 0.12,0.03 0.12,-0.06 0,-0.03 -0.03,-0.06 -0.07,-0.06 -0.04,0 -0.07,0.03 -0.07,0.07z"/>
  </g>
 </g>
</svg>
