<?xml version="1.0" encoding="UTF-8"?>
<!DOCTYPE svg PUBLIC "-//W3C//DTD SVG 1.1//EN" "http://www.w3.org/Graphics/SVG/1.1/DTD/svg11.dtd">
<!-- Creator: CorelDRAW 2019 (64-Bit) -->
<svg xmlns="http://www.w3.org/2000/svg" xml:space="preserve" width="0.0666693in" height="0.0635748in" version="1.1" style="shape-rendering:geometricPrecision; text-rendering:geometricPrecision; image-rendering:optimizeQuality; fill-rule:evenodd; clip-rule:evenodd"
viewBox="0 0 2 1.91"
 xmlns:xlink="http://www.w3.org/1999/xlink"
 xmlns:xodm="http://www.corel.com/coreldraw/odm/2003">
 <defs>
  <style type="text/css">
   <![CDATA[
    .fil6 {fill:url(#id0)}
    .fil7 {fill:url(#id1)}
    .fil8 {fill:url(#id2)}
    .fil5 {fill:url(#id3)}
    .fil0 {fill:url(#id4)}
    .fil4 {fill:url(#id5)}
    .fil3 {fill:url(#id6)}
    .fil2 {fill:url(#id7)}
    .fil1 {fill:url(#id8)}
   ]]>
  </style>
  <linearGradient id="id0" gradientUnits="userSpaceOnUse" x1="0.95" y1="1.09" x2="0.61" y2="0.85">
   <stop offset="0" style="stop-opacity:1; stop-color:#262E45"/>
   <stop offset="1" style="stop-opacity:1; stop-color:#E3C2A0"/>
  </linearGradient>
  <linearGradient id="id1" gradientUnits="userSpaceOnUse" xlink:href="#id0" x1="0.69" y1="1.04" x2="0.35" y2="0.87">
  </linearGradient>
  <linearGradient id="id2" gradientUnits="userSpaceOnUse" xlink:href="#id0" x1="0.6" y1="1.53" x2="0.51" y2="1.42">
  </linearGradient>
  <linearGradient id="id3" gradientUnits="userSpaceOnUse" xlink:href="#id0" x1="0.4" y1="1.09" x2="0.06" y2="0.85">
  </linearGradient>
  <linearGradient id="id4" gradientUnits="userSpaceOnUse" xlink:href="#id0" x1="1.06" y1="1.9" x2="-0.87" y2="-0.62">
  </linearGradient>
  <linearGradient id="id5" gradientUnits="userSpaceOnUse" xlink:href="#id0" x1="0.38" y1="0.43" x2="0.11" y2="0.09">
  </linearGradient>
  <linearGradient id="id6" gradientUnits="userSpaceOnUse" xlink:href="#id0" x1="0.72" y1="0.43" x2="0.45" y2="0.09">
  </linearGradient>
  <linearGradient id="id7" gradientUnits="userSpaceOnUse" xlink:href="#id0" x1="1.52" y1="1.63" x2="1.03" y2="1.02">
  </linearGradient>
  <linearGradient id="id8" gradientUnits="userSpaceOnUse" xlink:href="#id0" x1="1.15" y1="0.51" x2="0.98" y2="0.01">
  </linearGradient>
 </defs>
 <g id="Layer_x0020_1">
  <metadata id="CorelCorpID_0Corel-Layer"/>
  <g id="_1481870194304">
   <path class="fil0" d="M1.17 1.14l0.06 -0.06c0.03,0.01 0.03,0.03 0.05,0.04 0.03,0.01 0.06,-0.02 0.13,-0.04 0.05,-0.01 0.04,-0.04 0.04,-0.09 0.13,0 0.07,-0 0.09,0.06 0.01,0.02 0.02,0.03 0.04,0.03 0.02,0.01 0.04,0.01 0.06,0.02 0.03,0.01 0.03,0.02 0.06,0.02 0.03,0 0.04,-0.04 0.06,-0.04 0.01,0 0.05,0.04 0.06,0.05 -0.01,0.03 -0.05,0.04 -0.05,0.07 0,0.02 0.03,0.06 0.04,0.1 0.02,0.06 0.01,0.06 0.1,0.06 0.01,0.03 0.01,0.06 0,0.09 -0.07,0 -0.08,-0 -0.1,0.05 -0.03,0.1 -0.07,0.1 -0.02,0.14 0.01,0.01 0.02,0.02 0.03,0.03l-0.06 0.06c-0.06,-0.04 -0.03,-0.07 -0.12,-0.03 -0.05,0.03 -0.09,0.02 -0.1,0.05 -0.01,0.02 -0.01,0.05 -0.01,0.07 -0.03,0.01 -0.06,0.01 -0.09,0 0,-0.12 -0.01,-0.07 -0.11,-0.12 -0.02,-0.01 -0.03,-0.02 -0.05,-0.02 -0.03,0 -0.04,0.03 -0.06,0.05 -0.02,-0.01 -0.02,-0.01 -0.03,-0.03 -0.01,-0.01 -0.03,-0.02 -0.03,-0.03 0,-0.02 0.04,-0.02 0.04,-0.07 0,-0.02 -0.02,-0.05 -0.04,-0.09 -0.02,-0.06 -0.01,-0.07 -0.1,-0.07 0,-0.13 -0,-0.07 0.06,-0.09 0.03,-0.01 0.03,-0.05 0.06,-0.1 0.05,-0.1 0.01,-0.06 -0.02,-0.12zm0.83 0.23l0 0.08c-0,0.02 -0.01,0.03 -0.02,0.05 -0.01,0.01 -0,0 -0.01,0.01 -0.02,0.02 -0.03,0.02 -0.07,0.02l-0.03 0.07c0.01,0.01 0.02,0.02 0.03,0.04 0.03,0.06 -0.01,0.09 -0.04,0.12 -0.02,0.02 -0.04,0.05 -0.07,0.05 -0.04,0.01 -0.06,-0.01 -0.09,-0.03 -0.01,0 -0.03,0.01 -0.04,0.01 -0.01,0.01 -0.02,0.01 -0.03,0.01 0,0.04 -0,0.05 -0.02,0.07 -0.01,0.02 -0.04,0.03 -0.06,0.03 -0.08,0 -0.17,0.02 -0.17,-0.11 -0.02,-0 -0.05,-0.02 -0.07,-0.03 -0.03,0.04 -0.09,0.05 -0.13,0.01 -0.03,-0.03 -0.08,-0.07 -0.08,-0.11 0,-0.05 0.01,-0.05 0.04,-0.08 -0.01,-0.02 -0.03,-0.05 -0.03,-0.07 -0.09,0 -0.17,0 -0.26,0 -0.05,0 -0.09,0.01 -0.11,-0.03 -0.01,-0.03 0,-0.05 0.03,-0.05 0.02,-0 0.2,-0 0.23,-0 0,-0.08 -0.01,-0.17 0.11,-0.17 0,-0.02 0.02,-0.06 0.03,-0.07 -0.04,-0.02 -0.04,-0.05 -0.04,-0.09 0,-0.03 0.07,-0.12 0.14,-0.12 0.04,0 0.05,0.02 0.07,0.04 0.01,-0.01 0.06,-0.03 0.07,-0.03 0,-0.04 0.01,-0.06 0.02,-0.08 0.02,-0.02 0.04,-0.03 0.07,-0.03 0.07,0 0.16,-0.01 0.16,0.11 0.02,0 0.06,0.02 0.07,0.03 0.03,-0.02 0.02,-0.04 0.09,-0.04l0 -0.39 -1.7 0 0 0.68c0,0.05 0.01,0.09 0.03,0.12 0.03,0.04 0.06,0.04 0.1,0.04 0.05,-0 0.1,0 0.14,0 0.02,0 0.05,-0 0.07,0 0.05,0.01 0.04,0.08 -0.01,0.08l-0.24 0c-0.05,0 -0.1,-0.03 -0.12,-0.06 -0.03,-0.03 -0.05,-0.08 -0.05,-0.14l0 -1.13c0,-0.09 0.08,-0.2 0.17,-0.2l1.51 0c0.09,0 0.16,0.09 0.17,0.19 0,0.03 0,0.76 0,0.83 -0,0.05 0.01,0.03 0.03,0.06 0.05,0.06 -0.01,0.11 -0.02,0.13l0.03 0.07c0.06,0 0.1,0.03 0.1,0.08 0,0 0,0.01 0,0.01zm-1.92 -1.12c0,-0.06 0.01,-0.09 0.03,-0.12 0.02,-0.04 0.06,-0.05 0.1,-0.05l1.44 0c0.05,0 0.07,0.01 0.09,0.04 0.02,0.02 0.04,0.06 0.04,0.1l0 0.31 -1.7 0 0 -0.27z"/>
   <path class="fil1" d="M1.53 0.35l-0.36 0c-0.05,0 -0.06,-0.1 0.01,-0.1l0.36 0c0.06,0 0.06,0.1 0,0.1zm-0.49 -0.06l0 0.02c0,0.06 0.06,0.12 0.12,0.12l0.36 0c0.07,0 0.12,-0.06 0.12,-0.12 0,-0.04 -0,-0.08 -0.04,-0.11 -0.02,-0.02 -0.05,-0.04 -0.09,-0.04l-0.36 0c-0.04,0 -0.07,0.02 -0.09,0.04 -0.02,0.01 -0.04,0.06 -0.04,0.08z"/>
   <path class="fil2" d="M1.34 1.4c0,-0.11 0.14,-0.22 0.27,-0.12 0.1,0.08 0.04,0.28 -0.1,0.28 -0.05,0 -0.1,-0.01 -0.13,-0.05 -0.02,-0.03 -0.04,-0.06 -0.04,-0.11zm-0.08 0c0,0.21 0.26,0.33 0.41,0.17 0.19,-0.19 -0.03,-0.5 -0.27,-0.39 -0.03,0.01 -0.05,0.03 -0.07,0.05 -0.04,0.04 -0.07,0.1 -0.07,0.17z"/>
   <path class="fil3" d="M0.71 0.35c-0.09,0 -0.07,-0.1 -0.01,-0.1 0.08,0 0.07,0.1 0.01,0.1zm-0.14 -0.05c0,0.04 0.02,0.07 0.04,0.09 0.05,0.06 0.14,0.06 0.19,0.01 0.08,-0.08 0.04,-0.23 -0.1,-0.23 -0.07,0 -0.13,0.06 -0.13,0.13z"/>
   <path class="fil4" d="M0.31 0.3c0,-0.07 0.11,-0.07 0.11,0 0,0.07 -0.11,0.07 -0.11,0zm0.05 0.13c0.08,0 0.14,-0.06 0.14,-0.13 0,-0.16 -0.26,-0.19 -0.27,-0 -0,0.07 0.06,0.14 0.13,0.14z"/>
   <path class="fil5" d="M0.22 1.02c0,0.04 0.04,0.07 0.07,0.1 0.01,0.02 0.06,0.08 0.08,0.08 0.02,0 0.04,-0.02 0.04,-0.04 0,-0.03 -0.04,-0.06 -0.05,-0.07 -0.01,-0.01 -0.01,-0.02 -0.03,-0.03 -0.01,-0.01 -0.02,-0.03 -0.03,-0.03 0.04,-0.06 0.15,-0.13 0.09,-0.17 -0.05,-0.03 -0.07,0.03 -0.11,0.07 -0.01,0.01 -0.01,0.02 -0.02,0.03 -0.02,0.02 -0.04,0.03 -0.04,0.07z"/>
   <path class="fil6" d="M0.77 0.89c0,0.03 0.03,0.05 0.05,0.07 0.01,0.01 0.02,0.02 0.03,0.03 0.01,0.01 0.02,0.02 0.03,0.03 -0.03,0.04 -0.11,0.1 -0.11,0.14 0,0.02 0.03,0.08 0.09,0.01l0.08 -0.09c0.05,-0.05 0.04,-0.07 -0.01,-0.12l-0.05 -0.05c-0.01,-0.01 -0.02,-0.01 -0.02,-0.03 -0.01,-0.01 -0.01,-0.02 -0.03,-0.02 -0.03,-0.01 -0.06,0.02 -0.06,0.03z"/>
   <path class="fil7" d="M0.52 1.19c0,0.02 0.01,0.04 0.04,0.04 0.04,0 0.04,-0.04 0.05,-0.07l0.07 -0.29c0,-0.02 -0.02,-0.04 -0.04,-0.04 -0.04,0 -0.04,0.04 -0.05,0.07l-0.05 0.2c-0,0.02 -0.01,0.03 -0.01,0.05 -0,0.01 -0.01,0.04 -0.01,0.05z"/>
   <path class="fil8" d="M0.55 1.48c0,0.08 0.12,0.03 0.07,-0.03 -0.02,-0.02 -0.07,-0.01 -0.07,0.03z"/>
  </g>
 </g>
</svg>
