<?xml version="1.0" encoding="UTF-8"?>
<!DOCTYPE svg PUBLIC "-//W3C//DTD SVG 1.1//EN" "http://www.w3.org/Graphics/SVG/1.1/DTD/svg11.dtd">
<!-- Creator: CorelDRAW 2019 (64-Bit) -->
<svg xmlns="http://www.w3.org/2000/svg" xml:space="preserve" width="0.0666693in" height="0.0622362in" version="1.1" style="shape-rendering:geometricPrecision; text-rendering:geometricPrecision; image-rendering:optimizeQuality; fill-rule:evenodd; clip-rule:evenodd"
viewBox="0 0 1.82 1.7"
 xmlns:xlink="http://www.w3.org/1999/xlink"
 xmlns:xodm="http://www.corel.com/coreldraw/odm/2003">
 <defs>
  <style type="text/css">
   <![CDATA[
    .fil4 {fill:url(#id0)}
    .fil6 {fill:url(#id1)}
    .fil8 {fill:url(#id2)}
    .fil13 {fill:url(#id3)}
    .fil12 {fill:url(#id4)}
    .fil10 {fill:url(#id5)}
    .fil9 {fill:url(#id6)}
    .fil11 {fill:url(#id7)}
    .fil0 {fill:url(#id8)}
    .fil3 {fill:url(#id9)}
    .fil7 {fill:url(#id10)}
    .fil5 {fill:url(#id11)}
    .fil2 {fill:url(#id12)}
    .fil1 {fill:url(#id13)}
   ]]>
  </style>
  <linearGradient id="id0" gradientUnits="userSpaceOnUse" x1="1.55" y1="1.64" x2="0.05" y2="0.44">
   <stop offset="0" style="stop-opacity:1; stop-color:#262E45"/>
   <stop offset="1" style="stop-opacity:1; stop-color:#E3C2A0"/>
  </linearGradient>
  <linearGradient id="id1" gradientUnits="userSpaceOnUse" xlink:href="#id0" x1="0.44" y1="0.98" x2="0.27" y2="0.59">
  </linearGradient>
  <linearGradient id="id2" gradientUnits="userSpaceOnUse" xlink:href="#id0" x1="0.35" y1="0.24" x2="0.13" y2="0.06">
  </linearGradient>
  <linearGradient id="id3" gradientUnits="userSpaceOnUse" xlink:href="#id0" x1="0.23" y1="0.23" x2="0.01" y2="0.06">
  </linearGradient>
  <linearGradient id="id4" gradientUnits="userSpaceOnUse" xlink:href="#id0" x1="0.71" y1="0.48" x2="0.49" y2="0.3">
  </linearGradient>
  <linearGradient id="id5" gradientUnits="userSpaceOnUse" xlink:href="#id0" x1="0.47" y1="0.48" x2="0.25" y2="0.3">
  </linearGradient>
  <linearGradient id="id6" gradientUnits="userSpaceOnUse" xlink:href="#id0" x1="0.47" y1="0.24" x2="0.25" y2="0.06">
  </linearGradient>
  <linearGradient id="id7" gradientUnits="userSpaceOnUse" xlink:href="#id0" x1="0.59" y1="0.48" x2="0.37" y2="0.3">
  </linearGradient>
  <linearGradient id="id8" gradientUnits="userSpaceOnUse" xlink:href="#id0" x1="2.78" y1="3.06" x2="-2.42" y2="-1.45">
  </linearGradient>
  <linearGradient id="id9" gradientUnits="userSpaceOnUse" xlink:href="#id0" x1="0.33" y1="0.74" x2="0.3" y2="0.28">
  </linearGradient>
  <linearGradient id="id10" gradientUnits="userSpaceOnUse" xlink:href="#id0" x1="1.58" y1="1.73" x2="1.43" y2="1.35">
  </linearGradient>
  <linearGradient id="id11" gradientUnits="userSpaceOnUse" xlink:href="#id0" x1="0.42" y1="0.87" x2="0.29" y2="0.45">
  </linearGradient>
  <linearGradient id="id12" gradientUnits="userSpaceOnUse" xlink:href="#id0" x1="2.54" y1="2.82" x2="-2.66" y2="-1.7">
  </linearGradient>
  <linearGradient id="id13" gradientUnits="userSpaceOnUse" xlink:href="#id0" x1="2.22" y1="2.36" x2="-1.21" y2="-0.4">
  </linearGradient>
 </defs>
 <g id="Layer_x0020_1">
  <metadata id="CorelCorpID_0Corel-Layer"/>
  <g id="_1481870149280">
   <path class="fil0" d="M1.69 1.64l-1.32 0c-0.04,0 -0.07,-0.02 -0.07,-0.06l0 -1.22c0,-0.03 0.02,-0.06 0.06,-0.06l1.34 0c0.04,0 0.06,0.03 0.06,0.07l0 1.18c0,0.05 -0.02,0.08 -0.07,0.08zm-1.45 -1.28l0 1.21c0,0.04 0.01,0.06 0.03,0.09 0.01,0.02 0.05,0.04 0.08,0.04l1.35 0c0.06,0 0.11,-0.06 0.11,-0.11l0 -1.24c0,-0.06 -0.06,-0.11 -0.14,-0.11l-1.31 0c-0.08,0 -0.14,0.05 -0.14,0.12z"/>
   <path class="fil1" d="M0.77 0.75c0.02,0.01 0.05,0.06 0.07,0.06 0.01,0 0.05,-0.02 0.07,-0.03 0.07,-0.02 0.06,-0.01 0.06,-0.11l0.12 0c0,0.09 -0.01,0.09 0.05,0.11 0.07,0.02 0.06,0.05 0.11,0 0.01,-0.01 0.02,-0.02 0.03,-0.03l0.09 0.08c-0.02,0.03 -0.06,0.05 -0.06,0.07 0,0.02 0.02,0.05 0.03,0.08 0.02,0.06 0.02,0.05 0.11,0.05l0 0.12c-0.09,0 -0.09,-0.01 -0.11,0.05 -0.01,0.03 -0.03,0.05 -0.03,0.08 0,0.02 0.04,0.05 0.06,0.07 -0.01,0.01 -0.07,0.08 -0.09,0.08 -0.02,-0.01 -0.05,-0.06 -0.07,-0.06 -0.02,0 -0.05,0.02 -0.07,0.03 -0.07,0.03 -0.06,0 -0.06,0.12l-0.12 0c0,-0.1 0.01,-0.09 -0.05,-0.11 -0.02,-0.01 -0.05,-0.03 -0.07,-0.03 -0.02,0 -0.05,0.04 -0.07,0.06l-0.09 -0.08c0.02,-0.01 0.06,-0.05 0.06,-0.07 0,-0.01 -0.01,-0.03 -0.02,-0.03 -0.05,-0.09 0.01,-0.09 -0.13,-0.09l0 -0.12c0.1,0 0.09,0.01 0.11,-0.05 0.03,-0.07 0.05,-0.07 0.01,-0.11 -0.01,-0.01 -0.02,-0.03 -0.04,-0.03l0.08 -0.08zm0.14 -0.03c-0.03,0.01 -0.04,0.02 -0.06,0.02 -0.02,-0.01 -0.06,-0.06 -0.08,-0.06 -0.02,0 -0.07,0.05 -0.09,0.07 -0.08,0.08 -0.09,0.08 -0.05,0.13 0.01,0.01 0.02,0.03 0.04,0.03 -0,0.02 -0.02,0.04 -0.02,0.06 -0.13,0 -0.11,-0.03 -0.11,0.2 0,0.06 0.05,0.04 0.11,0.04 0,0.02 0.02,0.04 0.02,0.05 -0.03,0.05 -0.1,0.06 -0.04,0.12l0.09 0.09c0.02,0.02 0.04,0.05 0.07,0.03 0.02,-0.01 0.04,-0.04 0.06,-0.06 0.02,0 0.04,0.02 0.06,0.02 0,0.04 -0.01,0.11 0.02,0.11 0.25,0 0.22,0.02 0.22,-0.11 0.01,-0 0.02,-0.01 0.03,-0.01 0.04,-0.02 0.02,-0.02 0.07,0.02 0.05,0.05 0.05,0.03 0.13,-0.05 0.07,-0.06 0.09,-0.07 0.04,-0.12 -0.01,-0.01 -0.02,-0.03 -0.04,-0.04 0,-0.01 0.01,-0.02 0.01,-0.03 0.01,-0.01 0.01,-0.02 0.01,-0.03 0.13,0 0.11,0.03 0.11,-0.21 0,-0.02 -0.02,-0.03 -0.04,-0.03 -0.02,-0 -0.05,0 -0.07,0 -0.01,-0.02 -0.01,-0.04 -0.02,-0.06 0.01,-0.01 0.06,-0.06 0.06,-0.07 0,-0.04 -0.03,-0.05 -0.07,-0.1 -0.07,-0.07 -0.08,-0.09 -0.13,-0.04 -0.01,0.01 -0.03,0.02 -0.03,0.04 -0.02,-0.01 -0.04,-0.02 -0.06,-0.02 0,-0.04 0.01,-0.11 -0.03,-0.11l-0.18 0c-0.04,0 -0.03,0.05 -0.03,0.11z"/>
   <path class="fil2" d="M-0 0.11l0 1.24c0,0.05 0.05,0.11 0.12,0.11l0.06 0 0 -0.06c-0.05,0 -0.09,0.01 -0.11,-0.02 -0.01,-0.01 -0.01,-0.03 -0.01,-0.05l0 -1.18c0,-0.04 0.01,-0.07 0.06,-0.07l1.35 0c0.02,0 0.04,0.02 0.05,0.04 0.01,0.03 -0.01,0.08 0.01,0.08l0.05 0 0 -0.06c0,-0.06 -0.06,-0.12 -0.12,-0.12l-1.34 0c-0.06,0 -0.12,0.06 -0.12,0.11z"/>
   <path class="fil3" d="M0.36 0.49l0 0.05 1.34 0 0 -0.06 -1.33 0c-0.01,0 -0.01,0 -0.01,0.01z"/>
   <path class="fil4" d="M0.88 1.1c0,-0.03 0,-0.05 0.01,-0.07 0,-0.01 0.02,-0.04 0.03,-0.04 0.06,-0.05 0.14,-0.06 0.2,-0 0.06,0.05 0.07,0.15 0.02,0.2 -0.04,0.05 -0.11,0.08 -0.18,0.05 -0.05,-0.02 -0.09,-0.07 -0.09,-0.13zm-0.06 -0.01c0,0.11 0.1,0.21 0.2,0.21 0.07,0 0.12,-0.01 0.17,-0.06 0.12,-0.13 0.05,-0.33 -0.11,-0.36 -0.01,-0 -0.04,-0.01 -0.05,-0.01 -0.12,0.01 -0.21,0.09 -0.21,0.21z"/>
   <polygon class="fil5" points="0.36,0.7 0.61,0.7 0.61,0.64 0.36,0.64 "/>
   <polygon class="fil6" points="0.36,0.82 0.55,0.82 0.55,0.76 0.36,0.76 "/>
   <polygon class="fil7" points="1.51,1.58 1.7,1.58 1.7,1.52 1.51,1.52 "/>
   <path class="fil8" d="M0.24 0.18l0.05 0c0.01,0 0.01,-0 0.01,-0.01l0 -0.05 -0.06 0 0 0.06z"/>
   <path class="fil9" d="M0.36 0.18l0.05 0c0.01,0 0.01,-0 0.01,-0.01l0 -0.05 -0.06 0 0 0.06z"/>
   <path class="fil10" d="M0.36 0.43l0.06 0 0 -0.05c0,-0.01 -0,-0.01 -0.01,-0.01l-0.05 0 0 0.06z"/>
   <path class="fil11" d="M0.48 0.37l0 0.05 0.06 0 0 -0.06 -0.05 0c-0.01,0 -0.01,0 -0.01,0.01z"/>
   <path class="fil12" d="M0.6 0.37l0 0.05 0.06 0 0 -0.06 -0.05 0c-0.01,0 -0.01,0 -0.01,0.01z"/>
   <polygon class="fil13" points="0.12,0.18 0.18,0.18 0.18,0.12 0.12,0.12 "/>
  </g>
 </g>
</svg>
