<?xml version="1.0" encoding="UTF-8"?>
<!DOCTYPE svg PUBLIC "-//W3C//DTD SVG 1.1//EN" "http://www.w3.org/Graphics/SVG/1.1/DTD/svg11.dtd">
<!-- Creator: CorelDRAW 2019 (64-Bit) -->
<svg xmlns="http://www.w3.org/2000/svg" xml:space="preserve" width="0.333339in" height="0.333331in" version="1.1" style="shape-rendering:geometricPrecision; text-rendering:geometricPrecision; image-rendering:optimizeQuality; fill-rule:evenodd; clip-rule:evenodd"
viewBox="0 0 20.05 20.05"
 xmlns:xlink="http://www.w3.org/1999/xlink"
 xmlns:xodm="http://www.corel.com/coreldraw/odm/2003">
 <defs>
  <style type="text/css">
   <![CDATA[
    .fil0 {fill:none}
    .fil1 {fill:#2B2A29;fill-rule:nonzero}
   ]]>
  </style>
 </defs>
 <g id="Layer_x0020_1">
  <metadata id="CorelCorpID_0Corel-Layer"/>
  <rect class="fil0" x="0" y="-0" width="20.05" height="20.05"/>
  <path class="fil1" d="M4.99 15.71c1.66,-1.38 2.98,-2.53 3.96,-3.46 0.98,-0.92 1.8,-1.89 2.46,-2.89 0.66,-1 0.98,-1.98 0.98,-2.95 0,-0.88 -0.21,-1.57 -0.62,-2.07 -0.41,-0.5 -1.05,-0.75 -1.92,-0.75 -0.86,0 -1.53,0.29 -1.99,0.87 -0.47,0.58 -0.71,1.37 -0.72,2.37l-3.52 0c0.07,-2.07 0.69,-3.64 1.85,-4.71 1.16,-1.07 2.64,-1.6 4.44,-1.6 1.97,0 3.48,0.52 4.53,1.57 1.05,1.04 1.58,2.42 1.58,4.13 0,1.35 -0.36,2.63 -1.09,3.86 -0.72,1.23 -1.55,2.29 -2.48,3.2 -0.93,0.91 -2.15,2 -3.65,3.27l7.64 0 0 3 -12.79 0 0 -2.69 1.35 -1.14z"/>
 </g>
</svg>
