<?xml version="1.0" encoding="UTF-8"?>
<!DOCTYPE svg PUBLIC "-//W3C//DTD SVG 1.1//EN" "http://www.w3.org/Graphics/SVG/1.1/DTD/svg11.dtd">
<!-- Creator: CorelDRAW 2019 (64-Bit) -->
<svg xmlns="http://www.w3.org/2000/svg" xml:space="preserve" width="0.333339in" height="0.333331in" version="1.1" style="shape-rendering:geometricPrecision; text-rendering:geometricPrecision; image-rendering:optimizeQuality; fill-rule:evenodd; clip-rule:evenodd"
viewBox="0 0 29.07 29.07"
 xmlns:xlink="http://www.w3.org/1999/xlink"
 xmlns:xodm="http://www.corel.com/coreldraw/odm/2003">
 <defs>
  <style type="text/css">
   <![CDATA[
    .fil0 {fill:none}
    .fil1 {fill:#2B2A29;fill-rule:nonzero}
   ]]>
  </style>
 </defs>
 <g id="Layer_x0020_1">
  <metadata id="CorelCorpID_0Corel-Layer"/>
  <rect class="fil0" x="0" y="-0" width="29.07" height="29.07"/>
  <path class="fil1" d="M5.6 8.29c0.12,-2.5 1.01,-4.44 2.65,-5.8 1.64,-1.36 3.8,-2.05 6.47,-2.05 1.83,0 3.39,0.32 4.69,0.96 1.3,0.64 2.28,1.5 2.95,2.59 0.66,1.09 0.99,2.32 0.99,3.7 0,1.58 -0.41,2.91 -1.22,4 -0.81,1.09 -1.78,1.82 -2.91,2.2l0 0.15c1.45,0.45 2.58,1.25 3.4,2.4 0.81,1.15 1.22,2.63 1.22,4.43 0,1.5 -0.34,2.84 -1.03,4.02 -0.69,1.18 -1.7,2.1 -3.04,2.76 -1.34,0.66 -2.95,0.99 -4.82,0.99 -2.83,0 -5.13,-0.71 -6.91,-2.14 -1.78,-1.43 -2.72,-3.53 -2.82,-6.31l5.1 0c0.05,1.23 0.47,2.21 1.26,2.95 0.79,0.74 1.87,1.11 3.25,1.11 1.28,0 2.26,-0.36 2.95,-1.07 0.69,-0.71 1.03,-1.63 1.03,-2.76 0,-1.5 -0.48,-2.58 -1.43,-3.23 -0.95,-0.65 -2.43,-0.98 -4.43,-0.98l-1.09 0 0 -4.32 1.09 0c3.55,0 5.33,-1.19 5.33,-3.57 0,-1.08 -0.32,-1.91 -0.96,-2.51 -0.64,-0.6 -1.56,-0.9 -2.76,-0.9 -1.18,0 -2.08,0.32 -2.72,0.96 -0.64,0.64 -1.01,1.45 -1.11,2.42l-5.14 0z"/>
 </g>
</svg>
