<?xml version="1.0" encoding="UTF-8"?>
<!DOCTYPE svg PUBLIC "-//W3C//DTD SVG 1.1//EN" "http://www.w3.org/Graphics/SVG/1.1/DTD/svg11.dtd">
<!-- Creator: CorelDRAW 2019 (64-Bit) -->
<svg xmlns="http://www.w3.org/2000/svg" xml:space="preserve" width="0.0666693in" height="0.0666654in" version="1.1" style="shape-rendering:geometricPrecision; text-rendering:geometricPrecision; image-rendering:optimizeQuality; fill-rule:evenodd; clip-rule:evenodd"
viewBox="0 0 1.61 1.61"
 xmlns:xlink="http://www.w3.org/1999/xlink"
 xmlns:xodm="http://www.corel.com/coreldraw/odm/2003">
 <defs>
  <style type="text/css">
   <![CDATA[
    .fil1 {fill:url(#id0)}
    .fil2 {fill:url(#id1)}
    .fil0 {fill:url(#id2)}
   ]]>
  </style>
  <linearGradient id="id0" gradientUnits="userSpaceOnUse" x1="0.74" y1="0.99" x2="0.74" y2="0.62">
   <stop offset="0" style="stop-opacity:1; stop-color:#262E45"/>
   <stop offset="1" style="stop-opacity:1; stop-color:#E3C2A0"/>
  </linearGradient>
  <linearGradient id="id1" gradientUnits="userSpaceOnUse" xlink:href="#id0" x1="0.74" y1="0.41" x2="0.74" y2="0.34">
  </linearGradient>
  <linearGradient id="id2" gradientUnits="userSpaceOnUse" xlink:href="#id0" x1="-0.01" y1="0.91" x2="-0.01" y2="0.03">
  </linearGradient>
 </defs>
 <g id="Layer_x0020_1">
  <metadata id="CorelCorpID_0Corel-Layer"/>
  <g id="_2493904338448">
   <path class="fil0" d="M0.81 1.48c-0.13,0 -0.24,-0.03 -0.34,-0.09 -0.04,-0.02 -0.06,-0.04 -0.1,-0.07 -0.01,-0.01 -0.01,-0.01 -0.02,-0.02 -0.06,-0.05 -0.12,-0.15 -0.16,-0.21 -0.08,-0.16 -0.08,-0.4 -0,-0.56 0.04,-0.07 0.04,-0.08 0.09,-0.15 0.03,-0.04 0.09,-0.09 0.13,-0.12 0.12,-0.08 0.24,-0.12 0.4,-0.12 0.11,0 0.24,0.04 0.32,0.09 0.04,0.02 0.06,0.04 0.1,0.07 0.02,0.02 0.06,0.06 0.08,0.08 0.1,0.13 0.16,0.26 0.16,0.44 0,0.14 -0.06,0.3 -0.14,0.4l-0.06 0.07 -0.07 0.06c-0.1,0.08 -0.26,0.14 -0.4,0.14zm-0.81 -0.7c0,0.14 0.02,0.25 0.07,0.37 0.04,0.09 0.09,0.16 0.16,0.23 0.14,0.14 0.35,0.24 0.54,0.24 0.14,0 0.25,-0.02 0.37,-0.07 0.18,-0.09 0.3,-0.21 0.39,-0.39 0.04,-0.09 0.08,-0.22 0.08,-0.32 0,-0.14 -0.02,-0.25 -0.07,-0.37 -0.02,-0.04 -0.05,-0.09 -0.07,-0.12 -0.04,-0.05 -0.09,-0.11 -0.14,-0.15 -0.07,-0.05 -0.09,-0.07 -0.18,-0.12 -0.07,-0.04 -0.2,-0.08 -0.32,-0.08 -0.15,0 -0.25,0.02 -0.37,0.07 -0.14,0.07 -0.23,0.15 -0.32,0.27 -0.08,0.11 -0.15,0.29 -0.15,0.44z"/>
   <path class="fil1" d="M0.74 0.68l0 0.51c0,0.09 0.08,0.1 0.12,0.06 0.01,-0.01 0.02,-0.03 0.02,-0.06l0 -0.52c0,-0.08 -0.09,-0.09 -0.12,-0.05 -0.01,0.01 -0.02,0.03 -0.02,0.06z"/>
   <path class="fil2" d="M0.8 0.34c-0.01,0 -0.03,-0 -0.05,0.02 -0.04,0.05 0,0.12 0.06,0.11 0.03,-0.01 0.07,-0.04 0.06,-0.08 -0,-0.02 -0.01,-0.04 -0.02,-0.05 -0.02,-0.01 -0.03,-0.02 -0.05,-0.01z"/>
  </g>
 </g>
</svg>
