<?xml version="1.0" encoding="UTF-8"?>
<!DOCTYPE svg PUBLIC "-//W3C//DTD SVG 1.1//EN" "http://www.w3.org/Graphics/SVG/1.1/DTD/svg11.dtd">
<!-- Creator: CorelDRAW 2019 (64-Bit) -->
<svg xmlns="http://www.w3.org/2000/svg" xml:space="preserve" width="0.0666693in" height="0.0659134in" version="1.1" style="shape-rendering:geometricPrecision; text-rendering:geometricPrecision; image-rendering:optimizeQuality; fill-rule:evenodd; clip-rule:evenodd"
viewBox="0 0 1.46 1.45"
 xmlns:xlink="http://www.w3.org/1999/xlink"
 xmlns:xodm="http://www.corel.com/coreldraw/odm/2003">
 <defs>
  <style type="text/css">
   <![CDATA[
    .fil2 {fill:url(#id0)}
    .fil0 {fill:url(#id1)}
    .fil1 {fill:url(#id2)}
   ]]>
  </style>
  <linearGradient id="id0" gradientUnits="userSpaceOnUse" x1="0.48" y1="0.69" x2="0.48" y2="0.66">
   <stop offset="0" style="stop-opacity:1; stop-color:#262E45"/>
   <stop offset="1" style="stop-opacity:1; stop-color:#E3C2A0"/>
  </linearGradient>
  <linearGradient id="id1" gradientUnits="userSpaceOnUse" xlink:href="#id0" x1="-0.01" y1="0.82" x2="-0.01" y2="0.02">
  </linearGradient>
  <linearGradient id="id2" gradientUnits="userSpaceOnUse" xlink:href="#id0" x1="0.48" y1="0.53" x2="0.48" y2="0.51">
  </linearGradient>
 </defs>
 <g id="Layer_x0020_1">
  <metadata id="CorelCorpID_0Corel-Layer"/>
  <g id="_2493904367280">
   <path class="fil0" d="M0.66 1.31l0.14 0c-0.01,0.04 -0.04,0.03 -0.11,0.03 -0.03,0 -0.03,-0.01 -0.03,-0.03zm0.8 -0.02l0 0.05c-0,0.03 -0.01,0.05 -0.03,0.08 -0.04,0.04 -0.09,0.03 -0.14,0.03 -0.02,0 -0.03,-0.03 -0.01,-0.04 0.03,-0.02 0.09,0.01 0.12,-0.02 0.02,-0.02 0.02,-0.04 0.02,-0.07l-0.57 0c0,0.05 -0.04,0.07 -0.09,0.07 -0.05,0 -0.14,0.01 -0.14,-0.07l-0.57 0c0,0.08 0.02,0.09 0.09,0.09l0.48 0c0.03,0 0.55,-0 0.56,0 0.02,0.01 0.02,0.04 -0.01,0.04l-1.07 0c-0.03,0 -0.06,-0.02 -0.07,-0.03 -0.01,-0.01 -0.03,-0.04 -0.03,-0.07 0,-0 0,-0.01 0,-0.01l0 -0.05c0,-0.03 0.01,-0.03 0.05,-0.03l0 -0.12c0,-0.03 0.05,-0.03 0.05,0l0 0.12 0.04 0 0 -0.61c0,-0.02 0.01,-0.03 0.02,-0.03l0.15 0 0 -0.05 -0.15 0c-0.02,0 -0.04,0.01 -0.05,0.03 -0.01,0.02 -0.01,0.03 -0.01,0.06l0 0.3c0,0.02 0.01,0.06 -0.01,0.07 -0.01,0.02 -0.04,0.01 -0.04,-0.02l0 -0.37c0,-0.07 0.05,-0.12 0.12,-0.12l0.14 0 0 -0.07c0,-0.03 0.01,-0.05 0.02,-0.07 0.01,-0.01 0.01,-0.02 0.02,-0.03 0.04,-0.05 0.08,-0.06 0.16,-0.06l0.44 0c0.03,0 0.05,0.01 0.06,-0.01l0.08 -0.11c0.01,-0.02 0.02,-0.03 0.04,-0.05 0.04,-0.06 0.07,-0.13 0.14,-0.13 0.03,0 0.05,0.01 0.07,0.03 0.07,0.07 -0.02,0.15 -0.03,0.18 0.02,0.03 0.03,0.06 0.02,0.1 -0.01,0.02 -0.08,0.12 -0.1,0.14 -0.02,0.03 -0.05,0.01 -0.05,-0.01 0,-0.01 0.05,-0.07 0.06,-0.08 0.05,-0.07 0.06,-0.07 0.04,-0.12 -0.01,0 -0.01,0.01 -0.02,0.02l-0.09 0.12c-0.01,0.01 -0.01,0.02 -0.02,0.02 -0.02,0.03 -0.01,0.04 -0.01,0.11l0.15 0c0.07,0 0.12,0.05 0.12,0.12l0 0.62c0.02,0 0.05,-0 0.05,0.02 0,0 0,0.01 0,0.01zm-0.59 -0.64c0,-0.02 0,-0.03 0,-0.05 0.01,0 0.04,0.03 0.05,0.03 -0.02,0 -0.03,0.01 -0.05,0.01zm0.27 -0.08l0.16 0c0.03,0 0.06,0.03 0.06,0.07l0 0.63 -0.04 0 0 -0.61c0,-0.02 -0.01,-0.03 -0.02,-0.03l-0.16 0 0 -0.05zm-0.29 0.13c0.01,0 0.1,-0.03 0.12,-0.04 0.02,-0.01 0.06,-0.07 0.08,-0.09l0.05 -0.06c0,0.07 0,0.14 0,0.22 0,0.05 0,0.06 -0.02,0.09 -0.04,0.06 -0.1,0.05 -0.11,0.06 -0.01,0.01 -0.01,0.03 0,0.04 0.02,0.02 0.17,-0.02 0.17,-0.16l0 -0.09 0.14 0 0 0.6 -1.09 0 0 -0.6 0.13 0c0,0.07 -0.01,0.15 0.04,0.2 0.03,0.03 0.05,0.04 0.09,0.05l0 0.16c0,0.02 0.02,0.03 0.03,0.02 0.01,-0 0.14,-0.14 0.17,-0.17 0.02,-0.02 0.01,-0.01 0.04,-0.01l0.17 0c0.06,0 0.04,-0.05 0.02,-0.05l-0.22 0c-0.02,0 -0.03,0.02 -0.04,0.03 -0.02,0.02 -0.1,0.11 -0.12,0.12 0,-0.03 -0,-0.06 0,-0.09 0,-0.1 -0.03,-0.02 -0.1,-0.09 -0.01,-0.01 -0.03,-0.04 -0.03,-0.07l0 -0.32c0,-0.05 0.04,-0.09 0.08,-0.1 0.03,-0.01 0.48,-0 0.54,-0 -0.01,0.02 -0.11,0.16 -0.14,0.19 -0.01,0.02 -0.01,0.03 -0.01,0.06 0,0.02 0,0.05 -0,0.07 -0,0.02 -0,0.04 0.02,0.04zm0.12 -0.09c-0.01,-0 -0.01,-0.01 -0.02,-0.01l-0.04 -0.03c-0.01,-0.01 -0.01,-0.01 -0.02,-0.01l0.14 -0.19c0.01,-0.02 0.02,-0.03 0.03,-0.05l0.09 -0.12c0.01,-0.01 0.01,-0.02 0.02,-0.03 0.01,0 0.03,0.02 0.04,0.03 0.01,0.01 0.03,0.03 0.04,0.03 -0.01,0.02 -0.27,0.37 -0.28,0.39zm0.31 -0.43c-0.01,-0 -0.01,-0.01 -0.02,-0.01l-0.06 -0.04c0.01,-0.01 0.02,-0.03 0.03,-0.04 0.02,-0.03 0.03,-0.03 0.06,-0.03 0.02,0 0.04,0.02 0.04,0.05 0,0.02 -0.03,0.06 -0.05,0.08z"/>
   <path class="fil1" d="M0.48 0.53c0,0.01 0.02,0.02 0.03,0.02l0.22 0c0.04,0 0.04,-0.05 0.01,-0.05l-0.24 0c-0.01,0 -0.02,0.01 -0.02,0.02z"/>
   <path class="fil2" d="M0.48 0.68c0,0.02 0.02,0.02 0.04,0.02l0.21 0c0.05,0 0.04,-0.05 0.01,-0.05l-0.24 0c-0.01,0 -0.01,0 -0.02,0.01 -0,0 -0.01,0.01 -0.01,0.02z"/>
  </g>
 </g>
</svg>
