<?xml version="1.0" encoding="UTF-8"?>
<!DOCTYPE svg PUBLIC "-//W3C//DTD SVG 1.1//EN" "http://www.w3.org/Graphics/SVG/1.1/DTD/svg11.dtd">
<!-- Creator: CorelDRAW 2019 (64-Bit) -->
<svg xmlns="http://www.w3.org/2000/svg" xml:space="preserve" width="0.064748in" height="0.0645669in" version="1.1" style="shape-rendering:geometricPrecision; text-rendering:geometricPrecision; image-rendering:optimizeQuality; fill-rule:evenodd; clip-rule:evenodd"
viewBox="0 0 1.4 1.39"
 xmlns:xlink="http://www.w3.org/1999/xlink"
 xmlns:xodm="http://www.corel.com/coreldraw/odm/2003">
 <defs>
  <style type="text/css">
   <![CDATA[
    .fil1 {fill:url(#id0)}
    .fil4 {fill:url(#id1)}
    .fil2 {fill:url(#id2)}
    .fil3 {fill:url(#id3)}
    .fil0 {fill:url(#id4)}
   ]]>
  </style>
  <linearGradient id="id0" gradientUnits="userSpaceOnUse" x1="1.12" y1="1.14" x2="1.12" y2="0.82">
   <stop offset="0" style="stop-opacity:1; stop-color:#262E45"/>
   <stop offset="1" style="stop-opacity:1; stop-color:#E3C2A0"/>
  </linearGradient>
  <linearGradient id="id1" gradientUnits="userSpaceOnUse" xlink:href="#id0" x1="0.46" y1="1.31" x2="0.46" y2="1.21">
  </linearGradient>
  <linearGradient id="id2" gradientUnits="userSpaceOnUse" xlink:href="#id0" x1="0.47" y1="0.14" x2="0.47" y2="0">
  </linearGradient>
  <linearGradient id="id3" gradientUnits="userSpaceOnUse" xlink:href="#id0" x1="0.78" y1="1.22" x2="0.78" y2="1.01">
  </linearGradient>
  <linearGradient id="id4" gradientUnits="userSpaceOnUse" xlink:href="#id0" x1="-0.01" y1="0.89" x2="-0.01" y2="0.28">
  </linearGradient>
 </defs>
 <g id="Layer_x0020_1">
  <metadata id="CorelCorpID_0Corel-Layer"/>
  <g id="_2493684762416">
   <path class="fil0" d="M0.65 0.94l0 0.19 -0.1 0c0,-0.01 0.01,-0.02 0.02,-0.04l0.02 -0.15c0.01,-0.04 0.03,-0.16 0.03,-0.19 0.02,0 0.06,0.01 0.08,0.02 0.08,0.01 0.06,-0 0.06,0.16l-0.1 0c-0.01,0 -0.02,0.01 -0.02,0.02zm-0.07 -0.2c-0,0.04 -0.04,0.28 -0.05,0.33 -0,0.01 -0,0.03 -0.03,0.04 -0.02,0 -0.03,-0.01 -0.04,-0.02l0.03 -0.29c0.01,-0.11 -0,-0.09 0.03,-0.07 0.01,0 0.04,0.01 0.05,0.01zm-0.1 -0.43c0.03,0 0.07,0.01 0.09,0.01 0.04,0 0.12,0 0.15,0.01 0.01,0 0.01,0.01 0.02,0.01l0.03 0.03c0.03,0.03 0.07,0.06 0.12,0.06 0.02,0 0.03,-0.01 0.05,-0.01 0.02,-0.01 0.06,-0.03 0.06,0.01 0,0.01 -0.02,0.02 -0.03,0.02 -0.01,0 -0.02,0.01 -0.04,0.01 -0.05,0.02 -0.08,0.02 -0.12,-0 -0.01,-0.01 -0.02,-0.01 -0.03,-0.02 -0.01,-0.01 -0.06,-0.04 -0.07,-0.04 -0.02,0 -0.03,0 -0.03,0.06 0,0.02 0,0.05 0,0.07 0,0.03 -0,0.04 -0,0.07 0,0.06 -0.01,0.05 0.08,0.07 0.15,0.04 0.12,0.04 0.12,0.27l-0.06 0 0 -0.13c0,-0.07 -0.08,-0.07 -0.15,-0.09 -0.17,-0.04 -0.16,-0.02 -0.16,-0.2 0,-0.04 0,-0.08 0,-0.12 -0,-0.04 -0.03,-0.03 -0.06,0 -0.03,0.03 -0.05,0.05 -0.07,0.08 -0.02,0.02 -0.03,0.03 -0.04,0.05l-0.04 0.14c-0.01,0.01 -0.03,0.01 -0.04,0 -0.01,-0.01 -0,-0.03 0,-0.04 0,-0.02 0.02,-0.11 0.03,-0.12l0.04 -0.05c0.01,-0.01 0.01,-0.01 0.01,-0.02 0.02,-0.02 0.08,-0.09 0.1,-0.11 0.01,-0.01 0.03,-0.02 0.04,-0.02zm-0.28 0.33c0,0.09 0.11,0.1 0.13,0.02l0.03 -0.08c0,-0.02 0.01,-0.03 0.01,-0.04 0.01,-0.02 0.05,-0.06 0.07,-0.08 0.01,-0.01 0,-0.01 0.01,-0.01 0,0.05 -0.01,0.16 0.01,0.2 0,0.02 0,0.02 0,0.04 -0,0.03 -0,0.05 -0.01,0.08 -0.01,0.06 -0.03,0.28 -0.03,0.32 0,0.01 0.01,0.03 0.02,0.04 -0.02,0 -0.05,0 -0.07,0 -0.03,0 -0.05,-0 -0.05,0.02l0 0.19 -0.29 0c-0.03,0 -0.03,0.04 -0,0.04l0.31 0c0.01,0 0.02,-0.01 0.02,-0.02l0 -0.19 0.31 0c0.02,0 0.03,-0.01 0.03,-0.02l0 -0.18 0.31 0c0.01,0 0.02,-0.01 0.02,-0.02l0 -0.19 0.34 0c0.04,0 0.04,-0.04 0.01,-0.04l-0.37 0c-0.01,0 -0.02,0.01 -0.02,0.02l0 0.19 -0.08 0 0 -0.17c0,-0.06 -0.03,-0.09 -0.06,-0.12 -0.02,-0.02 -0.11,-0.03 -0.14,-0.04 0,-0.05 0,-0.1 0,-0.15 0.09,0.06 0.11,0.1 0.25,0.04 0.02,-0.01 0.03,-0.01 0.05,-0.02 0.04,-0.03 0.03,-0.11 -0.04,-0.11 -0.01,0 -0.03,0.01 -0.05,0.01 -0.09,0.03 -0.07,0.01 -0.17,-0.06 -0.03,-0.02 -0.06,-0.03 -0.1,-0.03 -0.05,0 -0.13,-0.01 -0.19,-0.01 -0.06,0 -0.11,0.09 -0.15,0.13l-0.08 0.09c-0.01,0.02 -0.02,0.07 -0.03,0.09 -0,0.02 -0.01,0.05 -0.01,0.07z"/>
   <path class="fil1" d="M1.12 0.9c0,0.01 0.01,0.02 0.02,0.02 0.02,0 0.02,-0.02 0.04,-0.03l-0 0.45c-0,0.06 0.05,0.06 0.05,0l-0 -0.45c0.01,0.01 0.02,0.03 0.04,0.03 0.01,0 0.02,-0.01 0.02,-0.02 0,-0.02 -0.07,-0.08 -0.08,-0.08 -0.01,-0 -0.08,0.07 -0.08,0.08z"/>
   <path class="fil2" d="M0.51 0.12c0,-0.03 0.02,-0.06 0.05,-0.07 0.09,-0.04 0.15,0.09 0.07,0.14 -0.03,0.02 -0.08,0.01 -0.1,-0.02 -0.01,-0.01 -0.01,-0.03 -0.01,-0.04zm-0.04 0c0,0.04 0.02,0.07 0.04,0.09 0.12,0.11 0.29,-0.06 0.17,-0.17 -0.08,-0.08 -0.21,-0.02 -0.21,0.09z"/>
   <path class="fil3" d="M0.84 1.08l0 0.24c0,0.03 -0.01,0.05 0.01,0.06 0,0 0.01,0 0.01,0 0.03,0 0.03,-0.03 0.03,-0.06l0 -0.25c0.01,0.01 0.02,0.02 0.03,0.03 0.01,0.01 0.03,-0.01 0.03,-0.02 0,-0.02 -0.07,-0.08 -0.08,-0.08 -0.01,0 -0.06,0.05 -0.08,0.07 -0.02,0.02 -0,0.04 0.01,0.04 0.02,0 0.03,-0.02 0.04,-0.03z"/>
   <path class="fil4" d="M0.48 1.31c0.03,0 0.02,-0.02 0.04,-0.03 0,0.03 -0.01,0.09 0.01,0.11 0,0 0.01,0.01 0.01,0.01 0.03,0 0.03,-0.02 0.03,-0.04 -0,-0.02 0,-0.05 0,-0.07 0.01,0.01 0.02,0.03 0.04,0.03 0.01,0 0.02,-0.01 0.02,-0.02 0,-0.02 -0.03,-0.04 -0.04,-0.05 -0.01,-0.01 -0.02,-0.02 -0.02,-0.02 -0.03,-0.03 -0.04,0.01 -0.08,0.04 -0.01,0.01 -0.02,0.02 -0.02,0.03 -0,0.01 0.01,0.03 0.02,0.03z"/>
  </g>
 </g>
</svg>
