<?xml version="1.0" encoding="UTF-8"?>
<!DOCTYPE svg PUBLIC "-//W3C//DTD SVG 1.1//EN" "http://www.w3.org/Graphics/SVG/1.1/DTD/svg11.dtd">
<!-- Creator: CorelDRAW 2019 (64-Bit) -->
<svg xmlns="http://www.w3.org/2000/svg" xml:space="preserve" width="0.0518504in" height="0.0625157in" version="1.1" style="shape-rendering:geometricPrecision; text-rendering:geometricPrecision; image-rendering:optimizeQuality; fill-rule:evenodd; clip-rule:evenodd"
viewBox="0 0 0.9 1.09"
 xmlns:xlink="http://www.w3.org/1999/xlink"
 xmlns:xodm="http://www.corel.com/coreldraw/odm/2003">
 <defs>
  <style type="text/css">
   <![CDATA[
    .fil5 {fill:url(#id0)}
    .fil2 {fill:url(#id1)}
    .fil4 {fill:url(#id2)}
    .fil3 {fill:url(#id3)}
    .fil0 {fill:url(#id4)}
    .fil1 {fill:url(#id5)}
   ]]>
  </style>
  <linearGradient id="id0" gradientUnits="userSpaceOnUse" x1="0.44" y1="0.44" x2="0.44" y2="0.38">
   <stop offset="0" style="stop-opacity:1; stop-color:#262E45"/>
   <stop offset="1" style="stop-opacity:1; stop-color:#E3C2A0"/>
  </linearGradient>
  <linearGradient id="id1" gradientUnits="userSpaceOnUse" xlink:href="#id0" x1="0.36" y1="0.14" x2="0.36" y2="0">
  </linearGradient>
  <linearGradient id="id2" gradientUnits="userSpaceOnUse" xlink:href="#id0" x1="0.62" y1="0.23" x2="0.62" y2="0.14">
  </linearGradient>
  <linearGradient id="id3" gradientUnits="userSpaceOnUse" xlink:href="#id0" x1="0.19" y1="0.23" x2="0.19" y2="0.14">
  </linearGradient>
  <linearGradient id="id4" gradientUnits="userSpaceOnUse" xlink:href="#id0" x1="-0" y1="0.86" x2="-0" y2="0.58">
  </linearGradient>
  <linearGradient id="id5" gradientUnits="userSpaceOnUse" xlink:href="#id0" x1="0.31" y1="0.49" x2="0.31" y2="0.29">
  </linearGradient>
 </defs>
 <g id="Layer_x0020_1">
  <metadata id="CorelCorpID_0Corel-Layer"/>
  <g id="_2493909333536">
   <path class="fil0" d="M0.1 0.8c0.03,0 0.03,0 0.05,0.03 0.04,0.04 0.09,0.09 0.13,0.13 0.03,0.04 0.02,0.05 -0.01,0.08 -0.01,0.01 -0.02,0.02 -0.03,0.03l-0.2 -0.2c0.01,-0.01 0.02,-0.02 0.03,-0.03 0.01,-0.01 0.02,-0.03 0.04,-0.03zm0.19 0.13l-0.14 -0.14c0.01,-0.02 0.04,-0.06 0.06,-0.07 0.05,-0.03 0.1,-0.04 0.16,-0.03 0.01,0 0.03,0.01 0.04,0.01l0.19 -0c0.07,-0 0.06,0.06 0.03,0.08 -0.02,0.01 -0.09,0.01 -0.12,0.01 -0.03,0 -0.05,-0.01 -0.05,0.02 0,0.01 0.01,0.01 0.02,0.01l0.12 0c0.04,0 0.07,-0.03 0.07,-0.06 0,-0.03 -0.01,-0.02 0.03,-0.05l0.08 -0.08c0.04,-0.04 0.08,-0.01 0.08,0.02 0,0.02 -0.03,0.05 -0.04,0.07 -0.04,0.06 -0.1,0.14 -0.15,0.17 -0.03,0.02 -0.06,0.02 -0.09,0.02l-0.22 0c-0.05,-0 -0.06,0.02 -0.08,0.03zm0.38 -0.22c-0.01,-0.01 -0.02,-0.02 -0.03,-0.02 -0.03,-0.01 -0.2,0 -0.24,-0.01 -0.09,-0.02 -0.18,-0.02 -0.24,0.05 -0.01,0.01 -0.03,0.03 -0.03,0.04 -0.03,-0 -0.04,-0.02 -0.09,0.03 -0.06,0.06 -0.06,0.05 -0.02,0.08l0.18 0.18c0.04,0.04 0.03,0.04 0.08,-0.02 0.02,-0.02 0.05,-0.04 0.03,-0.08l-0.01 -0.01c0.02,-0.03 0.04,-0.03 0.08,-0.03l0.23 0c0.11,0 0.19,-0.14 0.25,-0.23 0.03,-0.03 0.04,-0.07 0,-0.11 -0.03,-0.03 -0.07,-0.03 -0.1,0l-0.11 0.11z"/>
   <path class="fil1" d="M0.5 0.62c-0.06,0 -0.05,-0.01 -0.08,-0.02 0,-0.03 0.04,-0.07 0.07,-0.07 0.01,0 0.02,0 0.03,0.01 0.01,0 0.02,0.01 0.02,0.02l0 0c0,0 0,0 0,0 0.01,0.01 0.02,0.02 0.02,0.04 0,0.01 -0.05,0.02 -0.07,0.02zm0.09 -0.04c-0.01,-0.04 -0.05,-0.07 -0.09,-0.07 -0.05,0 -0.09,0.03 -0.1,0.07 -0.02,-0.01 -0.03,-0.03 -0.04,-0.05l-0.01 -0.03c-0.02,-0.07 0.01,-0.16 0.08,-0.19 0.04,-0.02 0.1,-0.02 0.14,0 0.1,0.05 0.11,0.17 0.05,0.24 -0.01,0.01 -0.02,0.02 -0.02,0.02zm-0.28 -0.12c0,0.08 0.04,0.14 0.11,0.17 0.06,0.03 0.13,0.02 0.18,-0.02 0.09,-0.06 0.11,-0.2 0.03,-0.28 -0.12,-0.12 -0.31,-0.03 -0.31,0.12z"/>
   <path class="fil2" d="M0.4 0.11c0.07,-0.01 0.06,-0 0.07,-0.04 0,-0 0,-0.01 0.01,-0.01 0,-0.01 0,-0.01 0.01,-0.01 0,0.01 0.01,0.02 0.01,0.02 0.02,0.05 0.02,0.02 0.07,0.04 -0.01,0.01 -0.04,0.04 -0.04,0.04 0,0.02 0.01,0.04 0.01,0.06 -0.01,-0 -0.05,-0.03 -0.05,-0.03 -0.01,0 -0.05,0.03 -0.05,0.03 0,-0.03 0.02,-0.05 0,-0.07l-0.04 -0.03zm0.04 -0.03c-0.02,0 -0.03,0 -0.05,0 -0,0 -0.07,-0 -0.03,0.03l0.03 0.03c0,0 0.01,0.01 0.02,0.01 -0,0.01 -0,0.02 -0.01,0.02l-0.01 0.05c-0,0.01 0.01,0.02 0.01,0.02 0.01,0 0.07,-0.04 0.07,-0.04 0.01,0 0.03,0.01 0.04,0.02 0.01,0 0.03,0.02 0.04,0.02 0.03,0 -0,-0.06 -0,-0.09 0.01,-0.01 0.03,-0.02 0.04,-0.03 0.01,-0 0.02,-0.02 0.02,-0.03 -0.01,-0.02 -0.01,-0.01 -0.04,-0.02 -0.02,-0 -0.03,-0 -0.05,-0 -0,-0.01 -0.01,-0.01 -0.01,-0.02 -0,-0.01 -0.01,-0.01 -0.01,-0.02 -0.01,-0.03 -0.01,-0.04 -0.03,-0.04 -0.01,0 -0.01,0.01 -0.01,0.02 -0.01,0.02 -0.02,0.05 -0.03,0.06z"/>
   <path class="fil3" d="M0.24 0.21c0.01,0 0.02,0 0.03,-0.01 0.01,-0.01 0,-0.01 0.01,-0.02 0.01,0.03 0.02,0.03 0.04,0.03 -0,0.01 -0.02,0.01 -0.02,0.02 0,0.01 0,0.02 0,0.03 -0.02,-0.02 -0.02,-0.02 -0.05,0 0,-0.02 0.01,-0.02 -0.01,-0.04 -0.01,-0.01 -0.01,-0.01 -0.01,-0.01zm0.01 -0.02c-0.01,0 -0.02,0 -0.03,0 -0.03,0 -0.02,0.02 -0.02,0.03 0,0 0.01,0 0.01,0.01 0,0 0.01,0 0.01,0.01 0,0 0.01,0.01 0.01,0.01 -0,0 -0.02,0.06 0,0.06 0.01,0 0.04,-0.02 0.04,-0.02 0.01,-0 0.07,0.05 0.06,-0 -0,-0.01 -0.01,-0.03 -0.01,-0.03 0,-0 0.04,-0.03 0.04,-0.04 0,-0.01 -0.01,-0.02 -0.02,-0.02 -0.01,-0 -0.02,-0 -0.04,-0 -0,-0.01 -0.02,-0.05 -0.03,-0.05 -0.01,0 -0.02,0.03 -0.03,0.05z"/>
   <path class="fil4" d="M0.73 0.26l0 0zm-0.05 0l0 0zm0.05 0c-0.01,-0 -0.01,-0.01 -0.02,-0.01 -0.01,0 -0.01,0.01 -0.02,0.01 0,-0.01 0.01,-0.02 0,-0.03 -0,-0.01 -0.01,-0.01 -0.02,-0.02 0.03,0 0.03,-0 0.04,-0.02l0 0c0,0.03 0.02,0.02 0.04,0.02 -0.01,0.01 -0.01,0.01 -0.02,0.02 -0.01,0.01 0,0.01 0,0.03zm-0.05 -0.07c-0.02,0 -0.03,0 -0.05,0 -0.01,0.01 -0.01,0 -0.01,0.02 0,0.01 0.03,0.03 0.04,0.04 0,0 -0.03,0.08 0.02,0.05 0.01,-0.01 0.02,-0.01 0.03,-0.02 0.01,0 0.06,0.04 0.06,0.01 0,-0.02 -0.01,-0.03 -0.01,-0.05 0,-0.01 0.04,-0.03 0.04,-0.04 0,-0.02 -0.03,-0.02 -0.05,-0.02 -0,-0.01 -0.01,-0.02 -0.01,-0.03 -0.02,-0.06 -0.04,0 -0.05,0.03z"/>
   <path class="fil5" d="M0.5 0.47c-0.03,0 -0.03,-0.06 0,-0.06 0.03,0 0.03,0.06 -0,0.06zm-0.05 -0.03c0,0.03 0.02,0.06 0.05,0.06 0.03,0 0.06,-0.02 0.06,-0.05l0 -0.01c0,-0.02 -0.02,-0.05 -0.05,-0.05 -0.03,0 -0.05,0.03 -0.05,0.05z"/>
  </g>
 </g>
</svg>
