<?xml version="1.0" encoding="UTF-8"?>
<!DOCTYPE svg PUBLIC "-//W3C//DTD SVG 1.1//EN" "http://www.w3.org/Graphics/SVG/1.1/DTD/svg11.dtd">
<!-- Creator: CorelDRAW 2019 (64-Bit) -->
<svg xmlns="http://www.w3.org/2000/svg" xml:space="preserve" width="0.0666693in" height="0.0666654in" version="1.1" style="shape-rendering:geometricPrecision; text-rendering:geometricPrecision; image-rendering:optimizeQuality; fill-rule:evenodd; clip-rule:evenodd"
viewBox="0 0 1.57 1.57"
 xmlns:xlink="http://www.w3.org/1999/xlink"
 xmlns:xodm="http://www.corel.com/coreldraw/odm/2003">
 <defs>
  <style type="text/css">
   <![CDATA[
    .fil2 {fill:url(#id0)}
    .fil1 {fill:url(#id1)}
    .fil0 {fill:url(#id2)}
   ]]>
  </style>
  <linearGradient id="id0" gradientUnits="userSpaceOnUse" x1="0.72" y1="1.16" x2="0.72" y2="1.09">
   <stop offset="0" style="stop-opacity:1; stop-color:#262E45"/>
   <stop offset="1" style="stop-opacity:1; stop-color:#E3C2A0"/>
  </linearGradient>
  <linearGradient id="id1" gradientUnits="userSpaceOnUse" xlink:href="#id0" x1="0.72" y1="0.76" x2="0.72" y2="0.49">
  </linearGradient>
  <linearGradient id="id2" gradientUnits="userSpaceOnUse" xlink:href="#id0" x1="-0.01" y1="0.89" x2="-0.01" y2="0.03">
  </linearGradient>
 </defs>
 <g id="Layer_x0020_1">
  <metadata id="CorelCorpID_0Corel-Layer"/>
  <g id="_2495281259696">
   <path class="fil0" d="M0.78 0.12c0.08,0 0.11,0.07 0.14,0.13l0.49 0.97c0.02,0.04 0.03,0.05 0.04,0.09 0,0.02 -0,0.04 -0.01,0.05 -0.02,0.05 -0.07,0.08 -0.12,0.08l-1.06 0c-0.08,0 -0.14,-0.07 -0.13,-0.13 0.01,-0.05 0.06,-0.13 0.08,-0.18l0.44 -0.88c0.01,-0.03 0.03,-0.06 0.05,-0.08 0.02,-0.02 0.05,-0.04 0.09,-0.04zm-0.78 1.19c0,0.08 0.02,0.14 0.07,0.19 0.03,0.03 0.1,0.07 0.16,0.07l1.1 0c0.12,0 0.23,-0.11 0.23,-0.23 0,-0.1 -0.03,-0.14 -0.07,-0.21l-0.26 -0.52c-0.06,-0.12 -0.12,-0.23 -0.17,-0.35 -0.03,-0.05 -0.06,-0.12 -0.09,-0.17 -0.03,-0.04 -0.1,-0.09 -0.18,-0.09l-0.02 0c-0.07,0 -0.14,0.04 -0.18,0.09 -0.03,0.04 -0.07,0.11 -0.09,0.17l-0.35 0.69c-0.03,0.06 -0.06,0.12 -0.09,0.17 -0.02,0.05 -0.07,0.12 -0.07,0.19z"/>
   <polygon class="fil1" points="0.72,0.97 0.85,0.97 0.85,0.48 0.72,0.48 "/>
   <path class="fil2" d="M0.72 1.14l0 0.02c0,0.02 0.03,0.05 0.05,0.05l0.02 0c0.02,0 0.05,-0.03 0.05,-0.05l0 -0.02c0,-0.02 -0.03,-0.05 -0.05,-0.05l-0.02 0c-0.02,0 -0.05,0.03 -0.05,0.05z"/>
  </g>
 </g>
</svg>
