<?xml version="1.0" encoding="UTF-8"?>
<!DOCTYPE svg PUBLIC "-//W3C//DTD SVG 1.1//EN" "http://www.w3.org/Graphics/SVG/1.1/DTD/svg11.dtd">
<!-- Creator: CorelDRAW 2019 (64-Bit) -->
<svg xmlns="http://www.w3.org/2000/svg" xml:space="preserve" width="0.0666614in" height="0.0666614in" version="1.1" style="shape-rendering:geometricPrecision; text-rendering:geometricPrecision; image-rendering:optimizeQuality; fill-rule:evenodd; clip-rule:evenodd"
viewBox="0 0 1.39 1.39"
 xmlns:xlink="http://www.w3.org/1999/xlink"
 xmlns:xodm="http://www.corel.com/coreldraw/odm/2003">
 <defs>
  <style type="text/css">
   <![CDATA[
    .fil1 {fill:#FEFEFE}
    .fil0 {fill:url(#id0)}
   ]]>
  </style>
  <linearGradient id="id0" gradientUnits="userSpaceOnUse" x1="-0.01" y1="0.78" x2="-0.01" y2="0.02">
   <stop offset="0" style="stop-opacity:1; stop-color:#262E45"/>
   <stop offset="1" style="stop-opacity:1; stop-color:#E3C2A0"/>
  </linearGradient>
 </defs>
 <g id="Layer_x0020_1">
  <metadata id="CorelCorpID_0Corel-Layer"/>
  <path class="fil0" d="M1.26 1.26l0 0zm-0.76 -1.26l0.06 0c0.07,0 0.13,0.02 0.19,0.05 0.12,0.06 0.19,0.13 0.25,0.25 0.02,0.05 0.05,0.13 0.05,0.2 0.03,0 0.1,0.04 0.13,0.06 0.07,0.05 0.14,0.12 0.17,0.21 0.02,0.05 0.03,0.1 0.03,0.15l0 0.04c-0,0.06 -0.02,0.11 -0.04,0.16 -0,0.01 -0.01,0.02 -0.01,0.02 -0.01,0.01 -0.01,0.01 -0.01,0.02l0.03 0.11c0.01,0.02 0.03,0.1 0.03,0.11 -0.02,-0 -0.2,-0.06 -0.22,-0.06 -0.01,-0 -0,-0 -0.01,0 -0,0 -0.01,0 -0.01,0.01 -0.08,0.04 -0.13,0.05 -0.21,0.05l-0.01 0c-0.19,-0 -0.37,-0.15 -0.41,-0.33 -0.05,0 -0.1,-0.01 -0.14,-0.02 -0.03,-0.01 -0.06,-0.02 -0.09,-0.04 -0.03,-0.01 -0.02,-0.01 -0.03,-0.01l-0.03 0.01c-0.02,0.01 -0.21,0.06 -0.22,0.06 0,-0.01 0.03,-0.11 0.03,-0.13 0.01,-0.02 0.01,-0.04 0.02,-0.06 0.03,-0.1 0.02,-0.04 -0.02,-0.15 -0.03,-0.08 -0.03,-0.11 -0.03,-0.2l0 -0.02c0,-0.07 0.03,-0.15 0.05,-0.2 0.02,-0.03 0.03,-0.05 0.05,-0.08 0.01,-0.01 0.02,-0.02 0.03,-0.04 0.03,-0.03 0.03,-0.04 0.06,-0.06 0.01,-0.01 0.02,-0.02 0.03,-0.03 0.08,-0.06 0.18,-0.09 0.28,-0.1zm0.76 1.26c-0.01,-0 -0.08,-0.02 -0.1,-0.03 -0.01,-0 -0.01,-0 -0.02,0 -0.01,0.01 -0.01,0.01 -0.02,0.01 -0.11,0.07 -0.26,0.07 -0.37,-0 -0.04,-0.02 -0.06,-0.04 -0.09,-0.07 -0.02,-0.02 -0.04,-0.05 -0.05,-0.08 -0.01,-0.01 -0.02,-0.03 -0.02,-0.05 0.01,-0 0.03,-0.01 0.05,-0.01 0.04,-0.01 0.09,-0.03 0.13,-0.05 0.07,-0.04 0.14,-0.09 0.19,-0.16 0.05,-0.06 0.09,-0.17 0.1,-0.25 0.03,0 0.1,0.05 0.12,0.07 0.03,0.03 0.03,0.03 0.06,0.07 0.03,0.04 0.05,0.09 0.06,0.13 0.02,0.1 -0,0.21 -0.05,0.28 -0.01,0.02 -0.01,0.02 0.01,0.07 0,0.01 0.01,0.04 0.01,0.05zm-1.14 -0.33l0 0zm0 0l0 0z"/>
  <path class="fil1" d="M0.37 0.41l0.08 0c0,-0.02 0.01,-0.04 0.02,-0.06 0.05,-0.05 0.14,-0.02 0.14,0.06 0,0.02 -0.01,0.04 -0.02,0.05 -0.01,0.01 -0.02,0.02 -0.04,0.03 -0.08,0.08 -0.07,0.03 -0.07,0.16l0.08 0c0,-0.09 -0.01,-0.05 0.04,-0.1l0.04 -0.04c0.1,-0.1 0.02,-0.27 -0.11,-0.27 -0.06,0 -0.09,0.01 -0.13,0.05 -0.02,0.02 -0.05,0.07 -0.05,0.11z"/>
  <polygon class="fil1" points="0.49,0.81 0.57,0.81 0.57,0.73 0.49,0.73 "/>
 </g>
</svg>
