<?xml version="1.0" encoding="UTF-8"?>
<!DOCTYPE svg PUBLIC "-//W3C//DTD SVG 1.1//EN" "http://www.w3.org/Graphics/SVG/1.1/DTD/svg11.dtd">
<!-- Creator: CorelDRAW 2019 (64-Bit) -->
<svg xmlns="http://www.w3.org/2000/svg" xml:space="preserve" width="0.0666693in" height="0.0666654in" version="1.1" style="shape-rendering:geometricPrecision; text-rendering:geometricPrecision; image-rendering:optimizeQuality; fill-rule:evenodd; clip-rule:evenodd"
viewBox="0 0 1.66 1.66"
 xmlns:xlink="http://www.w3.org/1999/xlink"
 xmlns:xodm="http://www.corel.com/coreldraw/odm/2003">
 <defs>
  <style type="text/css">
   <![CDATA[
    .fil3 {fill:url(#id0)}
    .fil4 {fill:url(#id1)}
    .fil0 {fill:url(#id2)}
    .fil1 {fill:url(#id3)}
    .fil5 {fill:url(#id4)}
    .fil2 {fill:url(#id5)}
   ]]>
  </style>
  <linearGradient id="id0" gradientUnits="userSpaceOnUse" x1="1.03" y1="1.18" x2="1.03" y2="0.97">
   <stop offset="0" style="stop-opacity:1; stop-color:#262E45"/>
   <stop offset="1" style="stop-opacity:1; stop-color:#E3C2A0"/>
  </linearGradient>
  <linearGradient id="id1" gradientUnits="userSpaceOnUse" xlink:href="#id0" x1="0.2" y1="0.89" x2="0.2" y2="0.83">
  </linearGradient>
  <linearGradient id="id2" gradientUnits="userSpaceOnUse" xlink:href="#id0" x1="-0.01" y1="0.82" x2="-0.01" y2="0.02">
  </linearGradient>
  <linearGradient id="id3" gradientUnits="userSpaceOnUse" xlink:href="#id0" x1="0.83" y1="1.24" x2="0.83" y2="0.71">
  </linearGradient>
  <linearGradient id="id4" gradientUnits="userSpaceOnUse" xlink:href="#id0" x1="0.21" y1="0.34" x2="0.21" y2="0.28">
  </linearGradient>
  <linearGradient id="id5" gradientUnits="userSpaceOnUse" xlink:href="#id0" x1="0.2" y1="0.61" x2="0.2" y2="0.55">
  </linearGradient>
 </defs>
 <g id="Layer_x0020_1">
  <metadata id="CorelCorpID_0Corel-Layer"/>
  <g id="_2493811993152">
   <path class="fil0" d="M-0 0.18l0 1.1c0,0.09 0.09,0.18 0.18,0.18l0.56 0c0.06,0 0.07,-0.1 -0.01,-0.1l-0.52 0c-0.07,0 -0.11,-0.03 -0.11,-0.1l0 -1.05c0,-0.06 0.04,-0.1 0.1,-0.1l0.77 0c0.05,0 0.09,0.03 0.09,0.07 0.01,0.07 -0.01,0.37 0.01,0.41 0.03,0.06 0.1,0.04 0.1,-0.02l0 -0.38c0,-0.1 -0.09,-0.18 -0.17,-0.18l-0.82 0c-0.09,0 -0.18,0.09 -0.18,0.18z"/>
   <path class="fil1" d="M0.93 0.9l0.23 -0.08c0.01,-0 0.03,-0.01 0.04,-0.01 0.06,-0.02 0.04,-0.01 0.12,0.01 0.03,0.01 0.05,0.02 0.08,0.03 0.03,0.01 0.05,0.02 0.08,0.03 0.02,0.01 0.06,0.02 0.08,0.03 0,0.08 0,0.16 0,0.24 -0,0.09 -0.04,0.19 -0.11,0.25 -0.01,0.01 -0.01,0.02 -0.03,0.03 -0.01,0.01 -0.02,0.02 -0.03,0.03 -0.01,0.01 -0.01,0.01 -0.02,0.01 -0.02,0.02 -0.11,0.08 -0.13,0.08 -0.01,0 -0.09,-0.05 -0.11,-0.07l-0.03 -0.03c-0.01,-0.01 -0.02,-0.02 -0.03,-0.03 -0.02,-0.01 -0.02,-0.02 -0.03,-0.03 -0.06,-0.06 -0.11,-0.16 -0.11,-0.25 -0,-0.08 0,-0.16 0,-0.24zm-0.1 -0.05l0 0.31c0,0.06 0.02,0.13 0.05,0.18 0.04,0.09 0.09,0.14 0.16,0.2 0.04,0.03 0.17,0.12 0.2,0.12 0.04,0 0.05,-0.02 0.09,-0.03 0.07,-0.04 0.16,-0.11 0.22,-0.18 0.02,-0.02 0.05,-0.07 0.07,-0.1 0.02,-0.04 0.05,-0.11 0.05,-0.18l0 -0.31c0,-0.04 -0.05,-0.05 -0.09,-0.06 -0.04,-0.01 -0.31,-0.11 -0.33,-0.11 -0.02,0 -0.27,0.09 -0.33,0.11 -0.03,0.01 -0.09,0.02 -0.09,0.06z"/>
   <path class="fil2" d="M0.21 0.6c0,0.03 0.02,0.06 0.05,0.06l0.65 0c0.07,0 0.08,-0.11 -0.01,-0.11l-0.64 0c-0.03,0 -0.06,0.02 -0.06,0.05z"/>
   <path class="fil3" d="M1.22 1.21c-0.05,-0.03 -0.09,-0.11 -0.13,-0.11 -0.03,0 -0.05,0.02 -0.05,0.06 0,0.03 0.05,0.07 0.08,0.1 0.02,0.02 0.03,0.03 0.05,0.05 0.02,0.02 0.03,0.04 0.07,0.04 0.03,0 0.05,-0.04 0.07,-0.07l0.12 -0.17c0.01,-0.02 0.06,-0.07 0.06,-0.09 0,-0.04 -0.04,-0.07 -0.08,-0.05 -0.01,0.01 -0.02,0.02 -0.03,0.04 -0.01,0.01 -0.02,0.03 -0.03,0.04l-0.09 0.12c-0.01,0.01 -0.02,0.03 -0.03,0.04z"/>
   <path class="fil4" d="M0.21 0.87c0,0.04 0.02,0.06 0.05,0.06l0.39 0c0.07,0 0.07,-0.1 0,-0.1l-0.39 0c-0.02,0 -0.05,0.03 -0.05,0.05z"/>
   <path class="fil5" d="M0.21 0.32c0,0.04 0.02,0.06 0.06,0.06l0.29 0c0.08,0 0.08,-0.11 0.01,-0.11l-0.31 0c-0.03,0 -0.05,0.02 -0.05,0.05z"/>
  </g>
 </g>
</svg>
