<?xml version="1.0" encoding="UTF-8"?>
<!DOCTYPE svg PUBLIC "-//W3C//DTD SVG 1.1//EN" "http://www.w3.org/Graphics/SVG/1.1/DTD/svg11.dtd">
<!-- Creator: CorelDRAW 2019 (64-Bit) -->
<svg xmlns="http://www.w3.org/2000/svg" xml:space="preserve" width="0.0666693in" height="0.0666654in" version="1.1" style="shape-rendering:geometricPrecision; text-rendering:geometricPrecision; image-rendering:optimizeQuality; fill-rule:evenodd; clip-rule:evenodd"
viewBox="0 0 1.63 1.63"
 xmlns:xlink="http://www.w3.org/1999/xlink"
 xmlns:xodm="http://www.corel.com/coreldraw/odm/2003">
 <defs>
  <style type="text/css">
   <![CDATA[
    .fil1 {fill:url(#id0)}
    .fil2 {fill:url(#id1)}
    .fil8 {fill:url(#id2)}
    .fil5 {fill:url(#id3)}
    .fil4 {fill:url(#id4)}
    .fil3 {fill:url(#id5)}
    .fil7 {fill:url(#id6)}
    .fil6 {fill:url(#id7)}
    .fil0 {fill:url(#id8)}
   ]]>
  </style>
  <linearGradient id="id0" gradientUnits="userSpaceOnUse" x1="0.4" y1="0.33" x2="0.4" y2="0.18">
   <stop offset="0" style="stop-opacity:1; stop-color:#262E45"/>
   <stop offset="1" style="stop-opacity:1; stop-color:#E3C2A0"/>
  </linearGradient>
  <linearGradient id="id1" gradientUnits="userSpaceOnUse" xlink:href="#id0" x1="0.46" y1="0.76" x2="0.46" y2="0.56">
  </linearGradient>
  <linearGradient id="id2" gradientUnits="userSpaceOnUse" xlink:href="#id0" x1="0.24" y1="0.85" x2="0.24" y2="0.81">
  </linearGradient>
  <linearGradient id="id3" gradientUnits="userSpaceOnUse" xlink:href="#id0" x1="0.71" y1="0.9" x2="0.71" y2="0.86">
  </linearGradient>
  <linearGradient id="id4" gradientUnits="userSpaceOnUse" xlink:href="#id0" x1="0.71" y1="0.74" x2="0.71" y2="0.7">
  </linearGradient>
  <linearGradient id="id5" gradientUnits="userSpaceOnUse" xlink:href="#id0" x1="0.71" y1="0.58" x2="0.71" y2="0.54">
  </linearGradient>
  <linearGradient id="id6" gradientUnits="userSpaceOnUse" xlink:href="#id0" x1="1.19" y1="1.24" x2="1.19" y2="1.13">
  </linearGradient>
  <linearGradient id="id7" gradientUnits="userSpaceOnUse" xlink:href="#id0" x1="1.1" y1="1.38" x2="1.1" y2="1.27">
  </linearGradient>
  <linearGradient id="id8" gradientUnits="userSpaceOnUse" xlink:href="#id0" x1="-0.01" y1="0.92" x2="-0.01" y2="0.03">
  </linearGradient>
 </defs>
 <g id="Layer_x0020_1">
  <metadata id="CorelCorpID_0Corel-Layer"/>
  <g id="_2493811119984">
   <path class="fil0" d="M1.03 1.3c0,-0.27 0.38,-0.39 0.52,-0.11 0.01,0.01 0.01,0.03 0.02,0.05 0.01,0.04 0.01,0.08 0,0.12 -0.02,0.09 -0.07,0.15 -0.15,0.19 -0.1,0.05 -0.22,0.02 -0.3,-0.05 -0.03,-0.03 -0.04,-0.04 -0.05,-0.08 -0.01,-0.01 -0.01,-0.03 -0.02,-0.05 -0,-0.02 -0.01,-0.05 -0.01,-0.06zm0.6 -0.02l0 0.05c-0,0.04 -0.01,0.08 -0.03,0.12 -0.04,0.07 -0.09,0.12 -0.16,0.16 -0.04,0.02 -0.08,0.03 -0.12,0.03l-0.03 0c-0.05,-0 -0.11,-0.02 -0.15,-0.05 -0.11,-0.07 -0.13,-0.15 -0.14,-0.16 -0,-0 -0,-0 -0.01,-0.01 -0.05,-0.03 -0.03,-0.03 -0.1,0.02 -0.03,0.02 -0.04,0.03 -0.07,0.03 -0.02,0 -0.08,-0.05 -0.1,-0.06 -0.05,-0.03 -0.02,-0.03 -0.13,0.04 -0.03,0.01 -0.02,0.02 -0.05,0.02 -0.01,0 -0.1,-0.07 -0.13,-0.08l-0.06 0.04c-0.02,0.01 -0.05,0.04 -0.07,0.04 -0.02,0 -0.04,-0.01 -0.04,-0.03l0 -0.46c0,-0.02 0.01,-0.03 0.03,-0.03 0.04,0 0.03,0.03 0.03,0.09l0 0.34 0.05 -0.03c0.05,-0.03 0.05,-0.04 0.09,-0.01 0.01,0.01 0.02,0.01 0.03,0.02l0.06 0.04c0.02,-0.01 0.04,-0.03 0.07,-0.04 0.01,-0.01 0.02,-0.01 0.03,-0.02 0.04,-0.03 0.04,-0.02 0.1,0.02l0.06 0.04c0.02,-0.01 0.04,-0.03 0.07,-0.04 0.05,-0.03 0.06,-0.05 0.09,-0.03 0,-0.07 0,-0.1 0.02,-0.15 0.03,-0.08 0.09,-0.15 0.16,-0.18 0.06,-0.03 0.09,-0.04 0.16,-0.04l0 -0.71c0,-0.09 -0.04,-0.16 -0.12,-0.18 -0.05,-0.02 -0.23,-0.01 -0.3,-0.01 -0.2,0 -0.41,0 -0.61,0 0,0.01 0.01,0.02 0.02,0.03 0,0.01 0.01,0.03 0.01,0.04l0 0.56c0,0.04 -0.06,0.04 -0.06,0l0 -0.27 -0.2 0c-0.02,0 -0.04,-0.01 -0.04,-0.03l0 -0.26c0,-0.07 0.07,-0.14 0.14,-0.14l1.01 0c0.04,0 0.08,0.02 0.11,0.04 0.06,0.04 0.11,0.11 0.11,0.19l0 0.74c0.01,0 0.02,0.01 0.03,0.01 0.03,0.01 0.05,0.02 0.07,0.03 0.01,0.01 0.03,0.02 0.04,0.03 0.07,0.06 0.11,0.15 0.12,0.23zm-1.57 -1.12c0,-0.12 0.18,-0.13 0.18,0l0 0.21 -0.18 0 0 -0.21z"/>
   <path class="fil1" d="M0.47 0.24l0.67 0 0 0.14 -0.67 0 0 -0.14zm-0.07 -0.03l0 0.2c0,0.02 0.01,0.04 0.03,0.04l0.74 0c0.02,0 0.03,-0.02 0.03,-0.04l0 -0.19c0,-0.02 -0.01,-0.04 -0.03,-0.04l-0.74 0c-0.02,0 -0.03,0.01 -0.03,0.03z"/>
   <path class="fil2" d="M0.5 0.6c-0.03,0.01 -0.06,0.06 -0.04,0.1 0.03,0.07 0.09,0.04 0.09,0.08 0,0.03 -0.04,0.01 -0.05,0.01 -0.03,0 -0.05,0.06 0.01,0.07 0,0.06 0.05,0.05 0.06,0.03 0.01,-0.01 0.01,-0.02 0.01,-0.03 0.06,-0.04 0.07,-0.09 0.02,-0.14 -0.02,-0.02 -0.06,-0.02 -0.06,-0.04 0,-0.03 0.04,-0.01 0.05,-0.01 0.03,0 0.06,-0.05 -0.01,-0.07 0,-0.03 -0.01,-0.04 -0.03,-0.04 -0.03,0 -0.03,0.02 -0.03,0.05z"/>
   <path class="fil3" d="M0.72 0.57c0,0.02 0.01,0.04 0.03,0.04l0.38 0c0.04,0 0.04,-0.06 0,-0.06l-0.38 0c-0.02,0 -0.03,0.01 -0.03,0.03z"/>
   <path class="fil4" d="M0.72 0.73c0,0.02 0.01,0.04 0.03,0.04l0.38 0c0.04,0 0.04,-0.06 0,-0.06l-0.38 0c-0.02,0 -0.03,0.01 -0.03,0.03z"/>
   <path class="fil5" d="M0.72 0.89c0,0.02 0.01,0.03 0.03,0.03l0.38 0c0.04,0 0.04,-0.06 0,-0.06l-0.38 0c-0.02,0 -0.03,0.01 -0.03,0.03z"/>
   <path class="fil6" d="M1.1 1.33c0,0.03 0.02,0.03 0.04,0.03 0,0.04 0.07,0.1 0.15,0.1 0.12,0 0.12,-0.08 0.07,-0.08 -0.04,0 -0.01,0.02 -0.08,0.02 -0.03,0 -0.06,-0.03 -0.07,-0.04 0.01,-0.02 0.02,-0.01 0.02,-0.04 0,-0.02 -0.04,-0.05 -0.07,-0.05 -0.02,0 -0.05,0.06 -0.05,0.06z"/>
   <path class="fil7" d="M1.19 1.18c0,0.02 0.02,0.03 0.03,0.03 0.04,0 0.01,-0.02 0.08,-0.02 0.03,0 0.06,0.03 0.07,0.04 -0.01,0.02 -0.02,0.01 -0.02,0.03 0,0.02 0.04,0.05 0.07,0.05 0.01,0 0.02,-0.02 0.03,-0.03 0.01,-0.02 0.03,-0.04 0.01,-0.06 -0.01,-0.01 -0.01,-0.01 -0.03,-0.01 -0,-0.02 -0.04,-0.06 -0.05,-0.07 -0.09,-0.06 -0.2,-0.02 -0.2,0.02z"/>
   <path class="fil8" d="M0.24 0.84c0,0.05 0.06,0.05 0.06,0 0,-0.04 -0.06,-0.04 -0.06,0z"/>
  </g>
 </g>
</svg>
