<?xml version="1.0" encoding="UTF-8"?>
<!DOCTYPE svg PUBLIC "-//W3C//DTD SVG 1.1//EN" "http://www.w3.org/Graphics/SVG/1.1/DTD/svg11.dtd">
<!-- Creator: CorelDRAW 2019 (64-Bit) -->
<svg xmlns="http://www.w3.org/2000/svg" xml:space="preserve" width="0.0586811in" height="0.0528661in" version="1.1" style="shape-rendering:geometricPrecision; text-rendering:geometricPrecision; image-rendering:optimizeQuality; fill-rule:evenodd; clip-rule:evenodd"
viewBox="0 0 1.08 0.97"
 xmlns:xlink="http://www.w3.org/1999/xlink"
 xmlns:xodm="http://www.corel.com/coreldraw/odm/2003">
 <defs>
  <style type="text/css">
   <![CDATA[
    .fil10 {fill:url(#id0)}
    .fil4 {fill:url(#id1)}
    .fil14 {fill:url(#id2)}
    .fil13 {fill:url(#id3)}
    .fil5 {fill:url(#id4)}
    .fil2 {fill:url(#id5)}
    .fil12 {fill:url(#id6)}
    .fil11 {fill:url(#id7)}
    .fil7 {fill:url(#id8)}
    .fil8 {fill:url(#id9)}
    .fil6 {fill:url(#id10)}
    .fil1 {fill:url(#id11)}
    .fil0 {fill:url(#id12)}
    .fil9 {fill:url(#id13)}
    .fil3 {fill:url(#id14)}
   ]]>
  </style>
  <linearGradient id="id0" gradientUnits="userSpaceOnUse" x1="0.73" y1="0.38" x2="0.56" y2="0.35">
   <stop offset="0" style="stop-opacity:1; stop-color:#262E45"/>
   <stop offset="1" style="stop-opacity:1; stop-color:#E3C2A0"/>
  </linearGradient>
  <linearGradient id="id1" gradientUnits="userSpaceOnUse" xlink:href="#id0" x1="0.49" y1="0.39" x2="0.35" y2="0.24">
  </linearGradient>
  <linearGradient id="id2" gradientUnits="userSpaceOnUse" xlink:href="#id0" x1="1.02" y1="0.28" x2="0.94" y2="0.25">
  </linearGradient>
  <linearGradient id="id3" gradientUnits="userSpaceOnUse" xlink:href="#id0" x1="0.73" y1="0.55" x2="0.6" y2="0.51">
  </linearGradient>
  <linearGradient id="id4" gradientUnits="userSpaceOnUse" xlink:href="#id0" x1="0.49" y1="0.68" x2="0.35" y2="0.53">
  </linearGradient>
  <linearGradient id="id5" gradientUnits="userSpaceOnUse" xlink:href="#id0" x1="0.46" y1="0.75" x2="0.29" y2="0.52">
  </linearGradient>
  <linearGradient id="id6" gradientUnits="userSpaceOnUse" xlink:href="#id0" x1="0.73" y1="0.26" x2="0.6" y2="0.22">
  </linearGradient>
  <linearGradient id="id7" gradientUnits="userSpaceOnUse" xlink:href="#id0" x1="0.73" y1="0.45" x2="0.56" y2="0.41">
  </linearGradient>
  <linearGradient id="id8" gradientUnits="userSpaceOnUse" xlink:href="#id0" x1="0.73" y1="0.67" x2="0.56" y2="0.64">
  </linearGradient>
  <linearGradient id="id9" gradientUnits="userSpaceOnUse" xlink:href="#id0" x1="0.73" y1="0.73" x2="0.56" y2="0.7">
  </linearGradient>
  <linearGradient id="id10" gradientUnits="userSpaceOnUse" xlink:href="#id0" x1="0.73" y1="0.61" x2="0.56" y2="0.57">
  </linearGradient>
  <linearGradient id="id11" gradientUnits="userSpaceOnUse" xlink:href="#id0" x1="1.02" y1="1.02" x2="0.94" y2="0.33">
  </linearGradient>
  <linearGradient id="id12" gradientUnits="userSpaceOnUse" xlink:href="#id0" x1="1.05" y1="1.06" x2="0.2" y2="0.05">
  </linearGradient>
  <linearGradient id="id13" gradientUnits="userSpaceOnUse" xlink:href="#id0" x1="0.73" y1="0.32" x2="0.56" y2="0.29">
  </linearGradient>
  <linearGradient id="id14" gradientUnits="userSpaceOnUse" xlink:href="#id0" x1="0.46" y1="0.46" x2="0.29" y2="0.23">
  </linearGradient>
 </defs>
 <g id="Layer_x0020_1">
  <metadata id="CorelCorpID_0Corel-Layer"/>
  <g id="_2493812007296">
   <path class="fil0" d="M0.04 0.86l0.54 0c0,0.02 0.01,0.05 0.03,0.07 0.01,0.01 0.01,0.01 0.01,0.02 -0.05,0 -0.47,0 -0.5,-0 -0.02,-0 -0.02,-0 -0.03,-0.01 -0.03,-0.01 -0.05,-0.05 -0.05,-0.08zm0.9 -0.82c0.03,0 0.05,0 0.08,0.03 0.01,0.01 0.03,0.04 0.03,0.06l-0.19 0c0,-0.04 0.05,-0.08 0.09,-0.08zm-0.34 0.79l-0.42 0 0 -0.7c0,-0.05 0.04,-0.09 0.1,-0.09l0.58 0c-0.01,0.01 -0.02,0.01 -0.03,0.05 -0.01,0.02 -0.01,0.04 -0.01,0.07l0 0.64c0,0.07 0,0.09 -0.04,0.12 -0.03,0.03 -0.08,0.03 -0.12,0.01 -0.07,-0.04 -0.03,-0.1 -0.06,-0.1zm-0.46 -0.69l0 0.69 -0.12 0c-0.02,0 -0.02,0.01 -0.02,0.02 0,0.06 0.06,0.12 0.13,0.12l0.59 0c0.07,0 0.13,-0.07 0.13,-0.13l0 -0.69 0.22 0c0.04,0 -0,-0.15 -0.12,-0.15l-0.68 0c-0.07,0 -0.13,0.06 -0.13,0.13z"/>
   <path class="fil1" d="M0.95 0.38l0 -0.05 0.04 0 0 0.46c-0,0.02 0.01,0.08 0,0.09 -0,0.01 -0.02,0.02 -0.02,0.03 -0.01,-0 -0,-0 -0.01,-0.01 -0,-0 -0,-0.01 -0.01,-0.01 -0.01,-0.01 -0.01,-0.01 -0.01,-0.03 0,-0.08 0,-0.16 -0,-0.24 -0,-0.05 0,-0.2 0,-0.25zm-0.03 -0.06l0 0.57c0,0.01 0.02,0.03 0.02,0.04 0.01,0.01 0.02,0.03 0.03,0.03 0.02,0 0.06,-0.06 0.06,-0.06l0 -0.58c0,-0.01 -0.01,-0.02 -0.01,-0.02l-0.08 0c-0.01,0 -0.02,0.01 -0.02,0.02z"/>
   <path class="fil2" d="M0.25 0.58l0 0.09c0,0.04 0.03,0.06 0.06,0.06l0.09 0c0.04,0 0.06,-0.03 0.06,-0.06l0 -0.02c0,-0.02 -0.03,-0.03 -0.03,0 -0,0.01 0.01,0.05 -0.03,0.05 -0.03,0 -0.1,0.01 -0.12,-0.01 -0,-0 -0.01,-0.01 -0.01,-0.01l0 -0.11c0,-0.06 0.13,0 0.13,-0.04 0,-0.01 -0.01,-0.02 -0.02,-0.02l-0.08 0c-0.04,0 -0.07,0.03 -0.07,0.06z"/>
   <path class="fil3" d="M0.25 0.29l0 0.1c0,0.03 0.03,0.06 0.06,0.06l0.1 0c0.03,0 0.06,-0.03 0.06,-0.06 0,-0.02 0,-0.05 -0.02,-0.04 -0.04,0.01 0.02,0.07 -0.06,0.07 -0.13,0 -0.11,0.01 -0.11,-0.13 0,-0.03 0.04,-0.03 0.06,-0.03 0.01,0 0.06,0 0.06,-0 0.01,-0.01 0.02,-0.03 -0.01,-0.03 -0.04,0 -0.09,-0.01 -0.12,0.02 -0.01,0.01 -0.02,0.02 -0.02,0.05z"/>
   <path class="fil4" d="M0.37 0.34c-0.01,-0.01 -0.03,-0.03 -0.05,-0.03 -0.01,0 -0.01,0.01 -0.01,0.02 0,0.01 0.05,0.05 0.06,0.05 0.01,0 0.03,-0.02 0.03,-0.03 0.01,-0.01 0.09,-0.09 0.09,-0.1 0,-0.01 0,-0.02 -0.01,-0.02 -0.02,0 -0.09,0.09 -0.11,0.1z"/>
   <path class="fil5" d="M0.37 0.63c-0.01,-0.01 -0.03,-0.03 -0.05,-0.03 -0.01,0 -0.01,0.01 -0.01,0.02 0,0.01 0.01,0.01 0.02,0.02 0.05,0.05 0.03,0.05 0.14,-0.06 0.02,-0.02 0.03,-0.02 0.03,-0.04 0,-0.01 -0.01,-0.01 -0.02,-0.01 -0.01,0 -0.09,0.09 -0.11,0.1z"/>
   <path class="fil6" d="M0.52 0.59c0,0.01 0.01,0.02 0.02,0.02l0.18 0c0.02,0 0.02,-0.03 -0,-0.03l-0.18 0c-0.01,0 -0.02,0.01 -0.02,0.02z"/>
   <path class="fil7" d="M0.52 0.65c0,0.01 0.01,0.02 0.02,0.02l0.18 0c0.02,0 0.02,-0.03 -0,-0.03l-0.17 0c-0.01,0 -0.02,0 -0.02,0.02z"/>
   <path class="fil8" d="M0.52 0.71c0,0.01 0.01,0.02 0.02,0.02l0.18 0c0.02,0 0.02,-0.03 -0,-0.03l-0.17 0c-0.01,0 -0.02,0 -0.02,0.02z"/>
   <path class="fil9" d="M0.52 0.3c0,0.01 0.01,0.01 0.01,0.01l0.19 0c0.02,0 0.03,-0.03 -0.01,-0.03l-0.17 0c-0.02,0 -0.03,0 -0.03,0.02z"/>
   <path class="fil10" d="M0.52 0.37c0,0.01 0.01,0.01 0.01,0.01l0.19 0c0.02,0 0.03,-0.03 -0.01,-0.03l-0.16 0c-0.02,0 -0.03,0 -0.03,0.02z"/>
   <path class="fil11" d="M0.52 0.43c0,0.01 0.01,0.02 0.02,0.02l0.18 0c0.03,0 0.02,-0.03 0,-0.03l-0.19 0c-0.01,0 -0.01,0.01 -0.01,0.01z"/>
   <path class="fil12" d="M0.57 0.24c0,0.01 -0,0.01 0,0.01 0,0 0.01,0.01 0.01,0.01l0.13 0c0.02,0 0.03,-0.03 -0.01,-0.03l-0.11 0c-0.01,0 -0.02,0 -0.02,0.01z"/>
   <path class="fil13" d="M0.57 0.52c0,0.01 0.01,0.02 0.02,0.02l0.12 0c0.03,0 0.03,-0.03 0,-0.03l-0.12 0c-0.01,0 -0.02,0.01 -0.02,0.01z"/>
   <path class="fil14" d="M0.94 0.28c0.05,0 0.08,0.01 0.08,-0.02 0,-0.02 -0.04,-0.02 -0.07,-0.02 -0.04,0 -0.03,0.03 -0.01,0.03z"/>
  </g>
 </g>
</svg>
