<?xml version="1.0" encoding="UTF-8"?>
<!DOCTYPE svg PUBLIC "-//W3C//DTD SVG 1.1//EN" "http://www.w3.org/Graphics/SVG/1.1/DTD/svg11.dtd">
<!-- Creator: CorelDRAW 2019 (64-Bit) -->
<svg xmlns="http://www.w3.org/2000/svg" xml:space="preserve" width="0.0643819in" height="0.0666654in" version="1.1" style="shape-rendering:geometricPrecision; text-rendering:geometricPrecision; image-rendering:optimizeQuality; fill-rule:evenodd; clip-rule:evenodd"
viewBox="0 0 1.32 1.37"
 xmlns:xlink="http://www.w3.org/1999/xlink"
 xmlns:xodm="http://www.corel.com/coreldraw/odm/2003">
 <defs>
  <style type="text/css">
   <![CDATA[
    .fil11 {fill:url(#id0)}
    .fil6 {fill:url(#id1)}
    .fil3 {fill:url(#id2)}
    .fil2 {fill:url(#id3)}
    .fil12 {fill:url(#id4)}
    .fil10 {fill:url(#id5)}
    .fil1 {fill:url(#id6)}
    .fil4 {fill:url(#id7)}
    .fil5 {fill:url(#id8)}
    .fil8 {fill:url(#id9)}
    .fil7 {fill:url(#id10)}
    .fil9 {fill:url(#id11)}
    .fil0 {fill:url(#id12)}
   ]]>
  </style>
  <linearGradient id="id0" gradientUnits="userSpaceOnUse" x1="0.87" y1="0.51" x2="0.87" y2="0.48">
   <stop offset="0" style="stop-opacity:1; stop-color:#262E45"/>
   <stop offset="1" style="stop-opacity:1; stop-color:#E3C2A0"/>
  </linearGradient>
  <linearGradient id="id1" gradientUnits="userSpaceOnUse" xlink:href="#id0" x1="0.87" y1="0.26" x2="0.87" y2="0.24">
  </linearGradient>
  <linearGradient id="id2" gradientUnits="userSpaceOnUse" xlink:href="#id0" x1="0.39" y1="0.95" x2="0.39" y2="0.93">
  </linearGradient>
  <linearGradient id="id3" gradientUnits="userSpaceOnUse" xlink:href="#id0" x1="0.09" y1="0.88" x2="0.09" y2="0.77">
  </linearGradient>
  <linearGradient id="id4" gradientUnits="userSpaceOnUse" xlink:href="#id0" x1="0.39" y1="0.7" x2="0.39" y2="0.68">
  </linearGradient>
  <linearGradient id="id5" gradientUnits="userSpaceOnUse" xlink:href="#id0" x1="0.39" y1="1.04" x2="0.39" y2="1.01">
  </linearGradient>
  <linearGradient id="id6" gradientUnits="userSpaceOnUse" xlink:href="#id0" x1="0.55" y1="0.35" x2="0.55" y2="0.2">
  </linearGradient>
  <linearGradient id="id7" gradientUnits="userSpaceOnUse" xlink:href="#id0" x1="0.87" y1="0.42" x2="0.87" y2="0.4">
  </linearGradient>
  <linearGradient id="id8" gradientUnits="userSpaceOnUse" xlink:href="#id0" x1="0.87" y1="0.34" x2="0.87" y2="0.32">
  </linearGradient>
  <linearGradient id="id9" gradientUnits="userSpaceOnUse" xlink:href="#id0" x1="0.39" y1="0.87" x2="0.39" y2="0.85">
  </linearGradient>
  <linearGradient id="id10" gradientUnits="userSpaceOnUse" xlink:href="#id0" x1="0.87" y1="0.18" x2="0.87" y2="0.15">
  </linearGradient>
  <linearGradient id="id11" gradientUnits="userSpaceOnUse" xlink:href="#id0" x1="0.39" y1="0.79" x2="0.39" y2="0.76">
  </linearGradient>
  <linearGradient id="id12" gradientUnits="userSpaceOnUse" xlink:href="#id0" x1="-0.01" y1="0.77" x2="-0.01" y2="0.02">
  </linearGradient>
 </defs>
 <g id="Layer_x0020_1">
  <metadata id="CorelCorpID_0Corel-Layer"/>
  <g id="_2493684758576">
   <path class="fil0" d="M0.46 0.15l0 0.37 -0.29 0c-0.06,0 -0.1,0.01 -0.13,0.04 -0.02,0.02 -0.03,0.03 -0.03,0.05 -0.01,0.02 -0.01,0.05 -0.01,0.07l0 0.34c0,0.05 0.02,0.1 0.05,0.13 0.08,0.06 0.1,0.02 0.12,0.05 0.05,0.06 0.08,0.09 0.14,0.13 0.02,0.01 0.04,0.03 0.06,0.03 0.02,0 0.03,-0.02 0.04,-0.03 0.01,-0.02 -0.01,-0.03 -0.01,-0.05 -0.01,-0.02 -0.03,-0.07 -0.03,-0.1 0.04,0 0.07,-0 0.11,0 0.06,0 0.04,-0.04 0.01,-0.04l-0.12 0c-0.03,0 -0.05,0.02 -0.05,0.04 0,0.01 0.01,0.06 0.02,0.07l0.02 0.06c-0.03,-0.01 -0.1,-0.08 -0.13,-0.1l-0.04 -0.04c-0.04,-0.05 -0.06,-0.02 -0.11,-0.04 -0.03,-0.02 -0.06,-0.05 -0.06,-0.1l0 -0.37c0,-0.06 0.05,-0.11 0.11,-0.11l0.31 0c0,0.03 0.03,0.06 0.05,0.08 0.02,0.02 0.06,0.04 0.09,0.04l0.21 0 0 0.38c0,0.04 -0.04,0.08 -0.08,0.09 -0.05,0.01 -0.16,-0.02 -0.16,0.02 0,0.01 0.01,0.02 0.02,0.02l0.11 0c0.08,0 0.15,-0.07 0.15,-0.15l0 -0.37 0.09 0c-0,0.04 -0.05,0.12 -0.05,0.13 0,0.03 0.03,0.05 0.05,0.04 0.02,-0.01 0.07,-0.04 0.09,-0.06 0.03,-0.02 0.06,-0.05 0.08,-0.07 0.03,-0.04 0.02,-0.04 0.06,-0.04 0.05,-0 0.1,-0.04 0.12,-0.08 0.03,-0.05 0.02,-0.14 0.02,-0.21 0,-0.02 -0.01,-0.03 -0.03,-0.03 -0.03,0 -0.01,0.13 -0.02,0.18 -0.02,0.1 -0.11,0.09 -0.14,0.1 -0.01,0.01 -0.06,0.07 -0.1,0.1 -0.01,0 -0.01,0.01 -0.01,0.01l-0.08 0.05c0,-0.01 0.01,-0.02 0.01,-0.03 0.01,-0.03 0.04,-0.09 0.02,-0.12 -0.01,-0.03 -0.04,-0.02 -0.08,-0.02 -0.05,0 -0.27,0 -0.3,-0 -0.06,-0.01 -0.1,-0.05 -0.1,-0.1l0 -0.39c0,-0.05 0.05,-0.1 0.12,-0.1l0.54 0c0.07,0 0.1,0.04 0.12,0.09 0.01,0.02 0,0.11 0,0.15 -0,0.05 0.04,0.04 0.04,0.01 0,-0.05 0.01,-0.14 -0.01,-0.18 -0.02,-0.05 -0.07,-0.1 -0.13,-0.1l-0.57 0c-0.08,0 -0.14,0.07 -0.14,0.15z"/>
   <path class="fil1" d="M0.6 0.31c0.01,-0 0.05,-0 0.06,-0.01 0.01,-0.01 0.02,-0.03 0.02,-0.05 0.01,0.01 0.01,0.03 0.03,0.04 0.01,0.01 0.04,0.01 0.06,0.02 -0.02,0.03 -0.05,0.02 -0.03,0.1 -0.02,-0 -0.03,-0.02 -0.05,-0.02 -0.01,0 -0.03,0.02 -0.05,0.02 0,-0.02 0.01,-0.02 0.01,-0.05 0,-0.02 -0.03,-0.03 -0.04,-0.05zm0.03 -0.05c-0.01,0 -0.05,0.01 -0.05,0.01 -0.02,0 -0.03,0.02 -0.03,0.03 0,0.02 0.05,0.05 0.05,0.06 0,0.03 -0.02,0.06 0,0.08 0.03,0.03 0.06,-0.01 0.08,-0.02 0.01,-0 0.05,0.03 0.06,0.03 0.06,0 0.03,-0.07 0.03,-0.09 0.01,-0.01 0.05,-0.04 0.05,-0.06 0,-0.02 -0.01,-0.03 -0.03,-0.04 -0.01,-0 -0.04,-0 -0.05,-0.01 -0.02,-0.01 -0.02,-0.07 -0.06,-0.07 -0.02,0 -0.03,0.01 -0.03,0.03 -0.01,0.01 -0.02,0.03 -0.02,0.04z"/>
   <path class="fil2" d="M0.21 0.91c-0.01,-0.01 -0.02,-0.02 -0.04,-0.03 -0.06,-0.05 -0.02,-0.07 -0.01,-0.07 0.03,0 0.02,0.02 0.05,0.02 0.02,0 0.04,-0.03 0.06,-0.01 0.03,0.03 -0.02,0.06 -0.04,0.08 -0.01,0.01 -0.01,0.01 -0.02,0.02zm-0.11 -0.08c0,0.03 0.02,0.05 0.04,0.07 0.03,0.02 0.04,0.06 0.07,0.06 0.01,0 0.02,-0.01 0.03,-0.02 0.01,-0.01 0.02,-0.02 0.03,-0.03 0.03,-0.03 0.05,-0.04 0.05,-0.08 0,-0.04 -0.05,-0.07 -0.09,-0.06 -0.01,0 -0.01,0.01 -0.02,0.01 -0.01,0 -0.05,-0.03 -0.1,0.01 -0,0.01 -0.01,0.01 -0.01,0.02 -0,0 -0.01,0.02 -0.01,0.03z"/>
   <path class="fil3" d="M0.39 0.95c0,0.02 0,0.03 0.03,0.03l0.28 0c0.03,0 0.03,-0.04 0,-0.04l-0.29 0c-0.01,0 -0.02,0.01 -0.02,0.02z"/>
   <path class="fil4" d="M0.87 0.42c0,0.01 -0,0.03 0.02,0.03l0.28 0c0.03,0 0.03,-0.04 0,-0.04l-0.28 0c-0.01,0 -0.02,0.01 -0.02,0.02z"/>
   <path class="fil5" d="M0.9 0.36l0.27 0c0.04,0 0.04,-0.04 0.01,-0.04l-0.29 0c-0.03,0 -0.03,0.04 0.01,0.04z"/>
   <path class="fil6" d="M0.89 0.28l0.29 0c0.02,0 0.03,-0.04 -0.01,-0.04l-0.29 0c-0.03,0 -0.03,0.04 0,0.04z"/>
   <path class="fil7" d="M0.89 0.19l0.29 0c0.03,0 0.02,-0.04 0.01,-0.04l-0.29 0c-0.03,0 -0.03,0.04 0,0.04z"/>
   <path class="fil8" d="M0.39 0.86c0,0.01 0,0.02 0.02,0.02l0.29 0c0.02,0 0.03,-0.04 -0.01,-0.04l-0.29 0c-0.01,0 -0.02,0.01 -0.02,0.02z"/>
   <path class="fil9" d="M0.39 0.78c0,0.01 0,0.02 0.02,0.02l0.3 0c0.02,0 0.02,-0.04 0,-0.04l-0.3 0c-0.01,0 -0.02,0.01 -0.02,0.02z"/>
   <path class="fil10" d="M0.39 1.03c0,0.01 0.01,0.02 0.02,0.02l0.14 0c0.03,0 0.03,-0.04 -0.01,-0.04l-0.13 0c-0.02,0 -0.03,0.01 -0.03,0.02z"/>
   <path class="fil11" d="M0.9 0.53l0.14 0c0.03,0 0.03,-0.04 -0.01,-0.04l-0.13 0c-0.04,0 -0.03,0.04 -0.01,0.04z"/>
   <path class="fil12" d="M0.39 0.7c0,0.01 0.01,0.02 0.02,0.02l0.08 0c0.03,0 0.03,-0.04 -0.01,-0.04 -0.04,0 -0.09,-0.01 -0.09,0.02z"/>
  </g>
 </g>
</svg>
